<svg width="800" height="800" viewBox="0 0 800 800" fill="none" xmlns="http://www.w3.org/2000/svg">
<rect width="800" height="800" fill="white"/>
<path d="M633.189 271.657V516.87L568.284 647.654V647.668L566.227 651.796L394.396 640.463L328.341 636.1L175.035 625.985V332.667L328.341 336.985L396.898 338.92L570.341 343.813L633.189 271.657Z" fill="#1ABC9C"/>
<path opacity="0.1" d="M633.186 286.124V516.87L617.328 548.819V548.83L601.066 581.578V581.589L568.28 647.654L571.946 402.441L572.686 352.976L603.863 318.529V318.517L617.455 303.501L633.186 286.124Z" fill="black"/>
<path d="M641.998 206.541V292.19L633.186 306.209L617.444 331.259L603.501 353.446L572.686 402.477L571.946 402.44L161.522 381.358V296.882L162.558 295.768L211.557 242.794L229.293 223.623L261.376 188.94L641.998 206.541Z" fill="#1ABC9C"/>
<path opacity="0.1" d="M572.686 318.002V402.477L161.522 381.358V296.882L162.558 295.769L572.686 318.002Z" fill="black"/>
<path opacity="0.15" d="M642 206.541V292.189L572.688 402.477V318.001L642 206.541Z" fill="black"/>
<path d="M617.496 245.95L617.459 303.501L617.448 331.259L617.332 548.819V548.83L601.07 581.578L603.504 353.447L603.867 318.529V318.517L604.421 266.976L211.561 242.794L229.297 223.623L617.496 245.95Z" fill="#2F2E41"/>
<path d="M424.672 248.777L397.146 308.484L396.899 338.92L394.397 640.463L328.342 636.099V304.509L363.585 248.777H424.672Z" fill="#2F2E41"/>
<path d="M334.016 252.796C318.112 258.081 301.02 258.68 284.784 254.522C281.623 253.91 278.658 252.538 276.148 250.522C273.448 247.543 271.603 243.891 270.807 239.952C267.935 231.813 266.344 223.279 266.09 214.653C266.288 206.04 269.587 197.051 276.623 192.067C278.054 191.203 279.394 190.198 280.624 189.065C282.092 187.216 283.147 185.074 283.72 182.784C288.532 168.446 297.862 153.305 312.828 151.01C326.637 148.893 339.203 158.524 349.842 167.566L373.193 187.413C375.784 180.457 380.42 174.447 386.493 170.17C392.565 165.894 399.791 163.551 407.221 163.45C414.651 163.349 421.937 165.494 428.125 169.604C434.312 173.713 439.11 179.596 441.89 186.478C456.039 170.559 473.873 158.338 493.835 150.88C498.259 149.234 503.455 147.893 507.487 150.345C509.979 152.181 511.869 154.714 512.92 157.623C519.276 171.518 522.721 186.565 523.043 201.838C524.675 201.28 526.447 201.282 528.078 201.844C529.709 202.406 531.106 203.496 532.046 204.94C533.855 207.884 534.886 211.237 535.043 214.687C535.666 220.017 535.977 225.379 535.974 230.745C535.971 236.404 535.446 242.517 531.753 246.809C526.981 252.355 518.742 252.941 511.423 253.115C514.947 256.24 513.227 262.532 509.328 265.176C505.43 267.82 500.387 267.869 495.675 267.823C477.508 267.647 458.183 267.131 443.071 257.059C437.104 253.082 432.107 247.785 426.124 243.831C411.462 234.141 393.052 233.677 376.08 234.479C360.761 235.203 348.602 247.917 334.016 252.796Z" fill="#2F2E41"/>
<path d="M330.689 248.777C330.689 248.777 179.146 269.896 158 361.412L189.718 356.718L212.039 396.61C212.039 396.61 235.534 307.441 304.844 286.322C374.155 265.203 398.824 261.683 398.824 261.683C398.824 261.683 446.989 273.416 490.455 413.036L515.125 379.011L558.591 388.397C558.591 388.397 526.872 279.282 441.115 248.777L330.689 248.777Z" fill="#2F2E41"/>
</svg>
