<svg width="163" height="55" viewBox="0 0 163 55" fill="none" xmlns="http://www.w3.org/2000/svg">
<path d="M106.611 16.4712L106.544 15.9756L106.611 16.4712ZM153.93 53.2556C153.789 53.493 153.482 53.5711 153.245 53.4301L149.376 51.1316C149.139 50.9905 149.061 50.6837 149.202 50.4463C149.343 50.2089 149.649 50.1308 149.887 50.2718L153.326 52.315L155.369 48.8762C155.51 48.6388 155.817 48.5607 156.054 48.7017C156.291 48.8428 156.37 49.1495 156.228 49.3869L153.93 53.2556ZM47.5 36.4999L47.4948 35.9999L47.5 36.4999ZM5.50016 1.99986C5.94323 1.76816 5.94322 1.76814 5.94321 1.76812C5.94322 1.76813 5.94321 1.76812 5.94322 1.76813C5.94322 1.76814 5.94325 1.76818 5.94328 1.76824C5.94334 1.76837 5.94346 1.76859 5.94363 1.76891C5.94396 1.76955 5.9445 1.77057 5.94524 1.77198C5.94671 1.77479 5.94899 1.77913 5.95208 1.78497C5.95825 1.79666 5.96762 1.81438 5.98018 1.83795C6.00528 1.88511 6.0431 1.95572 6.0934 2.04844C6.19399 2.23389 6.34446 2.50778 6.54291 2.8595C6.93983 3.56298 7.52854 4.57758 8.29377 5.81831L7.44264 6.34325C6.66989 5.09034 6.07459 4.06447 5.67198 3.3509C5.47066 2.9941 5.31749 2.71533 5.21438 2.52523C5.16283 2.43018 5.12378 2.3573 5.09749 2.30792C5.08434 2.28322 5.07438 2.2644 5.06764 2.25162C5.06427 2.24523 5.0617 2.24035 5.05994 2.237C5.05906 2.23533 5.05838 2.23404 5.05791 2.23313C5.05767 2.23268 5.05748 2.23232 5.05735 2.23206C5.05728 2.23193 5.05722 2.23182 5.05718 2.23174C5.05716 2.2317 5.05714 2.23166 5.05712 2.23163C5.05711 2.2316 5.05709 2.23157 5.50016 1.99986ZM10.8591 9.77579C12.4162 12.0655 14.3103 14.6609 16.4955 17.3069L15.7244 17.9437C13.516 15.2695 11.6033 12.6485 10.0322 10.3381L10.8591 9.77579ZM19.5846 20.8503C21.6654 23.1066 23.9415 25.3146 26.384 27.3166L25.75 28.09C23.2652 26.0532 20.9556 23.8119 18.8495 21.5283L19.5846 20.8503ZM30.1339 30.1218C32.75 31.8917 35.5151 33.3708 38.4002 34.4026L38.0635 35.3442C35.0849 34.2789 32.2451 32.7575 29.5735 30.9501L30.1339 30.1218ZM42.8815 35.6076C44.3933 35.8787 45.9322 36.0161 47.4948 35.9999L47.5052 36.9999C45.8768 37.0167 44.2753 36.8735 42.705 36.5919L42.8815 35.6076ZM47.4948 35.9999C49.3803 35.9804 51.1057 35.8683 52.7029 35.6767L52.822 36.6696C51.1859 36.8658 49.4241 36.98 47.5052 36.9999L47.4948 35.9999ZM57.7934 34.7094C61.3953 33.7476 64.3646 32.3164 67.3171 30.6405L67.8107 31.5102C64.8177 33.209 61.7661 34.6837 58.0514 35.6755L57.7934 34.7094ZM71.8281 27.9613C74.5587 26.3152 77.5152 24.5706 81.1083 22.904L81.5291 23.8111C77.9876 25.4538 75.0695 27.1749 72.3443 28.8177L71.8281 27.9613ZM85.9893 20.8631C88.9257 19.7643 92.2564 18.7395 96.1248 17.8454L96.35 18.8197C92.5228 19.7042 89.2341 20.7166 86.3397 21.7997L85.9893 20.8631ZM101.302 16.7908C102.96 16.4955 104.705 16.2227 106.544 15.9756L106.677 16.9667C104.851 17.212 103.121 17.4826 101.478 17.7753L101.302 16.7908ZM106.544 15.9756C108.445 15.7204 110.277 15.5901 112.042 15.573L112.052 16.573C110.329 16.5897 108.538 16.7168 106.677 16.9667L106.544 15.9756ZM117.533 15.8983C121.408 16.4072 124.913 17.4857 128.073 18.9669L127.648 19.8724C124.578 18.4333 121.173 17.3848 117.403 16.8898L117.533 15.8983ZM132.867 21.6732C136.02 23.774 138.751 26.2691 141.103 28.9162L140.356 29.5805C138.051 26.9868 135.383 24.5515 132.313 22.5054L132.867 21.6732ZM144.526 33.2112C146.846 36.4501 148.673 39.7286 150.077 42.6534L149.175 43.086C147.792 40.2023 145.993 36.976 143.713 33.7936L144.526 33.2112ZM152.247 47.6721C152.852 49.2405 153.286 50.5381 153.568 51.4451C153.71 51.8987 153.813 52.2547 153.882 52.4983C153.916 52.6201 153.941 52.7138 153.958 52.7775C153.967 52.8094 153.973 52.8337 153.978 52.8504C153.98 52.8587 153.982 52.8651 153.983 52.8695C153.983 52.8717 153.984 52.8734 153.984 52.8747C153.984 52.8753 153.984 52.8758 153.984 52.8761C153.984 52.8763 153.985 52.8765 153.985 52.8766C153.985 52.8767 153.985 52.8767 153.985 52.8768C153.985 52.8768 153.985 52.8769 153.5 53.0002C153.016 53.1236 153.016 53.1236 153.016 53.1237C153.016 53.1237 153.016 53.1237 153.016 53.1237C153.016 53.1237 153.016 53.1236 153.016 53.1236C153.016 53.1235 153.015 53.1232 153.015 53.1228C153.015 53.1221 153.015 53.1208 153.014 53.1191C153.013 53.1156 153.012 53.1102 153.01 53.1029C153.006 53.0882 153 53.0658 152.992 53.036C152.977 52.9763 152.952 52.8867 152.919 52.7691C152.853 52.534 152.752 52.1868 152.614 51.7426C152.337 50.8541 151.91 49.5776 151.314 48.0323L152.247 47.6721ZM106.611 16.4712L106.478 15.4801L106.611 16.4712ZM154.36 53.511C154.078 53.9858 153.464 54.142 152.989 53.8599L145.252 49.2629C144.777 48.9808 144.621 48.3672 144.903 47.8924C145.185 47.4176 145.799 47.2614 146.274 47.5435L153.151 51.6297L157.237 44.7521C157.52 44.2773 158.133 44.1211 158.608 44.4032C159.083 44.6853 159.239 45.2989 158.957 45.7737L154.36 53.511ZM47.5 36.4999L47.4896 35.4999L47.5 36.4999ZM5.50016 1.99986C6.3863 1.53645 6.38628 1.5364 6.38626 1.53637C6.38626 1.53636 6.38624 1.53633 6.38624 1.53632C6.38623 1.5363 6.38623 1.53631 6.38624 1.53634C6.38628 1.5364 6.38636 1.53655 6.38649 1.5368C6.38675 1.53731 6.38722 1.5382 6.38789 1.53947C6.38922 1.54201 6.39136 1.54607 6.3943 1.55164C6.40018 1.56279 6.40926 1.57995 6.42152 1.60297C6.44603 1.64902 6.48324 1.71848 6.5329 1.81004C6.63223 1.99316 6.78136 2.26462 6.97838 2.6138C7.37245 3.31224 7.95787 4.32119 8.71934 5.55583L7.01707 6.60572C6.24057 5.34672 5.64197 4.31522 5.23651 3.59661C5.03376 3.23726 4.87925 2.95605 4.77488 2.76363C4.72269 2.66742 4.68303 2.59339 4.65614 2.54289C4.6427 2.51764 4.63245 2.49827 4.62542 2.48495C4.6219 2.47828 4.61919 2.47313 4.61729 2.46951C4.61634 2.4677 4.61559 2.46628 4.61505 2.46524C4.61477 2.46472 4.61455 2.46429 4.61438 2.46397C4.61429 2.4638 4.61422 2.46366 4.61416 2.46355C4.61413 2.46349 4.61409 2.46342 4.61408 2.46339C4.61405 2.46333 4.61402 2.46327 5.50016 1.99986ZM11.2726 9.49463C12.8226 11.774 14.7075 14.3566 16.881 16.9885L15.3389 18.2621C13.1188 15.5737 11.1969 12.94 9.61874 10.6193L11.2726 9.49463ZM19.9521 20.5114C22.0204 22.754 24.2797 24.9453 26.7009 26.9299L25.4331 28.4767C22.9271 26.4226 20.6006 24.1646 18.4819 21.8673L19.9521 20.5114ZM30.414 29.7077C33.0024 31.4589 35.7303 32.9167 38.5686 33.9318L37.8951 35.815C34.8697 34.733 31.9926 33.1904 29.2933 31.3642L30.414 29.7077ZM42.9697 35.1154C44.4523 35.3813 45.9599 35.5158 47.4896 35.4999L47.5104 37.4998C45.8491 37.517 44.2163 37.3709 42.6167 37.0841L42.9697 35.1154ZM47.4896 35.4999C49.3585 35.4806 51.0656 35.3695 52.6433 35.1803L52.8815 37.166C51.226 37.3646 49.446 37.4798 47.5104 37.4998L47.4896 35.4999ZM57.6644 34.2263C61.2099 33.2796 64.138 31.8701 67.0702 30.2057L68.0575 31.945C65.0443 33.6554 61.9515 35.1517 58.1803 36.1586L57.6644 34.2263ZM71.5699 27.533C74.3033 25.8853 77.279 24.129 80.8979 22.4504L81.7394 24.2647C78.2239 25.8954 75.3249 27.6047 72.6025 29.2459L71.5699 27.533ZM85.814 20.3948C88.7716 19.2881 92.1231 18.2571 96.0122 17.3582L96.4625 19.3068C92.6561 20.1866 89.3883 21.1928 86.515 22.268L85.814 20.3948ZM101.215 16.2985C102.88 16.0019 104.631 15.7281 106.478 15.4801L106.744 17.4623C104.925 17.7067 103.201 17.9761 101.565 18.2675L101.215 16.2985ZM106.478 15.4801C108.398 15.2222 110.251 15.0904 112.038 15.0731L112.057 17.073C110.355 17.0895 108.585 17.215 106.744 17.4623L106.478 15.4801ZM117.598 15.4026C121.526 15.9183 125.08 17.012 128.285 18.5142L127.436 20.3251C124.411 18.907 121.055 17.8736 117.337 17.3856L117.598 15.4026ZM133.144 21.2571C136.338 23.3852 139.101 25.9102 141.477 28.5841L139.982 29.9126C137.701 27.3457 135.065 24.9402 132.035 22.9214L133.144 21.2571ZM144.932 32.92C147.273 36.1871 149.114 39.4917 150.528 42.4371L148.725 43.3023C147.351 40.4391 145.566 37.2389 143.306 34.0848L144.932 32.92ZM152.713 47.4921C153.323 49.072 153.76 50.3801 154.046 51.2964C154.188 51.7546 154.293 52.1151 154.363 52.3629C154.398 52.4868 154.424 52.5826 154.442 52.6483C154.45 52.6811 154.457 52.7065 154.462 52.7241C154.464 52.7329 154.466 52.7398 154.467 52.7447C154.468 52.7472 154.468 52.7491 154.468 52.7506C154.469 52.7513 154.469 52.7519 154.469 52.7524C154.469 52.7527 154.469 52.7529 154.469 52.7531C154.469 52.7532 154.469 52.7533 154.469 52.7533C154.469 52.7534 154.469 52.7535 153.5 53.0002C152.531 53.247 152.531 53.247 152.531 53.2471C152.531 53.2471 152.531 53.2472 152.531 53.2472C152.531 53.2473 152.531 53.2473 152.531 53.2473C152.531 53.2473 152.531 53.2472 152.531 53.2469C152.531 53.2464 152.531 53.2454 152.53 53.2439C152.529 53.2409 152.528 53.236 152.526 53.2291C152.523 53.2154 152.517 53.1941 152.509 53.1652C152.494 53.1075 152.47 53.02 152.438 52.9045C152.373 52.6736 152.273 52.3309 152.136 51.8913C151.862 51.0121 151.439 49.7462 150.847 48.2123L152.713 47.4921Z" fill="#1ABC9C" fill-opacity="0.5"/>
</svg>
