<svg width="523" height="172" viewBox="0 0 523 172" fill="none" xmlns="http://www.w3.org/2000/svg">
<path d="M8.01031 114.954C8.10724 115.777 8.8528 116.365 9.67552 116.268L23.0828 114.689C23.9055 114.592 24.4939 113.846 24.3969 113.023C24.3 112.201 23.5544 111.612 22.7317 111.709L10.8141 113.113L9.40983 101.196C9.3129 100.373 8.56735 99.7848 7.74462 99.8817C6.92189 99.9787 6.33351 100.724 6.43047 101.547L8.01031 114.954ZM402.5 114.779L402.5 116.279L402.5 114.779ZM512 43.5147C510.653 42.8534 510.653 42.8533 510.653 42.8532C510.653 42.8532 510.653 42.8532 510.653 42.8531C510.653 42.8531 510.653 42.853 510.653 42.8531C510.653 42.8531 510.653 42.8534 510.653 42.8538C510.653 42.8547 510.652 42.8563 510.651 42.8587C510.648 42.8634 510.644 42.871 510.639 42.8815C510.629 42.9026 510.612 42.9352 510.59 42.9791C510.546 43.067 510.478 43.2 510.387 43.3757C510.204 43.727 509.928 44.249 509.557 44.922C508.814 46.2679 507.694 48.2171 506.191 50.6121L508.732 52.2067C510.268 49.7598 511.417 47.7616 512.184 46.3707C512.567 45.6752 512.855 45.1313 513.049 44.759C513.146 44.5728 513.219 44.4295 513.268 44.3315C513.293 44.2825 513.312 44.2448 513.325 44.2188C513.331 44.2058 513.336 44.1957 513.34 44.1885C513.341 44.1849 513.343 44.1821 513.344 44.18C513.344 44.1789 513.345 44.1781 513.345 44.1774C513.345 44.1771 513.345 44.1768 513.346 44.1765C513.346 44.1764 513.346 44.1763 513.346 44.1762C513.346 44.1761 513.346 44.1759 512 43.5147ZM501.138 58.1331C498.086 62.3938 494.293 67.2319 489.748 72.2302L491.967 74.2486C496.601 69.1528 500.467 64.2221 503.577 59.8801L501.138 58.1331ZM483.455 78.7444C479.346 82.7446 474.765 86.7305 469.707 90.4971L471.499 92.9033C476.674 89.0497 481.354 84.9762 485.547 80.894L483.455 78.7444ZM462.275 95.63C457.356 98.7703 452.054 101.658 446.365 104.149L447.568 106.897C453.411 104.339 458.849 101.376 463.889 98.1587L462.275 95.63ZM437.964 107.425C432.463 109.313 426.64 110.816 420.49 111.827L420.976 114.787C427.298 113.749 433.284 112.203 438.937 110.263L437.964 107.425ZM411.54 112.918C408.596 113.155 405.582 113.279 402.5 113.279L402.5 116.279C405.663 116.279 408.756 116.152 411.78 115.909L411.54 112.918ZM402.5 113.279C399.235 113.279 396.049 113.188 392.932 113.014L392.765 116.01C395.938 116.187 399.179 116.279 402.5 116.279L402.5 113.279ZM383.435 112.211C376.932 111.471 370.699 110.369 364.63 108.974L363.959 111.898C370.129 113.316 376.473 114.438 383.096 115.192L383.435 112.211ZM355.371 106.598C349.234 104.862 343.211 102.852 337.179 100.643L336.148 103.46C342.232 105.688 348.329 107.724 354.555 109.485L355.371 106.598ZM328.213 97.2296C322.372 94.932 316.476 92.4884 310.408 89.9648L309.256 92.7347C315.322 95.2577 321.243 97.7117 327.115 100.021L328.213 97.2296ZM301.503 86.2676C295.747 83.8901 289.807 81.4754 283.603 79.0807L282.523 81.8794C288.695 84.2622 294.612 86.667 300.358 89.0404L301.503 86.2676ZM274.545 75.6765C268.72 73.5499 262.649 71.4607 256.273 69.45L255.371 72.3111C261.699 74.3068 267.727 76.3812 273.517 78.4946L274.545 75.6765ZM247.01 66.6523C241.048 64.9313 234.82 63.2884 228.285 61.7524L227.599 64.6728C234.083 66.1969 240.262 67.827 246.178 69.5346L247.01 66.6523ZM218.856 59.659C212.787 58.3898 206.46 57.2158 199.845 56.157L199.371 59.1193C205.938 60.1706 212.219 61.336 218.241 62.5954L218.856 59.659ZM190.277 54.7359C187.139 54.3055 183.938 53.9009 180.672 53.524L180.328 56.5043C183.573 56.8787 186.752 57.2806 189.869 57.7081L190.277 54.7359ZM180.672 53.524C177.125 53.1147 173.631 52.7888 170.192 52.5416L169.977 55.5338C173.373 55.778 176.823 56.0999 180.328 56.5043L180.672 53.524ZM159.674 52.021C152.39 51.8254 145.365 51.9832 138.601 52.4443L138.805 55.4373C145.475 54.9827 152.405 54.8269 159.593 55.0199L159.674 52.021ZM128.103 53.4211C120.858 54.278 113.938 55.4801 107.345 56.9574L108.001 59.8849C114.496 58.4296 121.314 57.245 128.456 56.4004L128.103 53.4211ZM97.1394 59.5273C90.062 61.5092 83.4051 63.7967 77.1695 66.2879L78.2825 69.0737C84.4224 66.6208 90.978 64.3681 97.9484 62.4161L97.1394 59.5273ZM67.4827 70.4645C60.6945 73.6115 54.4882 76.9638 48.8652 80.3564L50.4151 82.9251C55.9505 79.5852 62.0608 76.2848 68.7445 73.1862L67.4827 70.4645ZM39.9929 86.048C33.3848 90.5496 27.8078 94.9608 23.2653 98.8952L25.2294 101.163C29.6925 97.2972 35.178 92.958 41.6819 88.5274L39.9929 86.048ZM15.5049 106.069C13.1287 108.422 11.3412 110.357 10.1438 111.708C9.54513 112.384 9.09387 112.914 8.7903 113.278C8.6385 113.46 8.5236 113.6 8.44563 113.696C8.40664 113.744 8.37688 113.781 8.35634 113.807C8.34609 113.82 8.33813 113.83 8.3325 113.837C8.32968 113.84 8.32744 113.843 8.32576 113.845C8.32494 113.846 8.32423 113.847 8.32371 113.848C8.32341 113.848 8.32318 113.849 8.323 113.849C8.32289 113.849 8.32276 113.849 8.3227 113.849C8.3226 113.849 8.3225 113.849 9.49999 114.779C10.6775 115.708 10.6774 115.708 10.6773 115.708C10.6773 115.708 10.6773 115.708 10.6772 115.708C10.6771 115.708 10.6771 115.708 10.6771 115.708C10.6772 115.708 10.6774 115.708 10.6777 115.708C10.6783 115.707 10.6795 115.705 10.6813 115.703C10.6849 115.699 10.6907 115.691 10.6989 115.681C10.7152 115.661 10.7407 115.629 10.7753 115.586C10.8447 115.501 10.9507 115.371 11.0934 115.2C11.3788 114.858 11.8109 114.351 12.3894 113.698C13.5465 112.391 15.2891 110.504 17.6156 108.201L15.5049 106.069ZM6.5206 115.13C6.71449 116.775 8.2056 117.952 9.85105 117.758L36.6656 114.598C38.311 114.404 39.4877 112.913 39.2939 111.268C39.1 109.622 37.6089 108.446 35.9634 108.64L12.1283 111.448L9.31971 87.6131C9.12581 85.9676 7.63471 84.7909 5.98925 84.9848C4.34377 85.1787 3.16703 86.6698 3.36092 88.3153L6.5206 115.13ZM402.5 114.779L402.5 117.779L402.5 114.779ZM512 43.5147C509.307 42.1922 509.307 42.192 509.307 42.1918C509.307 42.1917 509.307 42.1915 509.307 42.1914C509.307 42.1912 509.307 42.191 509.307 42.1909C509.307 42.1907 509.308 42.1906 509.307 42.1908C509.307 42.191 509.307 42.192 509.306 42.1937C509.304 42.1972 509.301 42.2036 509.296 42.2129C509.287 42.2314 509.272 42.2616 509.251 42.303C509.209 42.3858 509.144 42.5136 509.056 42.684C508.879 43.0249 508.608 43.536 508.243 44.1976C507.513 45.5211 506.407 47.4458 504.921 49.8147L510.003 53.004C511.555 50.5311 512.718 48.5084 513.497 47.095C513.887 46.3882 514.181 45.8335 514.38 45.4507C514.479 45.2592 514.555 45.1107 514.607 45.0077C514.633 44.9561 514.653 44.916 514.667 44.8874C514.674 44.8732 514.68 44.8618 514.684 44.8534C514.686 44.8492 514.688 44.8458 514.689 44.8431C514.69 44.8417 514.691 44.8405 514.691 44.8396C514.691 44.8391 514.692 44.8386 514.692 44.8382C514.692 44.838 514.692 44.8378 514.692 44.8377C514.692 44.8374 514.692 44.8372 512 43.5147ZM499.918 57.2596C496.896 61.4796 493.139 66.2714 488.638 71.221L493.077 75.2578C497.755 70.1133 501.657 65.1363 504.796 60.7536L499.918 57.2596ZM482.408 77.6697C478.342 81.6288 473.811 85.5708 468.811 89.294L472.394 94.1064C477.628 90.2093 482.359 86.092 486.594 81.9687L482.408 77.6697ZM461.468 94.3657C456.609 97.4674 451.376 100.318 445.764 102.775L448.17 108.271C454.089 105.68 459.596 102.679 464.696 99.4231L461.468 94.3657ZM437.477 106.007C432.053 107.868 426.311 109.35 420.246 110.347L421.219 116.267C427.627 115.215 433.694 113.648 439.424 111.682L437.477 106.007ZM411.42 111.423C408.515 111.657 405.542 111.779 402.5 111.779L402.5 117.779C405.703 117.779 408.836 117.65 411.9 117.404L411.42 111.423ZM402.5 111.779C399.262 111.779 396.104 111.689 393.015 111.517L392.681 117.507C395.882 117.686 399.152 117.779 402.5 117.779L402.5 111.779ZM383.605 110.721C377.161 109.987 370.985 108.895 364.966 107.513L363.623 113.36C369.844 114.79 376.243 115.922 382.926 116.682L383.605 110.721ZM355.779 105.154C349.687 103.431 343.7 101.434 337.695 99.2342L335.632 104.868C341.743 107.107 347.877 109.155 354.147 110.928L355.779 105.154ZM328.763 95.8337C322.936 93.5421 317.052 91.1037 310.984 88.5798L308.68 94.1197C314.745 96.6424 320.679 99.1016 326.566 101.417L328.763 95.8337ZM302.076 84.8812C296.315 82.5017 290.362 80.0821 284.143 77.6813L281.983 83.2788C288.14 85.6556 294.044 88.0554 299.786 90.4268L302.076 84.8812ZM275.06 74.2675C269.216 72.1342 263.124 70.0377 256.724 68.0194L254.92 73.7416C261.224 75.7298 267.231 77.7969 273.002 79.9037L275.06 74.2675ZM247.426 65.2111C241.441 63.4835 235.189 61.8342 228.629 60.2922L227.256 66.133C233.715 67.6511 239.869 69.2748 245.762 70.9758L247.426 65.2111ZM219.163 58.1907C213.071 56.9168 206.72 55.7384 200.082 54.6758L199.134 60.6004C205.678 61.6479 211.935 62.809 217.934 64.0637L219.163 58.1907ZM190.481 53.2499C187.332 52.818 184.121 52.412 180.844 52.0339L180.156 57.9944C183.39 58.3676 186.559 58.7682 189.665 59.1942L190.481 53.2499ZM180.844 52.0339C177.275 51.6221 173.76 51.2942 170.299 51.0454L169.869 57.03C173.244 57.2726 176.673 57.5924 180.156 57.9944L180.844 52.0339ZM159.714 50.5216C152.383 50.3247 145.311 50.4834 138.499 50.9478L138.907 56.9339C145.53 56.4824 152.412 56.3276 159.553 56.5194L159.714 50.5216ZM127.927 51.9315C120.63 52.7946 113.659 54.0054 107.017 55.4937L108.329 61.3486C114.775 59.9043 121.542 58.7285 128.632 57.89L127.927 51.9315ZM96.7349 58.0828C89.6041 60.0797 82.8964 62.3846 76.613 64.8949L78.839 70.4667C84.9311 68.0328 91.4359 65.7976 98.3528 63.8606L96.7349 58.0828ZM66.8517 69.1036C60.0114 72.2749 53.7571 75.653 48.0903 79.0721L51.19 84.2094C56.6816 80.896 62.7439 77.6215 69.3754 74.5471L66.8517 69.1036ZM39.1485 84.8083C32.4881 89.3454 26.8654 93.7926 22.2833 97.7614L26.2115 102.297C30.6349 98.4654 36.0746 94.1621 42.5264 89.767L39.1485 84.8083ZM14.4495 105.003C12.0484 107.381 10.2385 109.339 9.02105 110.714C8.41223 111.401 7.95141 111.942 7.63874 112.317C7.48238 112.504 7.36306 112.65 7.28075 112.751C7.2396 112.802 7.20774 112.842 7.18509 112.87C7.17378 112.884 7.1648 112.895 7.15811 112.904C7.15476 112.908 7.152 112.911 7.14981 112.914C7.14874 112.915 7.14779 112.917 7.14697 112.918C7.14658 112.918 7.14621 112.919 7.14587 112.919C7.14571 112.919 7.1455 112.92 7.14542 112.92C7.14521 112.92 7.145 112.92 9.49999 114.779C11.855 116.637 11.8548 116.637 11.8546 116.638C11.8546 116.638 11.8544 116.638 11.8543 116.638C11.8541 116.638 11.854 116.638 11.8539 116.639C11.8536 116.639 11.8536 116.639 11.8536 116.639C11.8537 116.639 11.8544 116.638 11.8557 116.636C11.8582 116.633 11.863 116.627 11.8701 116.618C11.8843 116.6 11.9077 116.571 11.9402 116.531C12.0052 116.451 12.1068 116.327 12.2449 116.162C12.5213 115.831 12.9438 115.334 13.5122 114.692C14.6492 113.409 16.3694 111.546 18.671 109.267L14.4495 105.003Z" fill="#1ABC9C" fill-opacity="0.5"/>
</svg>
