<svg width="111" height="111" viewBox="0 0 111 111" fill="none" xmlns="http://www.w3.org/2000/svg">
<g clip-path="url(#clip0)">
<rect x="0.410889" y="0.410889" width="110" height="110" rx="8.46154" fill="#70B8E7"/>
<path d="M36.9611 64.1007L25.4551 144.623L-38.5258 94.3971L36.9611 64.1007Z" fill="#2980B9"/>
<circle cx="21.5647" cy="8.87256" r="33" fill="#2980B9"/>
<rect x="74.0261" y="-9.74292" width="67.6923" height="67.6923" fill="#2980B9"/>
<path d="M87.6387 70.9063L103.503 92.0522L128.516 83.4993L113.307 105.121L129.171 126.267L103.907 118.484L88.6987 140.106L88.2938 113.674L63.0305 105.891L88.0436 97.3382L87.6387 70.9063Z" fill="#2980B9"/>
<path d="M27.0419 52.9492H22.7037V43.9258H14.2442V52.9492H9.90601V31.8945H14.2442V40.4263H22.7037V31.8945H27.0419V52.9492ZM46.26 35.4085H39.8106V52.9492H35.4724V35.4085H29.1097V31.8945H46.26V35.4085ZM54.4158 31.8945L59.8241 47.165L65.2035 31.8945H70.901V52.9492H66.5483V47.1939L66.9821 37.2594L61.2991 52.9492H58.3202L52.6516 37.2739L53.0855 47.1939V52.9492H48.7473V31.8945H54.4158ZM79.0278 49.4642H88.2393V52.9492H74.6897V31.8945H79.0278V49.4642Z" fill="white"/>
<path d="M61.9731 76.3975C61.8092 78.663 60.9705 80.4465 59.4569 81.7479C57.953 83.0494 55.9671 83.7001 53.4992 83.7001C50.7998 83.7001 48.6741 82.7939 47.122 80.9815C45.5795 79.1595 44.8083 76.6626 44.8083 73.4909V72.2039C44.8083 70.1794 45.165 68.3959 45.8784 66.8535C46.5918 65.311 47.6089 64.13 48.9296 63.3106C50.26 62.4815 51.8024 62.067 53.557 62.067C55.9864 62.067 57.9434 62.7177 59.428 64.0192C60.9126 65.3206 61.7706 67.1475 62.002 69.4998H57.6638C57.5578 68.1405 57.177 67.1571 56.5214 66.5498C55.8755 65.9328 54.8874 65.6243 53.557 65.6243C52.1109 65.6243 51.0264 66.1449 50.3034 67.1861C49.59 68.2176 49.2236 69.8227 49.2043 72.0014V73.5921C49.2043 75.8673 49.5466 77.5302 50.2311 78.581C50.9252 79.6318 52.0145 80.1572 53.4992 80.1572C54.8392 80.1572 55.837 79.8536 56.4925 79.2462C57.1577 78.6292 57.5385 77.6797 57.6349 76.3975H61.9731ZM75.7396 77.8869C75.7396 77.0675 75.4504 76.4409 74.872 76.007C74.2935 75.5636 73.2524 75.1008 71.7485 74.6188C70.2446 74.1272 69.054 73.6451 68.1767 73.1728C65.7859 71.8809 64.5905 70.1408 64.5905 67.9525C64.5905 66.8149 64.9086 65.8027 65.5449 64.9157C66.1908 64.0192 67.1114 63.3202 68.3068 62.8189C69.5119 62.3176 70.8616 62.067 72.3558 62.067C73.8597 62.067 75.1997 62.3417 76.3759 62.8912C77.552 63.4311 78.463 64.1975 79.1089 65.1905C79.7645 66.1835 80.0923 67.3114 80.0923 68.5743H75.7541C75.7541 67.6102 75.4504 66.8631 74.8431 66.3329C74.2357 65.793 73.3825 65.5231 72.2835 65.5231C71.2231 65.5231 70.3988 65.7496 69.8108 66.2027C69.2227 66.6462 68.9287 67.2343 68.9287 67.9669C68.9287 68.6514 69.2709 69.225 69.9554 69.6877C70.6495 70.1505 71.6665 70.5843 73.0066 70.9892C75.4745 71.7315 77.2724 72.6522 78.4004 73.7512C79.5283 74.8502 80.0923 76.2191 80.0923 77.858C80.0923 79.68 79.403 81.1116 78.0244 82.1528C76.6458 83.1843 74.79 83.7001 72.457 83.7001C70.8375 83.7001 69.3625 83.4061 68.0321 82.818C66.7017 82.2203 65.6847 81.4057 64.9809 80.3742C64.2868 79.3426 63.9397 78.1472 63.9397 76.7879H68.2924C68.2924 79.1113 69.6806 80.2729 72.457 80.2729C73.4886 80.2729 74.2935 80.0657 74.872 79.6511C75.4504 79.2269 75.7396 78.6389 75.7396 77.8869ZM93.96 77.8869C93.96 77.0675 93.6708 76.4409 93.0924 76.007C92.514 75.5636 91.4728 75.1008 89.9689 74.6188C88.465 74.1272 87.2744 73.6451 86.3971 73.1728C84.0063 71.8809 82.8109 70.1408 82.8109 67.9525C82.8109 66.8149 83.129 65.8027 83.7653 64.9157C84.4112 64.0192 85.3318 63.3202 86.5272 62.8189C87.7323 62.3176 89.082 62.067 90.5762 62.067C92.0801 62.067 93.4202 62.3417 94.5963 62.8912C95.7724 63.4311 96.6834 64.1975 97.3293 65.1905C97.9849 66.1835 98.3127 67.3114 98.3127 68.5743H93.9745C93.9745 67.6102 93.6708 66.8631 93.0635 66.3329C92.4561 65.793 91.6029 65.5231 90.5039 65.5231C89.4435 65.5231 88.6192 65.7496 88.0312 66.2027C87.4431 66.6462 87.1491 67.2343 87.1491 67.9669C87.1491 68.6514 87.4913 69.225 88.1758 69.6877C88.8699 70.1505 89.8869 70.5843 91.227 70.9892C93.6949 71.7315 95.4928 72.6522 96.6208 73.7512C97.7487 74.8502 98.3127 76.2191 98.3127 77.858C98.3127 79.68 97.6234 81.1116 96.2448 82.1528C94.8662 83.1843 93.0104 83.7001 90.6775 83.7001C89.0579 83.7001 87.5829 83.4061 86.2525 82.818C84.9221 82.2203 83.9051 81.4057 83.2013 80.3742C82.5072 79.3426 82.1601 78.1472 82.1601 76.7879H86.5128C86.5128 79.1113 87.901 80.2729 90.6775 80.2729C91.709 80.2729 92.514 80.0657 93.0924 79.6511C93.6708 79.2269 93.96 78.6389 93.96 77.8869Z" fill="white"/>
</g>
<defs>
<clipPath id="clip0">
<rect x="0.410889" y="0.410889" width="110" height="110" rx="8.46154" fill="white"/>
</clipPath>
</defs>
</svg>
