<svg width="111" height="111" viewBox="0 0 111 111" fill="none" xmlns="http://www.w3.org/2000/svg">
<g clip-path="url(#clip0)">
<rect x="0.310791" y="0.310791" width="110" height="110" rx="8.46154" fill="#A55EEA"/>
<path d="M85.2552 30.8665L124.948 68.4498H45.5624L85.2552 30.8665Z" fill="#8145D5"/>
<rect x="69.9775" y="65.0886" width="29.3333" height="61.1111" fill="#8145D5"/>
<rect x="-15.5781" y="68.7551" width="46.4444" height="57.4444" fill="#8145D5"/>
<circle cx="18.6441" cy="-4.57804" r="51.3333" fill="#8145D5"/>
<path d="M26.9418 52.8491H22.6036V43.8257H14.1441V52.8491H9.80591V31.7944H14.1441V40.3262H22.6036V31.7944H26.9418V52.8491ZM46.1599 35.3084H39.7105V52.8491H35.3723V35.3084H29.0096V31.7944H46.1599V35.3084ZM54.3157 31.7944L59.724 47.0649L65.1034 31.7944H70.8009V52.8491H66.4482V47.0938L66.882 37.1593L61.199 52.8491H58.2201L52.5516 37.1738L52.9854 47.0938V52.8491H48.6472V31.7944H54.3157ZM78.9277 49.3641H88.1392V52.8491H74.5896V31.7944H78.9277V49.3641Z" fill="white"/>
<path d="M61.873 76.2974C61.7091 78.5629 60.8704 80.3464 59.3568 81.6478C57.8529 82.9493 55.867 83.6 53.3991 83.6C50.6997 83.6 48.574 82.6938 47.0219 80.8814C45.4794 79.0594 44.7082 76.5625 44.7082 73.3908V72.1038C44.7082 70.0793 45.0649 68.2958 45.7783 66.7534C46.4917 65.2109 47.5088 64.0299 48.8295 63.2105C50.1599 62.3814 51.7023 61.9669 53.4569 61.9669C55.8863 61.9669 57.8433 62.6176 59.3279 63.9191C60.8125 65.2205 61.6705 67.0474 61.9019 69.3997H57.5637C57.4577 68.0404 57.0769 67.057 56.4213 66.4497C55.7754 65.8327 54.7873 65.5242 53.4569 65.5242C52.0108 65.5242 50.9263 66.0448 50.2033 67.086C49.4899 68.1175 49.1235 69.7226 49.1042 71.9013V73.492C49.1042 75.7672 49.4465 77.4301 50.131 78.4809C50.8251 79.5317 51.9144 80.0571 53.3991 80.0571C54.7391 80.0571 55.7369 79.7535 56.3924 79.1461C57.0576 78.5291 57.4384 77.5796 57.5348 76.2974H61.873ZM75.6395 77.7868C75.6395 76.9674 75.3503 76.3408 74.7719 75.9069C74.1935 75.4635 73.1523 75.0007 71.6484 74.5187C70.1445 74.0271 68.9539 73.545 68.0766 73.0727C65.6858 71.7808 64.4904 70.0407 64.4904 67.8524C64.4904 66.7148 64.8085 65.7026 65.4448 64.8156C66.0907 63.9191 67.0113 63.2201 68.2067 62.7188C69.4118 62.2175 70.7615 61.9669 72.2557 61.9669C73.7596 61.9669 75.0997 62.2416 76.2758 62.7911C77.4519 63.331 78.3629 64.0974 79.0088 65.0904C79.6644 66.0834 79.9922 67.2113 79.9922 68.4742H75.654C75.654 67.5101 75.3503 66.763 74.743 66.2328C74.1356 65.6929 73.2824 65.423 72.1834 65.423C71.123 65.423 70.2987 65.6495 69.7107 66.1026C69.1226 66.5461 68.8286 67.1342 68.8286 67.8668C68.8286 68.5513 69.1708 69.1249 69.8553 69.5876C70.5494 70.0504 71.5664 70.4842 72.9065 70.8891C75.3744 71.6314 77.1723 72.5521 78.3003 73.6511C79.4282 74.7501 79.9922 76.119 79.9922 77.7579C79.9922 79.5799 79.3029 81.0115 77.9243 82.0527C76.5457 83.0842 74.6899 83.6 72.357 83.6C70.7374 83.6 69.2624 83.306 67.932 82.7179C66.6016 82.1202 65.5846 81.3056 64.8808 80.2741C64.1867 79.2425 63.8396 78.0471 63.8396 76.6878H68.1923C68.1923 79.0112 69.5805 80.1728 72.357 80.1728C73.3885 80.1728 74.1935 79.9656 74.7719 79.551C75.3503 79.1268 75.6395 78.5388 75.6395 77.7868ZM93.8599 77.7868C93.8599 76.9674 93.5707 76.3408 92.9923 75.9069C92.4139 75.4635 91.3727 75.0007 89.8688 74.5187C88.3649 74.0271 87.1743 73.545 86.297 73.0727C83.9062 71.7808 82.7108 70.0407 82.7108 67.8524C82.7108 66.7148 83.0289 65.7026 83.6652 64.8156C84.3111 63.9191 85.2317 63.2201 86.4272 62.7188C87.6322 62.2175 88.9819 61.9669 90.4761 61.9669C91.98 61.9669 93.3201 62.2416 94.4962 62.7911C95.6723 63.331 96.5833 64.0974 97.2292 65.0904C97.8848 66.0834 98.2126 67.2113 98.2126 68.4742H93.8744C93.8744 67.5101 93.5707 66.763 92.9634 66.2328C92.356 65.6929 91.5028 65.423 90.4038 65.423C89.3434 65.423 88.5191 65.6495 87.9311 66.1026C87.343 66.5461 87.049 67.1342 87.049 67.8668C87.049 68.5513 87.3912 69.1249 88.0757 69.5876C88.7698 70.0504 89.7868 70.4842 91.1269 70.8891C93.5948 71.6314 95.3927 72.5521 96.5207 73.6511C97.6486 74.7501 98.2126 76.119 98.2126 77.7579C98.2126 79.5799 97.5233 81.0115 96.1447 82.0527C94.7661 83.0842 92.9103 83.6 90.5774 83.6C88.9578 83.6 87.4828 83.306 86.1524 82.7179C84.822 82.1202 83.805 81.3056 83.1012 80.2741C82.4071 79.2425 82.06 78.0471 82.06 76.6878H86.4127C86.4127 79.0112 87.8009 80.1728 90.5774 80.1728C91.6089 80.1728 92.4139 79.9656 92.9923 79.551C93.5707 79.1268 93.8599 78.5388 93.8599 77.7868Z" fill="white"/>
</g>
<defs>
<clipPath id="clip0">
<rect x="0.310791" y="0.310791" width="110" height="110" rx="8.46154" fill="white"/>
</clipPath>
</defs>
</svg>
