<svg width="217" height="238" viewBox="0 0 217 238" fill="none" xmlns="http://www.w3.org/2000/svg">
<g filter="url(#filter0_d)">
<g clip-path="url(#clip0)">
<rect x="81.803" y="46.689" width="110" height="110" rx="8.46154" transform="rotate(16.4306 81.803 46.689)" fill="#A55EEA"/>
<path d="M154.636 100.024L182.077 147.3L105.933 124.845L154.636 100.024Z" fill="#8145D5"/>
<rect x="130.302" y="128.527" width="29.3333" height="61.1111" transform="rotate(16.4306 130.302 128.527)" fill="#8145D5"/>
<rect x="47.2031" y="107.844" width="46.4444" height="57.4444" transform="rotate(16.4306 47.2031 107.844)" fill="#8145D5"/>
<circle cx="100.77" cy="47.1853" r="51.3333" transform="rotate(16.4306 100.77 47.1853)" fill="#8145D5"/>
<path d="M92.4858 104.615L88.3248 103.388L90.8771 94.7326L82.7631 92.3398L80.2107 100.995L76.0497 99.7677L82.0051 79.5728L86.1661 80.7999L83.7529 88.9833L91.8669 91.376L94.2802 83.1927L98.4412 84.4198L92.4858 104.615ZM115.881 93.2261L109.695 91.4019L104.733 108.226L100.572 106.999L105.534 90.1748L99.4307 88.3751L100.425 85.0047L116.875 89.8557L115.881 93.2261ZM124.697 92.1626L125.565 108.339L135.044 95.2139L140.509 96.8255L134.554 117.02L130.379 115.789L132.007 110.269L135.233 100.863L125.344 114.304L122.487 113.462L121.484 96.8233L119.094 106.461L117.466 111.981L113.305 110.754L119.26 90.5592L124.697 92.1626ZM143.335 115.976L152.17 118.582L151.184 121.925L138.188 118.092L144.143 97.8971L148.304 99.1242L143.335 115.976Z" fill="white"/>
<path d="M119.358 136.986C118.56 139.112 117.251 140.586 115.431 141.406C113.621 142.229 111.532 142.291 109.165 141.593C106.575 140.83 104.793 139.359 103.817 137.182C102.853 134.998 102.819 132.385 103.716 129.343L104.08 128.108C104.653 126.166 105.5 124.557 106.62 123.279C107.741 122.001 109.05 121.156 110.549 120.744C112.059 120.325 113.656 120.364 115.339 120.86C117.669 121.547 119.362 122.725 120.418 124.393C121.474 126.061 121.78 128.056 121.337 130.378L117.176 129.151C117.458 127.817 117.371 126.766 116.914 125.998C116.469 125.224 115.609 124.648 114.333 124.272C112.946 123.863 111.758 124.055 110.77 124.85C109.794 125.637 108.989 127.073 108.354 129.157L107.904 130.683C107.261 132.865 107.119 134.557 107.478 135.759C107.846 136.963 108.743 137.775 110.167 138.195C111.452 138.574 112.495 138.565 113.295 138.168C114.108 137.764 114.742 136.961 115.197 135.759L119.358 136.986ZM132.141 142.308C132.373 141.522 132.273 140.839 131.841 140.26C131.411 139.671 130.543 138.932 129.237 138.045C127.934 137.148 126.928 136.349 126.22 135.647C124.293 133.732 123.638 131.725 124.257 129.626C124.579 128.535 125.17 127.654 126.032 126.983C126.905 126.306 127.985 125.896 129.274 125.753C130.571 125.613 131.937 125.754 133.37 126.177C134.813 126.603 136.02 127.245 136.993 128.105C137.968 128.955 138.625 129.948 138.964 131.083C139.312 132.221 139.307 133.396 138.95 134.607L134.789 133.38C135.062 132.455 134.982 131.653 134.549 130.972C134.119 130.283 133.377 129.782 132.323 129.472C131.306 129.172 130.451 129.156 129.759 129.424C129.07 129.683 128.621 130.164 128.414 130.867C128.22 131.523 128.387 132.17 128.912 132.808C129.447 133.448 130.3 134.152 131.471 134.919C133.628 136.329 135.092 137.721 135.863 139.094C136.634 140.467 136.788 141.94 136.324 143.512C135.809 145.259 134.743 146.437 133.126 147.046C131.512 147.646 129.586 147.615 127.348 146.955C125.795 146.497 124.463 145.798 123.353 144.858C122.246 143.908 121.501 142.839 121.118 141.651C120.744 140.465 120.749 139.22 121.134 137.916L125.309 139.148C124.652 141.376 125.655 142.883 128.318 143.668C129.307 143.96 130.138 143.989 130.81 143.755C131.485 143.512 131.928 143.029 132.141 142.308ZM149.617 147.462C149.849 146.676 149.749 145.993 149.317 145.413C148.888 144.824 148.02 144.086 146.714 143.198C145.41 142.301 144.405 141.502 143.697 140.801C141.769 138.886 141.115 136.879 141.733 134.78C142.055 133.688 142.647 132.807 143.508 132.137C144.381 131.46 145.462 131.05 146.75 130.907C148.048 130.767 149.413 130.908 150.846 131.331C152.289 131.756 153.497 132.399 154.469 133.259C155.445 134.109 156.102 135.102 156.44 136.237C156.788 137.375 156.784 138.549 156.426 139.761L152.265 138.534C152.538 137.609 152.458 136.806 152.026 136.126C151.596 135.436 150.854 134.936 149.8 134.625C148.782 134.325 147.928 134.31 147.236 134.578C146.546 134.837 146.098 135.318 145.89 136.02C145.697 136.677 145.863 137.324 146.388 137.961C146.923 138.602 147.776 139.305 148.947 140.073C151.104 141.483 152.568 142.874 153.339 144.248C154.11 145.621 154.264 147.093 153.8 148.665C153.285 150.413 152.219 151.591 150.602 152.2C148.988 152.799 147.062 152.769 144.825 152.109C143.271 151.651 141.94 150.952 140.83 150.011C139.723 149.062 138.978 147.993 138.594 146.804C138.22 145.619 138.226 144.374 138.61 143.07L142.785 144.301C142.128 146.53 143.131 148.037 145.794 148.822C146.783 149.114 147.614 149.143 148.286 148.909C148.961 148.665 149.405 148.183 149.617 147.462Z" fill="white"/>
</g>
</g>
<defs>
<filter id="filter0_d" x="0.688965" y="0.688965" width="236.622" height="236.622" filterUnits="userSpaceOnUse" color-interpolation-filters="sRGB">
<feFlood flood-opacity="0" result="BackgroundImageFix"/>
<feColorMatrix in="SourceAlpha" type="matrix" values="0 0 0 0 0 0 0 0 0 0 0 0 0 0 0 0 0 0 127 0"/>
<feOffset dy="4"/>
<feGaussianBlur stdDeviation="25"/>
<feColorMatrix type="matrix" values="0 0 0 0 0 0 0 0 0 0 0 0 0 0 0 0 0 0 0.25 0"/>
<feBlend mode="normal" in2="BackgroundImageFix" result="effect1_dropShadow"/>
<feBlend mode="normal" in="SourceGraphic" in2="effect1_dropShadow" result="shape"/>
</filter>
<clipPath id="clip0">
<rect x="81.803" y="46.689" width="110" height="110" rx="8.46154" transform="rotate(16.4306 81.803 46.689)" fill="white"/>
</clipPath>
</defs>
</svg>
