<svg width="237" height="234" viewBox="0 0 237 234" fill="none" xmlns="http://www.w3.org/2000/svg">
<g filter="url(#filter0_d)">
<g clip-path="url(#clip0)">
<rect x="50" y="74.3979" width="110" height="110" rx="8.46154" transform="rotate(-16.585 50 74.3979)" fill="#70B8E7"/>
<path d="M103.209 125.005L115.166 205.461L39.5104 175.588L103.209 125.005Z" fill="#2980B9"/>
<circle cx="72.6889" cy="76.4694" r="33" transform="rotate(-16.585 72.6889 76.4694)" fill="#2980B9"/>
<rect x="117.655" y="43.6541" width="67.6923" height="67.6923" transform="rotate(-16.585 117.655 43.6541)" fill="#2980B9"/>
<path d="M153.721 117.063L174.96 132.801L196.492 117.464L188.087 142.527L209.327 158.265L182.893 158.017L174.489 183.081L166.556 157.864L140.122 157.616L161.653 142.279L153.721 117.063Z" fill="#2980B9"/>
<path d="M90.5196 117.149L86.3619 118.388L83.7863 109.74L75.6787 112.154L78.2544 120.802L74.0966 122.04L68.0869 101.862L72.2446 100.623L74.6799 108.8L82.7874 106.386L80.3521 98.2088L84.5098 96.9705L90.5196 117.149ZM103.931 94.8527L97.7504 96.6936L102.757 113.505L98.5994 114.743L93.5926 97.9319L87.4947 99.748L86.4917 96.3803L102.928 91.4849L103.931 94.8527ZM110.745 89.157L120.287 102.248L121.084 86.0778L126.544 84.4515L132.554 104.63L128.382 105.873L126.74 100.357L124.32 90.7118L123.352 107.371L120.497 108.221L110.59 94.8161L113.837 104.2L115.48 109.715L111.322 110.954L105.312 90.775L110.745 89.157ZM139.348 98.9705L148.176 96.3413L149.171 99.6813L136.185 103.549L130.175 83.3701L134.333 82.1318L139.348 98.9705Z" fill="white"/>
<path d="M130.69 129.651C131.18 131.869 130.885 133.818 129.806 135.497C128.736 137.174 127.019 138.364 124.653 139.069C122.066 139.839 119.77 139.578 117.765 138.284C115.767 136.978 114.315 134.805 113.41 131.765L113.043 130.532C112.465 128.591 112.298 126.78 112.541 125.098C112.784 123.416 113.422 121.994 114.454 120.832C115.492 119.658 116.852 118.82 118.534 118.319C120.862 117.626 122.924 117.691 124.718 118.514C126.512 119.338 127.856 120.844 128.749 123.032L124.591 124.271C124.102 122.998 123.456 122.164 122.655 121.769C121.859 121.362 120.824 121.349 119.549 121.729C118.163 122.141 117.273 122.95 116.877 124.154C116.487 125.346 116.595 126.989 117.198 129.083L117.652 130.607C118.301 132.788 119.104 134.284 120.06 135.096C121.025 135.905 122.219 136.097 123.642 135.673C124.926 135.291 125.796 134.715 126.251 133.946C126.712 133.165 126.806 132.146 126.533 130.89L130.69 129.651ZM144.309 127.149C144.075 126.364 143.619 125.846 142.941 125.595C142.26 125.335 141.13 125.189 139.551 125.156C137.97 125.114 136.691 124.992 135.715 124.79C133.055 124.234 131.413 122.908 130.788 120.811C130.464 119.72 130.48 118.659 130.836 117.628C131.199 116.584 131.882 115.651 132.885 114.83C133.897 114.005 135.119 113.38 136.551 112.953C137.992 112.524 139.355 112.405 140.639 112.596C141.92 112.778 143.012 113.252 143.914 114.019C144.826 114.784 145.462 115.771 145.823 116.982L141.665 118.22C141.39 117.296 140.885 116.667 140.152 116.332C139.416 115.988 138.521 115.973 137.468 116.286C136.451 116.589 135.726 117.041 135.292 117.644C134.855 118.236 134.741 118.884 134.95 119.586C135.145 120.242 135.637 120.694 136.425 120.942C137.223 121.188 138.321 121.313 139.721 121.319C142.298 121.326 144.284 121.695 145.679 122.426C147.073 123.157 148.005 124.308 148.473 125.879C148.993 127.625 148.741 129.194 147.717 130.586C146.69 131.968 145.058 132.992 142.823 133.658C141.27 134.12 139.773 134.259 138.33 134.075C136.884 133.882 135.677 133.392 134.708 132.604C133.748 131.814 133.075 130.767 132.687 129.464L136.858 128.222C137.521 130.448 139.183 131.166 141.844 130.373C142.833 130.079 143.545 129.65 143.981 129.088C144.415 128.516 144.524 127.87 144.309 127.149ZM161.772 121.949C161.538 121.163 161.082 120.645 160.403 120.395C159.723 120.135 158.593 119.988 157.014 119.956C155.432 119.914 154.153 119.792 153.178 119.589C150.518 119.034 148.875 117.707 148.251 115.61C147.926 114.52 147.942 113.459 148.299 112.427C148.662 111.383 149.345 110.451 150.347 109.629C151.359 108.805 152.581 108.179 154.013 107.753C155.454 107.323 156.817 107.204 158.101 107.395C159.382 107.577 160.474 108.051 161.377 108.819C162.288 109.583 162.925 110.571 163.285 111.781L159.127 113.019C158.852 112.095 158.348 111.466 157.614 111.131C156.878 110.787 155.983 110.772 154.93 111.086C153.914 111.388 153.189 111.841 152.754 112.443C152.317 113.036 152.203 113.683 152.412 114.385C152.608 115.041 153.1 115.493 153.888 115.741C154.685 115.987 155.784 116.112 157.183 116.118C159.761 116.125 161.746 116.494 163.141 117.225C164.536 117.957 165.467 119.108 165.935 120.678C166.455 122.425 166.203 123.993 165.179 125.385C164.152 126.767 162.521 127.791 160.285 128.457C158.733 128.919 157.235 129.058 155.792 128.874C154.347 128.681 153.139 128.191 152.17 127.403C151.211 126.613 150.537 125.566 150.149 124.263L154.321 123.021C154.984 125.248 156.646 125.965 159.307 125.172C160.295 124.878 161.008 124.449 161.444 123.887C161.877 123.315 161.986 122.669 161.772 121.949Z" fill="white"/>
</g>
</g>
<defs>
<filter id="filter0_d" x="0" y="-3" width="236.822" height="236.822" filterUnits="userSpaceOnUse" color-interpolation-filters="sRGB">
<feFlood flood-opacity="0" result="BackgroundImageFix"/>
<feColorMatrix in="SourceAlpha" type="matrix" values="0 0 0 0 0 0 0 0 0 0 0 0 0 0 0 0 0 0 127 0"/>
<feOffset dy="4"/>
<feGaussianBlur stdDeviation="25"/>
<feColorMatrix type="matrix" values="0 0 0 0 0 0 0 0 0 0 0 0 0 0 0 0 0 0 0.25 0"/>
<feBlend mode="normal" in2="BackgroundImageFix" result="effect1_dropShadow"/>
<feBlend mode="normal" in="SourceGraphic" in2="effect1_dropShadow" result="shape"/>
</filter>
<clipPath id="clip0">
<rect x="50" y="74.3979" width="110" height="110" rx="8.46154" transform="rotate(-16.585 50 74.3979)" fill="white"/>
</clipPath>
</defs>
</svg>
