<svg width="17" height="16" viewBox="0 0 17 16" fill="none" xmlns="http://www.w3.org/2000/svg">
<path d="M8.41334 3.93359C6.21417 3.93359 4.43262 5.75147 4.43262 7.99352C4.43262 10.2364 6.21417 12.0543 8.41334 12.0543C10.6108 12.0543 12.3941 10.2364 12.3941 7.99352C12.3941 5.75147 10.6108 3.93359 8.41334 3.93359ZM8.41334 10.6316C6.98482 10.6316 5.82669 9.45045 5.82669 7.99439C5.82669 6.53746 6.98482 5.35716 8.41334 5.35716C9.84185 5.35716 10.9983 6.53746 10.9983 7.99439C10.9983 9.45045 9.84185 10.6316 8.41334 10.6316Z" fill="white"/>
<path d="M12.5527 4.73199C13.0656 4.73199 13.4813 4.30798 13.4813 3.78494C13.4813 3.2619 13.0656 2.83789 12.5527 2.83789C12.0398 2.83789 11.624 3.2619 11.624 3.78494C11.624 4.30798 12.0398 4.73199 12.5527 4.73199Z" fill="white"/>
<path d="M15.7609 2.82102C15.357 1.75925 14.5347 0.91967 13.4937 0.509539C12.8918 0.278567 12.2555 0.154737 11.6114 0.140686C10.7822 0.1038 10.5196 0.0932617 8.41684 0.0932617C6.31412 0.0932617 6.04461 0.0932616 5.22229 0.140686C4.57993 0.153859 3.94361 0.277689 3.34172 0.509539C2.29983 0.91967 1.47751 1.75925 1.07453 2.82102C0.848073 3.43578 0.726663 4.08391 0.713747 4.74082C0.676721 5.58567 0.665527 5.85353 0.665527 7.99902C0.665527 10.1436 0.665527 10.4168 0.713747 11.2572C0.726663 11.9141 0.848073 12.5623 1.07453 13.1779C1.47837 14.2388 2.30069 15.0784 3.34258 15.4894C3.94188 15.7283 4.57821 15.8635 5.22401 15.8846C6.05322 15.9215 6.31584 15.9329 8.41856 15.9329C10.5213 15.9329 10.7908 15.9329 11.6131 15.8846C12.2563 15.8714 12.8927 15.7467 13.4954 15.5166C14.5364 15.1047 15.3588 14.266 15.7626 13.2043C15.9891 12.5895 16.1105 11.9414 16.1234 11.2845C16.1604 10.4396 16.1716 10.1717 16.1716 8.02625C16.1716 5.88075 16.1716 5.6085 16.1234 4.76804C16.1122 4.10235 15.9916 3.4428 15.7609 2.82102ZM14.7121 11.1922C14.7061 11.6981 14.6165 12.1996 14.4443 12.6747C14.1817 13.3658 13.647 13.9121 12.9702 14.1773C12.5095 14.3521 12.0238 14.4434 11.5322 14.4504C10.7142 14.4891 10.4834 14.4988 8.38584 14.4988C6.28657 14.4988 6.07216 14.4988 5.23865 14.4504C4.7487 14.4443 4.26134 14.3521 3.80153 14.1773C3.12215 13.913 2.58398 13.3667 2.32136 12.6747C2.15259 12.2057 2.06131 11.7095 2.05357 11.2089C2.01654 10.3746 2.00793 10.1393 2.00793 7.9999C2.00793 5.85967 2.00793 5.641 2.05357 4.79C2.05959 4.28414 2.14914 3.78355 2.32136 3.30844C2.58398 2.61552 3.12215 2.07014 3.80153 1.80492C4.26134 1.63103 4.7487 1.53882 5.23865 1.53179C6.05752 1.49403 6.28743 1.48349 8.38584 1.48349C10.4843 1.48349 10.6995 1.48349 11.5322 1.53179C12.0238 1.53794 12.5095 1.63015 12.9702 1.80492C13.647 2.07102 14.1817 2.61727 14.4443 3.30844C14.6131 3.77741 14.7043 4.2736 14.7121 4.77419C14.7491 5.60938 14.7586 5.84387 14.7586 7.98409C14.7586 10.1234 14.7586 10.3535 14.7216 11.1931H14.7121V11.1922Z" fill="white"/>
</svg>
