<svg width="761" height="481" viewBox="0 0 761 481" fill="none" xmlns="http://www.w3.org/2000/svg">
<g clip-path="url(#clip0)">
<path opacity="0.1" d="M393.591 86.5048C345.53 94.3635 297.536 90.9946 251.368 86.0943C205.199 81.1939 159.145 74.7949 111.064 76.7237C80.1345 77.9618 45.6899 83.8917 24.0938 101.128C3.30586 117.705 0.0667925 140.076 0.0263882 160.27C-0.0274841 175.46 1.33279 191.177 12.4574 203.278C20.1881 211.671 32.0871 217.686 41.0501 225.434C72.2355 252.347 62.754 294.723 42.2892 330.752C32.6865 347.655 20.9423 364.278 14.4036 381.579C7.86481 398.88 6.99612 417.42 18.6999 431.527C30.2959 445.518 52.727 453.403 76.1143 457.489C123.616 465.791 176.539 460.636 227.745 453.651C341.072 438.135 453.227 413.946 565.14 389.816C606.548 380.882 648.137 371.909 688.03 359.033C710.185 351.865 732.744 342.944 747.053 329.057C765.235 311.463 765.693 287.398 748.171 273.017C718.77 248.906 652.225 254.256 629.484 226.692C616.972 211.515 622.42 190.904 632.379 172.697C653.733 133.651 695.006 95.0738 689.659 56.145C685.969 29.4278 657.814 7.31777 620.076 1.55729C580.521 -4.47688 529.719 6.96589 506.945 33.8525C483.53 61.5536 436.028 79.5453 393.591 86.5048Z" fill="#1ABC9C"/>
<g filter="url(#filter0_d)">
<path d="M433.288 234.094H242.425V276.861H433.288V234.094Z" fill="#565661"/>
<path opacity="0.1" d="M433.288 234.094H242.425V276.861H433.288V234.094Z" fill="black"/>
<path d="M265.26 278.269L266.6 392.442L248.243 437.288L246.822 278.269H265.26Z" fill="#BCBEC9"/>
<path d="M244.438 242.305L430.264 243.387V275.239H244.438V242.305Z" fill="#565661"/>
<path d="M414.365 278.269L430.264 280.439V435.555L414.365 388.109V278.269Z" fill="#BCBEC9"/>
<path d="M525.861 235.808H436.305V419.961H525.861V235.808Z" fill="#EFEFF0"/>
<path d="M518.696 240.924H443.47V382.479H518.696V240.924Z" fill="#565661"/>
<path opacity="0.1" d="M518.696 240.924H443.47V382.479H518.696V240.924Z" fill="black"/>
<path d="M518.696 243.823H443.47V275.239H518.696V243.823Z" fill="#565661"/>
<path d="M518.696 278.269H443.47V344.997H518.696V278.269Z" fill="#565661"/>
<path d="M518.696 349.115H443.47V415.843H518.696V349.115Z" fill="#565661"/>
<path opacity="0.1" d="M518.696 349.115H443.47V415.843H518.696V349.115Z" fill="black"/>
<path d="M446.608 431.951C449.285 431.951 451.456 429.267 451.456 425.956C451.456 422.645 449.285 419.961 446.608 419.961C443.93 419.961 441.759 422.645 441.759 425.956C441.759 429.267 443.93 431.951 446.608 431.951Z" fill="#565661"/>
<path d="M513.847 432.238C516.525 432.238 518.696 429.554 518.696 426.243C518.696 422.932 516.525 420.248 513.847 420.248C511.169 420.248 508.999 422.932 508.999 426.243C508.999 429.554 511.169 432.238 513.847 432.238Z" fill="#565661"/>
<path d="M241.752 437.288H248.243L246.459 237.405H236.6L241.752 437.288Z" fill="#EFEFF0"/>
<path d="M430.265 235.808V435.555H436.305V237.405L430.265 235.808Z" fill="#EFEFF0"/>
<path d="M246.775 273.284V280.439H430.264V275.239L246.775 273.284Z" fill="#EFEFF0"/>
<path d="M259.213 222.378H491.833L525.638 233.208V239.49L235.482 237.326V230.934L259.213 222.378Z" fill="white"/>
<path d="M235.482 230.934L525.638 233.208V239.49L235.482 237.326V230.934Z" fill="#BCBEC9"/>
<path d="M261.765 305.429L260.418 305.234C260.418 305.175 260.418 305.123 260.418 305.071C260.378 304.764 260.331 304.465 260.284 304.158C260.836 304.582 261.361 305.006 261.846 305.429H261.765Z" fill="url(#paint0_linear)"/>
<path opacity="0.1" d="M666.649 446.841C702.888 446.841 732.266 442.275 732.266 436.643C732.266 431.011 702.888 426.445 666.649 426.445C630.41 426.445 601.033 431.011 601.033 436.643C601.033 442.275 630.41 446.841 666.649 446.841Z" fill="#1ABC9C"/>
<path d="M668.757 241.275H664.535V333.267H668.757V241.275Z" fill="#535461"/>
<path d="M695.296 332.987L695.033 337.131L694.656 342.996L694.501 345.433L694.131 351.298L693.969 353.735L693.592 359.6L689.336 426.112C689.141 428.967 687.832 431.643 685.674 433.599C683.515 435.554 680.67 436.642 677.713 436.643H655.578C652.616 436.642 649.767 435.548 647.61 433.584C645.452 431.62 644.15 428.934 643.969 426.073L639.699 359.554L639.329 353.689L639.174 351.252L638.79 345.388L638.635 342.95L638.265 337.086L637.996 332.941C637.949 332.147 638.07 331.352 638.351 330.604C638.632 329.856 639.067 329.172 639.631 328.592C640.194 328.012 640.873 327.549 641.627 327.232C642.381 326.914 643.194 326.748 644.016 326.744H689.282C690.108 326.749 690.924 326.917 691.681 327.237C692.437 327.558 693.118 328.025 693.681 328.61C694.244 329.194 694.678 329.884 694.955 330.637C695.233 331.39 695.349 332.189 695.296 332.987Z" fill="#565661"/>
<path d="M695.033 337.131L694.656 342.977H638.642L638.265 337.131H695.033Z" fill="#9D9CB5"/>
<path d="M694.501 345.42L694.13 351.272H639.174L638.797 345.42H694.501Z" fill="#9D9CB5"/>
<path d="M693.97 353.709L693.592 359.554H639.707L639.33 353.709H693.97Z" fill="#9D9CB5"/>
<path d="M631.814 275.754C656.406 292.97 666.649 319.896 666.649 319.896C666.649 319.896 637.019 318.912 612.42 301.695C587.82 284.479 577.591 257.56 577.591 257.56C577.591 257.56 607.228 258.544 631.814 275.754Z" fill="#1ABC9C"/>
<path d="M577.591 257.56C577.591 257.56 608.346 274.079 618.218 287.757C628.09 301.435 666.649 319.896 666.649 319.896" stroke="#535461" stroke-width="2" stroke-miterlimit="10"/>
<path d="M647.686 241.073C661.074 250.437 666.649 265.099 666.649 265.099C666.649 265.099 650.488 264.558 637.134 255.194C623.78 245.83 618.211 231.168 618.211 231.168C618.211 231.168 634.306 231.703 647.686 241.073Z" fill="#1ABC9C"/>
<path d="M618.211 231.168C618.211 231.168 634.952 240.161 640.319 247.603C645.686 255.044 666.683 265.099 666.683 265.099" stroke="#535461" stroke-width="2" stroke-miterlimit="10"/>
<path d="M686.097 264.35C670.723 280.7 667.471 302.067 667.471 302.067C667.471 302.067 689.148 296.919 704.508 280.563C719.868 264.207 723.134 242.846 723.134 242.846C723.134 242.846 701.471 248 686.097 264.35Z" fill="#1ABC9C"/>
<path d="M723.148 242.852C723.148 242.852 703.121 259.612 698.03 271.159C692.939 282.706 667.471 302.067 667.471 302.067" stroke="#535461" stroke-width="2" stroke-miterlimit="10"/>
<path d="M232.5 406.049C233.375 405.853 234.264 405.69 235.153 405.573C241.258 404.732 247.484 405.619 253.079 408.127C252.513 412.154 251.954 416.318 253.153 420.209C253.988 422.946 255.665 425.422 256.022 428.276C256.921 428.426 257.759 428.815 258.443 429.399C259.127 429.984 259.629 430.741 259.894 431.586C260.152 432.334 260.282 433.118 260.278 433.906C260.27 434.882 260.143 435.853 259.9 436.799C259.819 437.556 259.435 438.251 258.831 438.738C258.228 439.225 257.452 439.464 256.668 439.406C251.456 439.979 246.345 437.992 241.496 436.043L232.069 432.251C230.964 431.808 229.853 431.358 228.796 430.811C226.791 429.762 225.01 428.354 223.55 426.66C223.241 426.358 223.025 425.979 222.924 425.565C222.749 424.418 224.136 423.734 225.018 422.959C225.276 422.722 225.503 422.455 225.691 422.164C226.735 420.639 226.836 418.534 227.463 416.735C228.944 412.467 233.523 409.717 235.139 405.553C235.227 405.325 235.308 405.097 235.375 404.863" fill="#A26565"/>
<path opacity="0.1" d="M260.278 433.906C260.27 434.881 260.143 435.853 259.9 436.799C259.819 437.556 259.435 438.251 258.831 438.738C258.228 439.225 257.452 439.464 256.668 439.406C251.456 439.979 246.345 437.992 241.496 436.043L232.069 432.251C230.964 431.808 229.853 431.358 228.796 430.811C226.791 429.762 225.01 428.354 223.55 426.66C223.241 426.358 223.025 425.979 222.924 425.565C222.749 424.418 224.136 423.734 225.018 422.959C225.276 422.722 225.503 422.455 225.691 422.164C228.291 422.704 231.516 424.288 233.503 424.9C235.493 425.425 237.403 426.198 239.186 427.201C241.665 428.739 243.449 431.111 245.55 433.065C247.651 435.02 250.365 436.799 253.294 436.558C254.843 436.332 256.336 435.833 257.698 435.085L260.278 433.906Z" fill="black"/>
<path d="M249.24 341.302C249.415 341.893 249.399 342.522 249.195 343.104C248.99 343.687 248.606 344.195 248.095 344.56C247.213 345.088 246.075 345.016 245.199 345.59C244.115 346.326 243.96 347.786 243.772 349.05C243.098 353.396 240.869 357.339 238.964 361.333C237.058 365.328 235.449 369.687 236.149 374.027C236.627 376.973 238.122 380.113 236.721 382.766C236.378 383.417 235.866 383.997 235.475 384.629C233.556 387.731 234.647 391.66 234.573 395.271C234.601 395.671 234.51 396.072 234.31 396.424C234.016 396.757 233.654 397.028 233.246 397.219C232.563 397.705 232.001 398.335 231.604 399.06C231.206 399.786 230.983 400.588 230.95 401.409C230.893 403.05 231.098 404.689 231.556 406.27C231.63 406.908 231.922 407.504 232.385 407.964C232.921 408.307 233.554 408.48 234.196 408.46C238.427 408.791 242.577 409.768 246.492 411.353C249.045 412.383 251.523 413.673 254.236 414.168C254.499 414.247 254.775 414.273 255.048 414.245C255.322 414.217 255.586 414.135 255.826 414.005C256.167 413.707 256.403 413.313 256.499 412.878C257.543 409.554 258.6 406.127 258.243 402.673C258.088 401.187 257.678 399.734 257.57 398.249C257.098 392.384 261.199 387.092 262.499 381.306C263.085 378.699 263.085 376.002 263.502 373.369C264.634 366.155 268.742 359.685 270.324 352.549C270.544 351.219 270.887 349.911 271.348 348.639C272.526 345.876 275.253 343.635 275.314 340.644C275.351 339.986 275.172 339.333 274.802 338.78C274.167 338.106 273.324 337.649 272.398 337.477C268.74 336.503 265.016 335.776 261.253 335.3C259.529 334.972 257.769 334.854 256.014 334.948C253.736 335.208 251.545 335.956 249.603 337.138C247.004 338.689 248.674 339.06 249.24 341.302Z" fill="#454B69"/>
<path opacity="0.05" d="M249.24 341.302C249.415 341.893 249.399 342.522 249.195 343.104C248.99 343.687 248.606 344.195 248.095 344.56C247.213 345.088 246.075 345.016 245.199 345.59C244.115 346.326 243.96 347.786 243.772 349.05C243.098 353.396 240.869 357.339 238.964 361.333C237.058 365.328 235.449 369.687 236.149 374.027C236.627 376.973 238.122 380.113 236.721 382.766C236.378 383.417 235.866 383.997 235.475 384.629C233.556 387.731 234.647 391.66 234.573 395.271C234.601 395.671 234.51 396.072 234.31 396.424C234.016 396.757 233.654 397.028 233.246 397.219C232.563 397.705 232.001 398.335 231.604 399.06C231.206 399.786 230.983 400.588 230.95 401.409C230.893 403.05 231.098 404.689 231.556 406.27C231.63 406.908 231.922 407.504 232.385 407.964C232.921 408.307 233.554 408.48 234.196 408.46C238.427 408.791 242.577 409.768 246.492 411.353C249.045 412.383 251.523 413.673 254.236 414.168C254.499 414.247 254.775 414.273 255.048 414.245C255.322 414.217 255.586 414.135 255.826 414.005C256.167 413.707 256.403 413.313 256.499 412.878C257.543 409.554 258.6 406.127 258.243 402.673C258.088 401.187 257.678 399.734 257.57 398.249C257.098 392.384 261.199 387.092 262.499 381.306C263.085 378.699 263.085 376.002 263.502 373.369C264.634 366.155 268.742 359.685 270.324 352.549C270.544 351.219 270.887 349.911 271.348 348.639C272.526 345.876 275.253 343.635 275.314 340.644C275.351 339.986 275.172 339.333 274.802 338.78C274.167 338.106 273.324 337.649 272.398 337.477C268.74 336.503 265.016 335.776 261.253 335.3C259.529 334.972 257.769 334.854 256.014 334.948C253.736 335.208 251.545 335.956 249.603 337.138C247.004 338.689 248.674 339.06 249.24 341.302Z" fill="black"/>
<path d="M236.061 439.51H230.317L226.56 364.806L226.297 360.558L231.179 358.896L231.509 363.412L236.061 439.51Z" fill="#565661"/>
<path opacity="0.1" d="M231.509 363.412L226.56 364.806L226.297 360.558L231.179 358.896L231.509 363.412Z" fill="black"/>
<path d="M308.136 455.312L298.661 456.42L255.011 360.558L243.24 359.724L222.567 365.562L218.547 479.697H209.072L212.802 361.392L190.115 361.952L149.63 459.476H141.018L183.597 345.498L185.24 341.106L248.695 339.002L264.513 347.584L264.715 348.079L308.136 455.312Z" fill="#565661"/>
<path opacity="0.1" d="M264.715 348.079C251.078 352.054 236.924 356.394 236.924 356.394C236.924 356.394 224.014 360.753 218.546 356.394C217.857 355.873 217.086 355.462 216.263 355.175C216.973 355.666 217.739 356.075 218.546 356.394L183.597 345.492L185.233 341.106L248.695 339.001L264.513 347.584L264.715 348.079Z" fill="black"/>
<path d="M200.169 329.162L226.007 323.603C226.007 323.603 287.745 334.72 292.338 339.164C292.338 339.164 242.95 348.887 237.496 352.197C232.041 355.508 199.59 359.17 200.169 329.162Z" fill="white"/>
<path d="M189.058 266.676C187.037 272.873 181.522 278.458 174.808 278.725C174.32 278.78 173.825 278.694 173.388 278.477C172.546 277.969 172.526 276.777 172.869 275.871C173.212 274.965 173.812 274.151 173.906 273.199C173.926 273.005 173.912 272.809 173.866 272.619C173.691 271.844 173.037 271.153 172.27 271.316C172.792 270.911 173.141 270.333 173.246 269.693C173.352 269.053 173.208 268.398 172.842 267.856C172.537 267.523 172.262 267.165 172.021 266.787C171.462 265.679 172.33 264.435 172.694 263.249C173.441 260.642 171.542 258.036 171.387 255.318C171.253 252.888 172.526 250.6 172.842 248.189C173.347 244.279 171.34 240.533 171.105 236.629C170.943 233.905 171.637 231.208 172.411 228.582C173.084 226.236 173.845 223.864 173.893 221.414C173.893 219.635 173.576 217.875 173.489 216.103C173.349 214.482 173.653 212.855 174.371 211.385C174.837 210.52 175.631 209.864 176.586 209.554C178.795 208.837 180.243 209.951 180.566 211.978C181.105 215.425 180.795 218.944 181.502 222.404C182.156 225.64 183.146 228.803 184.458 231.846C185.65 234.596 187.098 237.255 188.014 240.102C188.703 242.45 189.197 244.847 189.489 247.271C190.391 253.78 191.098 260.479 189.058 266.676Z" fill="#1ABC9C"/>
<path d="M342.432 424.399C341.581 425.561 340.484 426.535 339.216 427.259C337.947 427.982 336.535 428.437 335.072 428.595C332.15 428.947 329.113 428.237 326.277 429.012C325.838 429.082 325.424 429.256 325.072 429.519C324.719 429.782 324.439 430.125 324.257 430.518C324.187 431.047 324.144 431.58 324.129 432.114C323.799 433.854 321.436 434.245 319.597 434.232L312.015 434.186C310.439 434.186 308.695 434.102 307.564 433.046C307.026 432.469 306.722 431.724 306.71 430.947C306.698 430.17 306.977 429.416 307.496 428.823C307.731 428.554 308.02 428.332 308.345 428.172C307.871 428.02 307.451 427.744 307.13 427.375C306.809 427.006 306.6 426.557 306.527 426.08C306.389 425.122 306.437 424.147 306.668 423.206C306.668 420.482 307.341 415.921 309.321 413.79C311.752 411.138 315.968 407.71 319.638 407C320.877 406.77 322.155 406.824 323.369 407.158C324.582 407.492 325.699 408.096 326.628 408.922C328.365 410.486 329.631 412.936 332.015 413.21C333.315 413.367 334.567 412.774 335.853 412.558C337.315 412.376 338.799 412.636 340.103 413.302C341.406 413.968 342.464 415.008 343.133 416.279C343.459 416.924 343.686 417.611 343.806 418.319C344.162 420.441 343.671 422.614 342.432 424.399Z" fill="#A26565"/>
<path opacity="0.1" d="M342.432 424.399C341.58 425.561 340.484 426.535 339.215 427.259C337.947 427.982 336.535 428.437 335.072 428.595C332.149 428.947 329.112 428.237 326.277 429.012C325.838 429.082 325.424 429.256 325.071 429.519C324.719 429.782 324.439 430.125 324.257 430.518C324.187 431.047 324.144 431.58 324.129 432.114C323.799 433.854 321.435 434.245 319.597 434.232L312.014 434.186C310.438 434.186 308.694 434.102 307.563 433.046C307.025 432.469 306.722 431.724 306.709 430.947C306.697 430.17 306.976 429.416 307.496 428.823C311.873 428.647 316.176 428.823 320.54 427.95C322.311 427.605 324.055 427.149 325.846 426.908C329.725 426.373 333.853 426.829 337.415 425.239C340.385 423.936 342.513 421.284 343.772 418.325C344.136 420.441 343.657 422.611 342.432 424.399Z" fill="black"/>
<path d="M322.426 414.096C319.732 416.116 316.574 417.693 313.18 417.863C309.786 418.032 306.183 416.559 304.52 413.705C302.089 409.515 304.244 403.69 301.268 399.845C300.338 398.639 298.998 397.786 298.015 396.619C297.032 395.453 296.466 393.7 297.342 392.462C296.284 392.853 295.167 391.862 294.857 390.807C294.547 389.751 294.742 388.617 294.554 387.549C294.062 384.714 291.187 382.896 289.806 380.381C288.426 377.865 288.614 374.601 288.459 371.623C288.115 364.367 285.324 357.42 280.513 351.845C279.597 350.79 278.426 349.715 276.998 349.767C277.247 347.382 275.604 345.101 273.476 343.902C271.348 342.703 268.816 342.299 266.352 342.064C241.483 339.692 215.57 348.639 191.826 341.113C185.22 339.021 178.85 335.522 174.809 330.035C173.235 327.947 172.109 325.575 171.497 323.059C170.886 320.543 170.8 317.935 171.247 315.386V315.295C172.183 310.668 174.708 309.528 178.89 307.417C183.718 304.947 188.763 302.899 193.967 301.298C204.069 298.242 214.944 297.14 225.368 299.382C230.237 300.438 234.931 302.184 239.806 303.207C241.725 303.611 243.658 303.898 245.604 304.139C248.628 304.504 251.665 304.745 254.708 305.084C264.441 306.168 274.026 308.255 283.301 311.307C286.756 312.441 290.21 313.738 293.18 315.79C295.529 317.441 297.515 319.528 299.023 321.929C300.53 324.329 301.529 326.996 301.961 329.774C302.244 331.69 302.251 333.684 302.682 335.541C303.09 337.102 303.631 338.628 304.298 340.103C310.052 353.87 314.754 368.026 318.365 382.459C318.57 383.531 318.95 384.565 319.49 385.522C320.352 386.871 321.833 387.777 322.702 389.126C324.722 392.306 322.776 396.743 324.567 400.053C325.187 401.2 326.217 402.106 326.837 403.253C328.857 407.013 325.874 411.509 322.426 414.096Z" fill="#454B69"/>
<path opacity="0.1" d="M288.015 339.223C288.972 338.49 289.798 337.609 290.459 336.617C291.123 335.619 291.386 334.42 291.2 333.248C291.463 334.731 291.362 336.254 290.907 337.693C290.453 339.132 289.656 340.449 288.58 341.536C286.89 343.211 283.718 344.853 281.247 344.28C281.597 342.364 286.446 340.513 288.015 339.223Z" fill="black"/>
<path opacity="0.1" d="M245.94 306.746C245.737 307.444 245.357 308.083 244.835 308.604C244.313 309.125 243.666 309.512 242.95 309.73C241.515 310.155 240.011 310.325 238.513 310.232H237.166C219.496 309.854 201.637 306.061 184.378 309.678C182.298 310.093 180.257 310.675 178.277 311.418C175.754 312.38 173.392 313.698 171.267 315.328V315.236C172.203 310.61 174.728 309.469 178.91 307.358C183.733 304.91 188.772 302.881 193.967 301.298C204.068 298.242 214.944 297.14 225.368 299.382C230.237 300.438 234.93 302.184 239.806 303.207C241.725 303.611 243.657 303.898 245.604 304.139C245.981 304.956 246.098 305.864 245.94 306.746Z" fill="black"/>
<path d="M245.94 305.814C245.739 306.514 245.36 307.154 244.838 307.676C244.315 308.198 243.667 308.586 242.951 308.805C241.515 309.23 240.011 309.398 238.513 309.3H237.166C219.496 308.922 201.637 305.129 184.378 308.746C182.299 309.162 180.258 309.742 178.277 310.479C175.635 311.499 173.171 312.906 170.97 314.65C170.454 313.277 169.94 311.902 169.428 310.525C168.809 308.883 170.775 308.518 171.152 307.045C171.401 306.048 170.977 304.914 170.762 303.852C170.706 303.592 170.67 303.329 170.654 303.064C170.533 300.711 171.401 299.356 173.395 298.085C179.307 294.306 186.519 291.712 193.267 289.764C196.854 288.666 200.56 287.971 204.311 287.692C209.617 287.392 214.917 288.343 220.082 289.549C226.432 291.067 232.715 293.074 238.345 296.287C241.105 297.844 243.799 299.799 245.287 302.575C245.881 303.551 246.112 304.694 245.94 305.814Z" fill="#A26565"/>
<path opacity="0.1" d="M189.058 266.676C187.038 272.873 181.523 278.458 174.809 278.725C174.32 278.78 173.826 278.694 173.388 278.477C172.546 277.969 172.526 276.777 172.87 275.871C173.213 274.965 173.812 274.151 173.907 273.199C173.927 273.005 173.913 272.809 173.866 272.619C177.428 267.758 180.883 262.845 182.25 257.091C182.527 256.1 182.611 255.068 182.499 254.048C182.317 252.875 181.705 251.812 181.368 250.679C180.775 248.672 181.051 246.547 181.22 244.469C181.921 235.315 180.341 226.133 176.614 217.693C175.705 215.66 174.667 213.6 174.351 211.43C174.817 210.566 175.611 209.91 176.566 209.599C178.775 208.883 180.223 209.997 180.546 212.023C181.085 215.471 180.775 218.989 181.482 222.45C182.136 225.686 183.127 228.849 184.439 231.892C185.631 234.642 187.078 237.3 187.994 240.148C188.684 242.495 189.177 244.892 189.469 247.316C190.391 253.78 191.099 260.479 189.058 266.676Z" fill="black"/>
<path opacity="0.1" d="M245.94 305.814C245.739 306.514 245.36 307.154 244.837 307.676C244.315 308.198 243.667 308.586 242.951 308.805C241.515 309.23 240.011 309.398 238.513 309.3H237.166C231.414 305.603 224.499 303.988 217.637 304.738C215.442 304.993 213.247 305.488 211.051 305.292C206.614 304.901 203.018 301.813 199.065 299.838C194.567 297.689 189.508 296.889 184.537 297.542C179.566 298.194 174.91 300.269 171.166 303.5L170.782 303.826C170.727 303.566 170.691 303.303 170.674 303.038C170.553 300.685 171.422 299.33 173.415 298.059C179.327 294.28 186.54 291.686 193.287 289.738C196.874 288.64 200.58 287.945 204.331 287.665C209.637 287.366 214.937 288.317 220.102 289.523C226.452 291.041 232.735 293.048 238.365 296.261C241.105 297.844 243.799 299.799 245.287 302.575C245.881 303.551 246.112 304.694 245.94 305.814Z" fill="black"/>
<path d="M261.045 234.433L260.95 234.668C259.442 238.454 256.668 241.653 254.89 245.342C252.647 250.014 252.095 255.253 251.597 260.388C251.166 264.787 250.742 269.211 251.085 273.623C251.947 284.492 257.435 294.801 258.903 305.462C259.265 307.924 259.358 310.416 259.179 312.897C259.058 314.467 258.762 316.155 257.684 317.315C256.607 318.475 254.513 318.931 253.354 317.817C253.873 316.859 254.398 315.908 254.923 314.95C251.846 312.636 247.213 314.298 243.617 312.851C242.034 312.2 240.768 311.027 239.442 309.978C236.414 307.596 232.925 305.823 229.179 304.764C225.434 303.706 221.507 303.382 217.63 303.813C215.435 304.074 213.24 304.569 211.044 304.374C206.607 303.976 203.011 300.894 199.058 298.919C194.56 296.771 189.502 295.971 184.531 296.623C179.561 297.274 174.904 299.347 171.159 302.575C170.216 303.422 168.95 304.413 167.792 303.878C167.344 303.613 166.982 303.232 166.748 302.777C162.337 295.485 165.583 286.082 170.297 278.979C175.011 271.876 181.253 265.327 183.192 257.097C183.472 256.107 183.557 255.075 183.442 254.054C183.26 252.881 182.647 251.819 182.31 250.685C181.718 248.678 181.994 246.554 182.162 244.475C182.869 235.321 181.294 226.136 177.57 217.693C176.492 215.262 175.213 212.799 175.213 210.16C175.213 206.002 178.29 202.555 180.836 199.212C183.765 195.368 186.223 191.112 189.933 187.952C193.448 184.948 198.539 183.11 202.89 184.635C210.281 182.899 217.89 182.181 225.489 182.504C228.115 182.622 230.829 182.889 233.132 184.12C235.597 185.424 237.368 187.743 239.792 189.131C241.563 190.155 243.604 190.637 245.529 191.354C250.848 193.363 255.238 197.163 257.893 202.053C260.587 207.104 261.26 212.91 261.853 218.566C262.418 223.89 262.957 229.422 261.045 234.433Z" fill="#1ABC9C"/>
<path opacity="0.1" d="M251.086 273.623C251.948 284.492 257.436 294.801 258.904 305.462C255.968 303.057 251.88 300.64 251.335 297.844C250.729 294.821 248.789 290.859 248.466 287.802C248.143 284.746 250.358 281.012 248.035 278.914C246.904 277.891 249.914 278.178 248.809 277.129C246.325 274.789 245.712 271.186 245.557 267.843C245.294 261.926 246.069 255.944 244.944 250.125C244.271 246.534 242.863 243.113 241.739 239.627C240.432 235.567 239.49 231.41 238.547 227.246C237.619 223.544 236.944 219.786 236.527 215.998C236.237 212.74 236.372 209.287 237.873 206.315C239.375 203.344 242.412 200.933 245.82 200.978C257.214 201.122 255.247 216.07 257.752 222.977C258.756 225.727 260.109 228.386 260.655 231.253C260.854 232.377 260.962 233.515 260.978 234.655C259.469 238.441 256.695 241.64 254.917 245.329C252.675 250.001 252.123 255.24 251.624 260.375C251.166 264.787 250.742 269.211 251.086 273.623Z" fill="black"/>
<path d="M258.493 222.808C259.496 225.558 260.85 228.217 261.395 231.084C262.304 235.886 260.897 240.989 262.425 245.641C262.823 246.635 263.156 247.651 263.422 248.685C263.685 250.164 263.382 251.676 263.382 253.181C263.382 255.605 264.169 257.951 264.87 260.277C267.238 268.183 268.806 276.293 269.55 284.492C269.661 286.695 270.02 288.88 270.621 291.008C270.903 291.73 271.146 292.465 271.348 293.211C271.529 294.207 271.572 295.221 271.476 296.228C271.294 299.421 270.924 302.627 271.294 305.807C271.664 308.987 272.863 312.213 275.334 314.344C273.126 314.806 270.789 315.269 268.634 314.585C265.604 313.627 263.786 310.675 262.243 307.99C260.291 304.563 252.87 301.474 252.102 297.623C251.503 294.605 249.563 290.644 249.24 287.581C248.917 284.518 251.126 280.797 248.802 278.699C247.678 277.676 250.688 277.956 249.577 276.914C247.099 274.574 246.486 270.971 246.331 267.621C246.068 261.711 246.836 255.729 245.718 249.91C245.045 246.319 243.637 242.898 242.513 239.405C241.206 235.352 240.264 231.195 239.321 227.024C238.39 223.323 237.715 219.565 237.301 215.777C237.011 212.519 237.139 209.058 238.647 206.087C240.156 203.116 243.193 200.711 246.594 200.75C257.94 200.946 255.988 215.901 258.493 222.808Z" fill="#1ABC9C"/>
<path opacity="0.1" d="M226.021 225.356C227.085 226.561 228.452 227.884 230.061 227.65C229.939 227.837 229.746 227.971 229.523 228.022C229.3 228.073 229.065 228.038 228.869 227.923C228.483 227.676 228.173 227.331 227.974 226.926L225.671 223.166C225.368 222.678 223.28 219.83 222.768 221.472C222.566 222.169 225.502 224.769 226.021 225.356Z" fill="black"/>
<path opacity="0.1" d="M224.782 234.733C224.716 233.504 224.181 232.343 223.28 231.475C222.471 230.764 221.526 230.213 220.499 229.852C217.974 228.849 214.984 228.041 212.243 228.171C213.24 229.579 216.438 230.419 218.041 231.214C220.313 232.348 222.56 233.521 224.782 234.733Z" fill="black"/>
<path opacity="0.1" d="M231.954 261.424C231.489 264.76 228.668 267.289 225.813 269.244C222.957 271.199 219.752 272.88 217.887 275.708C216.594 277.663 216.015 279.931 214.917 281.97C213.705 284.218 211.893 286.108 210.445 288.219C208.998 290.331 207.866 292.853 208.311 295.355C208.317 295.47 208.348 295.583 208.401 295.686C208.455 295.789 208.529 295.88 208.621 295.954C208.759 296.011 208.911 296.032 209.06 296.017C209.21 296.001 209.353 295.948 209.476 295.863C212.412 294.377 213.57 290.982 214.802 288.044C216.096 285.077 217.553 282.18 219.166 279.364C219.893 278.06 220.695 276.64 222.048 275.917C222.975 275.543 223.924 275.223 224.89 274.959C226.26 274.351 227.463 273.437 228.398 272.293C232.075 268.05 233.994 262.638 233.786 257.104C233.745 255.937 233.678 250.32 231.866 252.054C230.055 253.787 232.264 259.156 231.954 261.424Z" fill="black"/>
<path d="M236.392 133.462C242.183 135.906 247.166 141.282 246.984 147.374C246.829 153.774 241.294 159.801 243.2 165.933C244.304 169.491 247.631 171.876 250.264 174.58C260.291 184.85 260.271 202.777 250.21 213.027C246.358 216.937 241.408 219.719 237.334 223.453C222.971 236.551 222.358 259.209 230.048 276.796C224.156 278.029 218.15 278.684 212.122 278.751C209.301 278.751 205.846 278.289 204.822 275.741C203.88 273.388 205.496 270.208 203.637 268.468C202.762 267.654 201.449 267.543 200.27 267.354C192.688 266.168 186.465 260.31 183.624 253.409C180.782 246.508 180.93 238.741 182.56 231.481C183.718 226.236 185.529 220.462 182.843 215.77C179.476 209.867 169.792 207.377 169.94 200.626C170.061 195.094 176.802 192.403 180.627 188.291C187.684 180.719 184.324 168.97 184.311 158.765C184.311 149.785 187.556 140.519 194.466 134.537C204.742 125.564 224.533 128.477 236.392 133.462Z" fill="#A26565"/>
<g opacity="0.1">
<path opacity="0.1" d="M183.947 209.078C180.991 203.917 173.226 201.363 171.422 196.286C170.519 197.471 170.011 198.894 169.967 200.366C169.819 207.117 179.489 209.606 182.869 215.516C183.979 217.609 184.447 219.965 184.216 222.306C185.28 217.771 186.216 213.04 183.947 209.078Z" fill="black"/>
<path opacity="0.1" d="M243.974 157.579C245.186 154.158 246.944 150.704 247.031 147.153C247.044 146.768 247.032 146.383 246.998 146C245.644 149.922 243.57 153.728 243.974 157.579Z" fill="black"/>
<path opacity="0.1" d="M185.105 175.805C187.422 168.722 185.421 159.938 185.415 152.079C185.415 151.128 185.455 150.17 185.529 149.219C184.731 152.256 184.329 155.377 184.331 158.511C184.344 164.122 185.361 170.208 185.105 175.805Z" fill="black"/>
<path opacity="0.1" d="M251.334 206.361C247.483 210.271 242.533 213.053 238.459 216.787C231.186 223.414 227.449 232.491 226.513 242.116C228.25 234.948 231.759 228.347 237.381 223.219C241.422 219.504 246.405 216.735 250.257 212.792C254.839 207.961 257.499 201.712 257.765 195.159C256.602 199.346 254.394 203.193 251.334 206.361Z" fill="black"/>
<path opacity="0.1" d="M213.247 272.065C210.425 272.065 206.971 271.596 205.947 269.048C205.004 266.702 206.621 263.522 204.762 261.776C203.887 260.961 202.567 260.851 201.395 260.662C193.819 259.482 187.597 253.617 184.755 246.723C182.661 241.627 182.21 236.069 182.735 230.582C182.681 230.797 182.634 231.012 182.587 231.234C180.984 238.493 180.816 246.267 183.651 253.168C186.486 260.069 192.715 265.927 200.291 267.106C201.489 267.295 202.809 267.413 203.658 268.221C205.536 269.967 203.9 273.147 204.843 275.493C205.866 278.041 209.321 278.543 212.142 278.51C218.171 278.443 224.176 277.788 230.068 276.555C229.237 274.654 228.511 272.712 227.893 270.736C223.057 271.568 218.159 272.012 213.247 272.065Z" fill="black"/>
</g>
<path opacity="0.1" d="M235.301 243.647C236.964 244.859 238.769 240.239 237.738 239.086C237.462 239.386 235.045 243.478 235.301 243.647Z" fill="black"/>
<path opacity="0.1" d="M242.392 327.278C244.351 326.627 246.432 325.975 247.711 324.411C248.769 323.154 249.637 318.162 247.402 320.554C245.503 322.606 244.607 325.311 242.392 327.278Z" fill="black"/>
<path opacity="0.1" d="M262.344 322.046C262.109 323.584 261.671 325.18 260.547 326.288C260.338 326.497 259.873 326.627 259.812 326.347C261.069 325.7 262.236 324.903 263.287 323.975C265.563 321.792 265.873 316.416 262.405 314.989C262.371 317.348 262.715 319.648 262.344 322.046Z" fill="black"/>
<path d="M286.298 312.356C286.298 312.356 267.186 305.09 260.277 305.84C253.368 306.589 268.102 317.126 268.102 317.126L276.91 322.874C276.91 322.874 282.298 320.919 282.655 320.769C283.011 320.619 286.298 312.356 286.298 312.356Z" fill="#454B69"/>
<path d="M154.802 234.407C154.802 234.407 169.159 226.353 188.109 236.362C207.058 246.371 210.217 305.273 210.217 305.273C210.217 305.273 202.466 365.282 232.351 351.93C232.351 351.93 286.897 335.541 292.358 339.151C292.358 339.151 297.53 339.151 287.193 341.373C276.857 343.596 236.924 355.84 236.924 355.84C236.924 355.84 224.015 360.206 218.547 355.84C213.079 351.474 197.584 356.4 195.57 326.386C194.238 307.472 191.841 288.642 188.392 269.98L183.065 254.699L154.802 234.407Z" fill="#565661"/>
<path d="M153.078 327.213C153.078 327.213 159.394 266.363 149.038 244.41C140.027 225.278 174.869 234.225 183.96 236.831C185.367 237.238 186.594 238.086 187.448 239.242C192.836 246.573 212.162 275.956 206.465 315.269C206.465 315.269 204.169 350.281 218.526 355.833L174.29 342.045C170.701 340.924 167.058 339.992 163.381 339.184C158.694 338.154 151.058 335.229 153.078 327.213Z" fill="white"/>
<path d="M467.699 440.813H473.443L477.207 366.11L477.463 361.861L472.581 360.199L472.258 364.715L467.699 440.813Z" fill="#565661"/>
<path opacity="0.1" d="M472.258 364.715L477.207 366.11L477.463 361.861L472.581 360.199L472.258 364.715Z" fill="black"/>
<path d="M419.739 411.965C419.598 412.989 419.326 413.991 418.931 414.95C418.523 416.202 417.646 417.262 416.473 417.921C415.685 418.236 414.841 418.398 413.988 418.397C410.816 418.58 407.463 418.534 404.735 416.97C403.574 416.246 402.508 415.386 401.564 414.409C395.435 408.517 389.864 402.105 384.917 395.251C384.089 394.098 383.234 392.736 383.604 391.341C390.012 389.621 396.097 386.927 401.631 383.359C402.395 382.792 403.25 382.351 404.163 382.055C405.726 381.732 407.334 381.675 408.917 381.886C410.446 382.127 410.513 382.173 411.099 383.841C412.069 386.662 411.907 389.706 412.998 392.527C413.691 394.086 414.534 395.579 415.517 396.984C418.332 401.539 420.493 406.915 419.739 411.965Z" fill="#A26565"/>
<path opacity="0.1" d="M419.739 411.966C419.597 412.989 419.326 413.991 418.931 414.95C418.522 416.202 417.646 417.262 416.473 417.922C415.685 418.236 414.84 418.398 413.988 418.397C410.816 418.58 407.463 418.534 404.735 416.97C403.573 416.246 402.508 415.386 401.564 414.409C395.435 408.517 389.864 402.105 384.917 395.251C384.089 394.098 383.234 392.736 383.604 391.341C385.694 390.781 387.753 390.115 389.772 389.347L389.873 389.419C391.941 390.846 393.442 392.892 394.904 394.899L399.618 401.318C400.458 402.578 401.45 403.738 402.574 404.771C403.967 405.853 405.505 406.748 407.146 407.43C409.362 408.466 411.577 409.502 413.88 410.336C415.368 410.916 417.887 411.145 419.739 411.966Z" fill="black"/>
<path d="M424.09 342.377C423.625 343.46 423.062 344.5 422.406 345.485C416.147 355.656 411.319 366.589 408.049 377.996C407.12 377.794 406.595 379.019 406.601 379.95C406.608 380.882 406.601 382.055 405.712 382.394C405.45 382.492 405.153 382.492 404.898 382.603C404.332 382.85 404.17 383.548 404.089 384.147L403.295 389.79C403.019 391.745 402.776 393.863 403.766 395.59C404.449 396.616 405.335 397.502 406.372 398.196L419.517 408.232C420.056 408.642 420.723 409.079 421.369 408.851C422.844 408.329 421.537 405.775 422.716 404.739C423.497 404.028 424.736 404.563 425.82 404.478C427.234 404.374 428.305 403.116 428.662 401.793C428.913 400.446 428.938 399.069 428.736 397.714C428.647 397.096 428.721 396.466 428.952 395.883C429.353 395.265 429.906 394.753 430.561 394.391C432.842 392.779 434.679 390.651 435.913 388.192C437.147 385.734 437.739 383.021 437.638 380.289C437.531 379.458 437.563 378.615 437.733 377.794C438.007 377.041 438.42 376.344 438.952 375.734C443.726 369.485 447.706 362.702 451.659 355.931C453.935 352.021 456.251 348.053 457.046 343.648C457.115 343.484 457.143 343.307 457.129 343.13C457.115 342.954 457.059 342.783 456.965 342.631C456.871 342.48 456.742 342.351 456.587 342.256C456.433 342.161 456.258 342.102 456.076 342.084C454.104 341.488 452.093 341.022 450.056 340.689C443.867 339.477 437.894 337.607 431.874 335.809C425.854 334.01 425.901 337.672 424.09 342.377Z" fill="#454B69"/>
<path d="M395.625 456.616L405.107 457.723L448.75 361.861L460.521 361.027L481.201 366.866L485.215 481H494.689L490.959 362.695L513.646 363.256L554.131 460.78H562.744L520.164 346.802L518.528 342.41L455.066 340.305L439.248 348.887L439.046 349.382L395.625 456.616Z" fill="#565661"/>
<path opacity="0.1" d="M439.045 349.382C452.682 353.357 466.837 357.697 466.837 357.697C466.837 357.697 479.746 362.057 485.214 357.697C485.903 357.177 486.674 356.765 487.497 356.479C486.787 356.969 486.021 357.378 485.214 357.697L520.164 346.795L518.547 342.41L455.086 340.305L439.268 348.887L439.045 349.382Z" fill="black"/>
<path d="M503.591 330.465L477.753 324.907C477.753 324.907 416.015 336.024 411.422 340.468C411.422 340.468 460.81 350.19 466.264 353.5C471.719 356.811 504.17 360.473 503.591 330.465Z" fill="white"/>
<path d="M407.712 419.792C406.157 422.659 402.325 423.467 398.958 423.512C394.283 423.568 389.64 422.766 385.274 421.147C382.783 420.222 380.392 419.029 377.82 418.351C373.988 417.335 369.739 417.42 366.372 415.38C364.586 414.228 363.111 412.68 362.069 410.864C361.874 410.545 361.685 410.213 361.51 409.874C359.901 406.844 359.153 403.318 360.049 400.047C360.944 396.776 364.197 393.172 367.968 393.224C372.446 393.289 377.786 395.342 382.109 396.404C387.497 397.708 392.884 399.213 397.645 401.969C401.631 404.289 405.153 407.619 407.032 411.685C407.393 412.47 407.69 413.28 407.921 414.109C408.507 415.986 408.642 418.078 407.712 419.792Z" fill="#A26565"/>
<path opacity="0.1" d="M407.712 419.792C406.157 422.659 402.325 423.467 398.958 423.513C394.283 423.569 389.64 422.766 385.275 421.147C382.783 420.222 380.393 419.029 377.82 418.352C373.988 417.335 369.739 417.42 366.372 415.38C364.587 414.228 363.111 412.68 362.069 410.864C361.874 410.545 361.685 410.213 361.51 409.874C362.184 409.926 362.803 409.991 363.14 410.024C367.275 410.408 371.221 411.868 375.167 412.969C380.645 414.5 386.302 415.354 392.002 415.51C396.042 415.621 400.258 415.334 403.787 413.425C404.84 412.782 405.933 412.201 407.059 411.685C407.42 412.47 407.718 413.28 407.948 414.109C408.507 415.986 408.642 418.078 407.712 419.792Z" fill="black"/>
<path d="M436.648 295.889C427.894 294.501 418.978 294.162 410.102 293.824L399.247 293.407C398.475 293.32 397.693 293.412 396.964 293.674C396.337 294.064 395.74 294.5 395.18 294.977C394.089 295.694 392.695 295.772 391.382 295.844C382.067 296.34 372.802 297.503 363.665 299.323C358.951 300.255 354.055 301.474 350.513 304.621C346.769 307.951 345.126 313.027 344.998 317.941C344.87 322.854 346.203 327.683 347.611 332.401C349.402 338.08 350.392 343.968 350.553 349.904C350.49 351.55 350.555 353.199 350.749 354.836C351.062 356.399 351.538 357.928 352.17 359.398L357.126 372.203C357.563 373.323 357.994 374.438 358.473 375.532C358.951 376.627 359.409 377.487 359.819 378.517C360.425 379.925 360.904 381.384 361.382 382.837L364.681 392.866L365.112 394.169C366.304 397.779 367.523 401.455 369.772 404.556C372.021 407.658 375.503 410.161 379.415 410.35C380.678 410.304 381.942 410.336 383.2 410.447C384.272 410.701 385.313 411.065 386.304 411.536C389.242 412.717 392.396 413.313 395.577 413.288C398.506 413.288 401.759 412.5 403.348 410.115C404.224 408.812 404.453 407.209 404.695 405.671C405.119 402.582 405.53 399.356 404.446 396.424C403.772 394.671 402.641 393.166 401.86 391.439C400.769 389.087 400.412 386.487 399.705 384.004C398.175 378.66 395.061 373.867 390.749 370.215C389.217 364.347 388.092 358.386 387.382 352.373C387.283 351.042 387.009 349.728 386.567 348.463C385.779 346.509 384.183 344.925 383.516 342.931C382.89 341.08 383.079 338.943 381.941 337.347C391.415 339.868 400.796 339.301 410.634 339.152C413.785 339.161 416.933 338.987 420.062 338.63C421.521 338.371 422.997 338.219 424.48 338.174C427.523 338.174 430.379 339.477 433.173 340.624C441.072 343.882 449.395 346.443 457.975 346.795C466.83 347.154 475.584 345.14 484.237 343.146C488.042 342.266 491.995 341.315 495.012 338.897C498.029 336.48 499.726 332.12 497.867 328.804C496.453 326.308 493.524 325.083 490.79 324.04C483.221 321.147 475.611 318.325 468.318 314.826C457.18 309.574 448.85 297.844 436.648 295.889Z" fill="#454B69"/>
<path d="M421.039 266.409C419.981 268.625 418.204 270.436 416.89 272.522C414.694 275.954 413.969 280.081 414.87 284.023C415.344 285.972 416.273 287.789 417.586 289.336C418.9 290.882 420.562 292.117 422.446 292.944C424.128 293.592 425.896 294.005 427.699 294.169C430.069 294.449 432.594 294.508 434.688 293.4C436.256 292.49 437.542 291.189 438.412 289.633C440.224 286.701 441.254 283.397 442.197 280.107C443.941 274.033 445.429 267.804 445.214 261.502C445.14 259.332 444.695 256.889 442.837 255.638C441.877 255.101 440.813 254.764 439.712 254.647L430.83 253.109C429.113 252.809 426.116 251.591 424.628 252.79C423.14 253.989 423.025 257.534 422.769 259.196C422.365 261.652 422.116 264.148 421.039 266.409Z" fill="#A1616A"/>
<path d="M529.006 241.204L526.683 260.049C526.202 263.41 525.925 266.796 525.854 270.189C525.854 272.078 525.915 274.177 524.622 275.591C523.99 276.234 523.189 276.7 522.306 276.94C519.484 277.787 516.407 277.031 513.713 275.864C512.137 275.213 510.528 274.268 509.814 272.75C509.399 271.697 509.227 270.57 509.309 269.446C509.309 258.205 510.407 246.482 516.474 236.903C516.992 235.963 517.721 235.148 518.609 234.518C520.292 233.475 522.494 233.769 524.4 234.336C525.572 234.681 528.737 235.065 529.484 236.075C530.231 237.085 529.168 239.907 529.006 241.204Z" fill="#A1616A"/>
<path d="M467.369 173.055C480.758 173.055 491.612 162.553 491.612 149.597C491.612 136.641 480.758 126.138 467.369 126.138C453.98 126.138 443.126 136.641 443.126 149.597C443.126 162.553 453.98 173.055 467.369 173.055Z" fill="#A1616A"/>
<path d="M460.884 184.557C460.797 186.382 460.283 188.164 459.382 189.77C471.759 187.945 484.105 185.912 496.419 183.671C492.334 181.638 489.245 178.124 487.827 173.896C487.157 171.629 486.791 169.288 486.736 166.93C486.541 163.191 486.615 159.444 486.958 155.715C482.648 156.152 478.568 157.716 474.46 159.058C470.33 160.409 466.129 161.546 461.874 162.466C459.82 162.909 457.753 163.287 455.679 163.639C453.254 164.056 452.089 164.05 453.773 166.109C458.291 171.609 461.517 177.2 460.884 184.557Z" fill="#A1616A"/>
<path d="M468.332 181.423C465.133 181.885 461.78 182.407 459.227 184.322C458.256 185.13 457.332 185.989 456.46 186.896C451.389 191.66 444.231 193.576 438.076 196.938C437.072 197.418 436.182 198.095 435.463 198.926C434.79 199.831 434.446 200.985 433.739 201.884C432.917 202.927 431.618 203.578 430.978 204.732C430.338 205.885 430.48 207.11 430.412 208.335C430.258 211.026 429.207 213.581 428.392 216.155C424.655 228.477 426.702 242.22 421.045 253.859C421.306 254.529 421.703 255.141 422.215 255.659C422.727 256.176 423.341 256.588 424.022 256.869C425.445 257.365 426.931 257.674 428.439 257.788L440.971 259.293C442.763 259.508 444.662 259.71 446.298 258.987C444.801 262.98 443.743 267.115 443.14 271.322C442.835 273.895 442.363 276.445 441.726 278.96C440.002 284.694 435.665 289.471 430.527 292.735C429.88 293.063 429.334 293.551 428.944 294.149C428.271 295.453 429.268 296.912 429.975 298.19C432.029 301.891 431.746 306.335 431.719 310.532C431.692 314.728 432.13 319.335 435.16 322.346C436.951 324.125 439.402 325.089 441.786 326.008L461.389 333.586C464.624 334.919 467.961 336.009 471.369 336.845C476.534 337.985 481.901 337.939 487.201 337.718C490.702 337.575 494.199 337.357 497.692 337.066C499.082 337.062 500.447 336.714 501.659 336.056C502.702 335.26 503.504 334.206 503.982 333.007C506.709 327.266 507.625 320.567 511.854 315.758C514.756 312.454 519.261 309.815 519.591 305.494C519.746 303.344 518.756 301.252 518.743 299.095C518.743 296.443 520.177 293.921 520.09 291.276C519.908 286.968 515.712 283.684 515.046 279.422C513.349 268.618 519.019 257.827 522.5 247.433C523.127 245.576 523.935 243.524 525.78 242.729C527.625 241.934 530.224 242.351 530.884 240.591C532.548 236.173 532.945 230.993 532.729 226.294C532.608 223.577 531.612 220.918 531.726 218.194C531.807 216.279 532.44 214.415 532.608 212.506C532.864 209.619 532.076 206.752 531.261 203.963C531.026 202.967 530.673 202.001 530.211 201.082C529.713 200.25 529.126 199.47 528.46 198.756L525.181 194.983C523.645 193.217 522.022 191.386 519.793 190.493C519.073 188.766 516.77 187.574 515.12 186.623C513.457 185.709 511.739 184.893 509.975 184.179L491.43 176.255C490.736 175.917 489.994 175.684 489.228 175.564C488.099 175.528 486.977 175.751 485.955 176.216C480.298 178.386 474.392 180.549 468.332 181.423Z" fill="#1ABC9C"/>
<path d="M448.689 153.676C447.975 151.245 446.15 149.147 445.874 146.632C445.625 144.396 446.642 142.233 447.221 140.057C447.8 137.88 447.78 135.221 445.995 133.775C445.699 133.527 445.322 133.306 445.214 132.941C444.998 132.289 445.679 131.696 445.887 131.038C446.271 129.735 444.608 128.295 445.214 127.043C445.557 126.359 446.419 126.118 447.174 125.903C450.056 125.075 452.978 123.238 453.605 120.39C455.86 121.302 458.265 119.589 459.995 117.927C461.726 116.265 463.854 114.369 466.238 114.871L465.706 115.92C469.381 114.629 473.402 114.585 477.106 115.796H475.975C479.225 115.849 482.376 116.881 484.992 118.748C484.702 118.748 484.675 119.165 484.79 119.4C485.733 121.53 488.157 122.658 490.494 123.186C491.901 123.511 493.43 123.746 494.46 124.724C495.49 125.701 495.511 127.741 494.15 128.21C496.924 129.255 499.551 130.634 501.968 132.315C502.642 132.791 503.403 133.436 503.315 134.27C503.219 134.689 503.079 135.097 502.898 135.489C502.763 136.184 502.812 136.901 503.039 137.574L503.787 140.558C504.608 143.875 505.255 147.87 502.756 150.274C503.692 151.965 504.039 153.903 503.746 155.799C503.454 157.696 502.538 159.451 501.133 160.805C501.332 161.387 501.4 162.003 501.334 162.613C501.269 163.222 501.07 163.812 500.752 164.342C500.434 164.872 500.003 165.331 499.489 165.688C498.974 166.045 498.387 166.293 497.766 166.415C498.595 167.666 497.834 169.452 496.527 170.234C495.221 171.016 493.578 171.022 492.056 170.886C490.534 170.749 488.992 170.416 487.47 170.638C485.255 170.97 483.086 172.43 480.952 171.778C480.156 171.449 479.392 171.052 478.669 170.592C477.174 169.817 475.436 169.641 473.78 169.289C470.956 168.702 468.274 167.596 465.881 166.031C464.294 165.108 463.03 163.746 462.251 162.121C460.77 158.498 463.261 153.747 460.642 150.796C459.106 149.075 456.062 149.049 454.345 150.522C453.49 151.258 453.376 152.809 452.487 153.363C451.247 153.667 449.964 153.772 448.689 153.676Z" fill="#464353"/>
<path opacity="0.1" d="M415.746 340.527C414.789 339.794 413.963 338.913 413.302 337.92C412.638 336.922 412.375 335.724 412.561 334.551C412.298 336.035 412.399 337.557 412.853 338.996C413.308 340.436 414.105 341.752 415.18 342.84C416.871 344.515 420.042 346.157 422.514 345.583C422.164 343.667 417.315 341.817 415.746 340.527Z" fill="black"/>
<path d="M548.959 235.71C548.959 235.71 534.602 227.656 515.652 237.665C496.703 247.675 493.544 306.576 493.544 306.576C493.544 306.576 501.295 366.585 471.41 353.233C471.41 353.233 416.864 336.845 411.403 340.455C411.403 340.455 406.231 340.455 416.568 342.677C426.904 344.899 466.837 357.143 466.837 357.143C466.837 357.143 479.746 361.509 485.214 357.143C490.682 352.777 506.178 357.704 508.191 327.689C509.523 308.775 511.92 289.945 515.369 271.283L520.696 256.002L548.959 235.71Z" fill="#565661"/>
<path d="M550.682 328.517C550.682 328.517 544.366 267.667 554.723 245.713C563.733 226.581 528.891 235.528 519.8 238.135C518.393 238.542 517.166 239.39 516.312 240.546C510.925 247.877 491.598 277.259 497.295 316.572C497.295 316.572 499.591 351.585 485.234 357.137L529.47 343.348C533.059 342.227 536.703 341.295 540.379 340.487C545.066 339.458 552.703 336.532 550.682 328.517Z" fill="white"/>
<path d="M375.072 224.991V226.477H329.543V225.271C330.792 224.818 331.973 224.209 333.059 223.46C334.992 222.12 336.568 220.354 337.654 218.307C338.741 216.26 339.308 213.992 339.308 211.691C339.309 210.489 339.152 209.291 338.843 208.127C338.293 206.031 337.264 204.081 335.833 202.42C334.402 200.759 332.605 199.429 330.574 198.528H374.762C372.731 199.429 370.934 200.759 369.503 202.42C368.072 204.081 367.044 206.031 366.493 208.127C366.186 209.291 366.032 210.489 366.035 211.691C366.034 213.992 366.599 216.26 367.685 218.306C368.771 220.353 370.345 222.12 372.278 223.46C373.151 224.063 374.088 224.576 375.072 224.991Z" fill="#DFE6F5"/>
<path opacity="0.1" d="M374.762 198.528C372.731 199.429 370.934 200.759 369.503 202.42C368.072 204.081 367.044 206.031 366.493 208.127H338.843C338.293 206.031 337.264 204.081 335.833 202.42C334.402 200.759 332.605 199.429 330.574 198.528H374.762Z" fill="black"/>
<path d="M277.416 190.936V199.303C277.416 203.917 280.904 207.664 285.214 207.664H419.16C423.47 207.664 426.965 203.917 426.965 199.303V190.936H277.416Z" fill="#DFE6F5"/>
<path opacity="0.1" d="M375.072 224.991V226.477H329.543V225.271C330.792 224.818 331.973 224.209 333.059 223.46H372.278C373.151 224.063 374.088 224.576 375.072 224.991Z" fill="black"/>
<path d="M387.833 223.922H316.782C315.522 223.922 314.5 224.91 314.5 226.128C314.5 227.346 315.522 228.334 316.782 228.334H387.833C389.094 228.334 390.116 227.346 390.116 226.128C390.116 224.91 389.094 223.922 387.833 223.922Z" fill="#DFE6F5"/>
<path d="M426.965 99.2966C426.965 98.3051 426.763 97.3233 426.371 96.4074C425.978 95.4914 425.403 94.6593 424.679 93.9585C423.954 93.2577 423.093 92.702 422.147 92.3231C421.2 91.9443 420.185 91.7498 419.16 91.7506H285.214C284.189 91.7498 283.175 91.9444 282.228 92.3233C281.282 92.7022 280.422 93.258 279.698 93.9589C278.973 94.6597 278.399 95.4919 278.007 96.4079C277.616 97.3238 277.415 98.3054 277.416 99.2966V192.566H426.965V99.2966Z" fill="#474157"/>
<path d="M422.884 102.666V182.817C422.885 183.305 422.786 183.789 422.594 184.24C422.401 184.692 422.119 185.102 421.762 185.448C421.406 185.793 420.982 186.067 420.516 186.254C420.05 186.442 419.55 186.538 419.046 186.538H285.335C284.83 186.538 284.33 186.442 283.864 186.254C283.398 186.067 282.975 185.793 282.618 185.448C282.261 185.102 281.979 184.692 281.786 184.24C281.594 183.789 281.495 183.305 281.496 182.817V102.666C281.493 102.013 281.669 101.372 282.008 100.808C282.345 100.243 282.83 99.7742 283.414 99.4482C283.998 99.1222 284.66 98.9508 285.335 98.9512H419.046C420.064 98.9512 421.04 99.3425 421.76 100.039C422.48 100.736 422.884 101.68 422.884 102.666Z" fill="#4C4C78"/>
<path d="M352.19 97.0875C353.183 97.0875 353.988 96.3086 353.988 95.3477C353.988 94.3868 353.183 93.6078 352.19 93.6078C351.197 93.6078 350.392 94.3868 350.392 95.3477C350.392 96.3086 351.197 97.0875 352.19 97.0875Z" fill="white"/>
<path d="M352.19 203.943C354.641 203.943 356.628 202.02 356.628 199.649C356.628 197.277 354.641 195.354 352.19 195.354C349.739 195.354 347.752 197.277 347.752 199.649C347.752 202.02 349.739 203.943 352.19 203.943Z" fill="white"/>
<path d="M422.884 102.666H281.51C281.51 101.68 281.914 100.736 282.634 100.039C283.354 99.3425 284.33 98.9512 285.348 98.9512H419.046C420.064 98.9512 421.04 99.3425 421.76 100.039C422.48 100.736 422.884 101.68 422.884 102.666Z" fill="#C8CAD7"/>
<path d="M285.335 101.74C285.866 101.74 286.298 101.323 286.298 100.808C286.298 100.294 285.866 99.8765 285.335 99.8765C284.803 99.8765 284.372 100.294 284.372 100.808C284.372 101.323 284.803 101.74 285.335 101.74Z" fill="#EDEDF4"/>
<path d="M288.217 101.74C288.749 101.74 289.18 101.323 289.18 100.808C289.18 100.294 288.749 99.8765 288.217 99.8765C287.685 99.8765 287.254 100.294 287.254 100.808C287.254 101.323 287.685 101.74 288.217 101.74Z" fill="#EDEDF4"/>
<path d="M291.099 101.74C291.631 101.74 292.062 101.323 292.062 100.808C292.062 100.294 291.631 99.8765 291.099 99.8765C290.567 99.8765 290.136 100.294 290.136 100.808C290.136 101.323 290.567 101.74 291.099 101.74Z" fill="#EDEDF4"/>
</g>
</g>
<defs>
<filter id="filter0_d" x="105.018" y="55.7506" width="663.248" height="461.249" filterUnits="userSpaceOnUse" color-interpolation-filters="sRGB">
<feFlood flood-opacity="0" result="BackgroundImageFix"/>
<feColorMatrix in="SourceAlpha" type="matrix" values="0 0 0 0 0 0 0 0 0 0 0 0 0 0 0 0 0 0 127 0"/>
<feOffset/>
<feGaussianBlur stdDeviation="18"/>
<feColorMatrix type="matrix" values="0 0 0 0 0 0 0 0 0 0 0 0 0 0 0 0 0 0 0.19 0"/>
<feBlend mode="normal" in2="BackgroundImageFix" result="effect1_dropShadow"/>
<feBlend mode="normal" in="SourceGraphic" in2="effect1_dropShadow" result="shape"/>
</filter>
<linearGradient id="paint0_linear" x1="260.237" y1="304.797" x2="261.799" y2="304.797" gradientUnits="userSpaceOnUse">
<stop stop-color="#808080" stop-opacity="0.25"/>
<stop offset="0.54" stop-color="#808080" stop-opacity="0.12"/>
<stop offset="1" stop-color="#808080" stop-opacity="0.1"/>
</linearGradient>
<clipPath id="clip0">
<rect width="761" height="481" fill="white"/>
</clipPath>
</defs>
</svg>
