<svg width="231" height="218" viewBox="0 0 231 218" fill="none" xmlns="http://www.w3.org/2000/svg">
<g filter="url(#filter0_d)">
<g clip-path="url(#clip0)">
<rect x="50" y="67.8228" width="110.758" height="110.758" rx="8.51985" transform="rotate(-11.3634 50 67.8228)" fill="#FED330"/>
<path d="M49.6638 102.575L69.5189 120.302L92.5138 106.897L81.79 131.258L101.645 148.985L75.1624 146.314L64.4385 170.675L58.7951 144.663L32.3123 141.993L55.3072 128.587L49.6638 102.575Z" fill="#F7B731"/>
<path d="M89.6219 121.294L96.6914 119.873L101.465 143.626C101.904 145.81 101.805 147.84 101.169 149.717C100.545 151.575 99.4455 153.136 97.8691 154.401C96.2927 155.666 94.3969 156.52 92.1818 156.966C88.5529 157.695 85.5404 157.344 83.1444 155.913C80.7453 154.467 79.2063 152.055 78.5275 148.677L85.6441 147.247C85.9819 148.928 86.5848 150.098 87.4528 150.757C88.3207 151.416 89.5166 151.593 91.0405 151.287C92.3916 151.015 93.3745 150.335 93.9895 149.247C94.6044 148.159 94.7398 146.759 94.3957 145.047L89.6219 121.294ZM125.625 140.389C125.357 139.053 124.68 138.127 123.596 137.61C122.508 137.076 120.66 136.663 118.051 136.37C115.439 136.062 113.341 135.666 111.757 135.184C107.438 133.861 104.92 131.417 104.203 127.851C103.831 125.997 104.018 124.244 104.764 122.59C105.523 120.917 106.794 119.477 108.578 118.268C110.378 117.057 112.495 116.206 114.93 115.717C117.381 115.224 119.655 115.233 121.751 115.744C123.845 116.238 125.58 117.189 126.958 118.595C128.351 119.999 129.255 121.73 129.668 123.788L122.599 125.208C122.283 123.637 121.544 122.519 120.38 121.854C119.214 121.173 117.735 121.013 115.944 121.373C114.216 121.72 112.947 122.359 112.137 123.29C111.324 124.205 111.038 125.26 111.277 126.454C111.502 127.569 112.247 128.392 113.514 128.922C114.797 129.449 116.596 129.822 118.913 130.043C123.177 130.445 126.409 131.356 128.607 132.778C130.805 134.199 132.172 136.245 132.709 138.916C133.306 141.885 132.651 144.444 130.746 146.592C128.837 148.725 125.982 150.173 122.18 150.937C119.541 151.467 117.041 151.471 114.68 150.949C112.316 150.41 110.392 149.416 108.908 147.965C107.439 146.512 106.482 144.677 106.036 142.462L113.13 141.037C113.89 144.823 116.533 146.261 121.058 145.352C122.738 145.014 123.982 144.413 124.789 143.548C125.593 142.667 125.872 141.614 125.625 140.389Z" fill="white"/>
<circle cx="153.305" cy="75.9321" r="33.2274" transform="rotate(-11.3634 153.305 75.9321)" fill="#F7B731"/>
<rect x="24.1431" y="32.8511" width="68.1588" height="68.1588" transform="rotate(-11.3634 24.1431 32.8511)" fill="#F7B731"/>
<path d="M146.313 118.836L209.902 170.452L133.407 199.713L146.313 118.836Z" fill="#F7B731"/>
</g>
</g>
<defs>
<filter id="filter0_d" x="0" y="0" width="230.41" height="230.41" filterUnits="userSpaceOnUse" color-interpolation-filters="sRGB">
<feFlood flood-opacity="0" result="BackgroundImageFix"/>
<feColorMatrix in="SourceAlpha" type="matrix" values="0 0 0 0 0 0 0 0 0 0 0 0 0 0 0 0 0 0 127 0"/>
<feOffset dy="4"/>
<feGaussianBlur stdDeviation="25"/>
<feColorMatrix type="matrix" values="0 0 0 0 0 0 0 0 0 0 0 0 0 0 0 0 0 0 0.25 0"/>
<feBlend mode="normal" in2="BackgroundImageFix" result="effect1_dropShadow"/>
<feBlend mode="normal" in="SourceGraphic" in2="effect1_dropShadow" result="shape"/>
</filter>
<clipPath id="clip0">
<rect x="50" y="67.8228" width="110.758" height="110.758" rx="8.51985" transform="rotate(-11.3634 50 67.8228)" fill="white"/>
</clipPath>
</defs>
</svg>
