<svg width="112" height="112" viewBox="0 0 112 112" fill="none" xmlns="http://www.w3.org/2000/svg">
<g clip-path="url(#clip0)">
<rect x="0.825928" y="0.825684" width="110.758" height="110.758" rx="8.51985" fill="#FED330"/>
<path d="M-6.35104 34.8306L9.6221 56.1222L34.8076 47.5103L19.494 69.2811L35.4672 90.5727L10.0298 82.7362L-5.28378 104.507L-5.69144 77.893L-31.1289 70.0565L-5.94338 61.4446L-6.35104 34.8306Z" fill="#F7B731"/>
<path d="M29.1357 61.055H36.3465V85.2834C36.3465 87.5107 35.8498 89.4817 34.8563 91.1962C33.8788 92.8948 32.4927 94.2088 30.698 95.1381C28.9034 96.0675 26.8763 96.5322 24.6169 96.5322C20.9154 96.5322 18.031 95.5948 15.9639 93.72C13.8968 91.8292 12.8633 89.1612 12.8633 85.716H20.1222C20.1222 87.4306 20.4827 88.6965 21.2038 89.5137C21.9249 90.3309 23.0626 90.7395 24.6169 90.7395C25.995 90.7395 27.0926 90.2668 27.9099 89.3214C28.7271 88.376 29.1357 87.03 29.1357 85.2834V61.055ZM60.671 86.8697C60.671 85.5077 60.1903 84.4661 59.2288 83.7451C58.2674 83.008 56.5368 82.2388 54.037 81.4376C51.5373 80.6204 49.5583 79.8192 48.1001 79.034C44.1262 76.8868 42.1392 73.9944 42.1392 70.357C42.1392 68.4661 42.668 66.7836 43.7256 65.3094C44.7992 63.8192 46.3295 62.6574 48.3165 61.8242C50.3195 60.9909 52.5628 60.5743 55.0466 60.5743C57.5463 60.5743 59.7736 61.031 61.7286 61.9444C63.6835 62.8417 65.1978 64.1156 66.2714 65.7661C67.361 67.4166 67.9058 69.2914 67.9058 71.3905H60.695C60.695 69.7881 60.1903 68.5463 59.1808 67.6649C58.1712 66.7676 56.7531 66.3189 54.9264 66.3189C53.1637 66.3189 51.7937 66.6955 50.8162 67.4486C49.8387 68.1857 49.35 69.1632 49.35 70.381C49.35 71.5187 49.9189 72.4722 51.0566 73.2413C52.2103 74.0105 53.9008 74.7315 56.1282 75.4046C60.2303 76.6384 63.2188 78.1687 65.0936 79.9954C66.9684 81.8222 67.9058 84.0976 67.9058 86.8217C67.9058 89.8502 66.7601 92.2298 64.4687 93.9604C62.1773 95.6749 59.0926 96.5322 55.2148 96.5322C52.5228 96.5322 50.0711 96.0435 47.8598 95.066C45.6485 94.0725 43.9579 92.7185 42.7882 91.0039C41.6344 89.2894 41.0576 87.3024 41.0576 85.043H48.2924C48.2924 88.9048 50.5999 90.8357 55.2148 90.8357C56.9294 90.8357 58.2674 90.4912 59.2288 89.8021C60.1903 89.0971 60.671 88.1196 60.671 86.8697Z" fill="white"/>
<circle cx="100.508" cy="29.1305" r="33.2274" fill="#F7B731"/>
<rect x="-17.6338" y="-38.5552" width="68.1588" height="68.1588" fill="#F7B731"/>
<path d="M85.1999 69.8157L137.372 132.949L56.6112 146.564L85.1999 69.8157Z" fill="#F7B731"/>
</g>
<defs>
<clipPath id="clip0">
<rect x="0.825928" y="0.825684" width="110.758" height="110.758" rx="8.51985" fill="white"/>
</clipPath>
</defs>
</svg>
