<svg width="215" height="183" viewBox="0 0 215 183" fill="none" xmlns="http://www.w3.org/2000/svg">
<path opacity="0.2" d="M5.86985 96.4033L95.1756 125.847L88.7005 143.134L47.9426 129.535C45.1527 128.549 42.5374 127.125 40.1944 125.318L5.3069 97.4682C5.19586 97.3789 5.11937 97.2538 5.09055 97.1142C5.06174 96.9747 5.0824 96.8295 5.149 96.7035C5.21559 96.5775 5.32395 96.4787 5.45549 96.4239C5.58704 96.3691 5.73353 96.3618 5.86985 96.4033Z" fill="black"/>
<path d="M6.02732 96.0515L96.0368 125.81L89.5616 143.097L49.1166 128.789C46.3271 127.807 43.7113 126.388 41.3671 124.585L5.46269 97.1201C5.34842 97.0318 5.26901 96.9059 5.23844 96.7647C5.20788 96.6235 5.22812 96.4761 5.29561 96.3484C5.36309 96.2207 5.47348 96.1208 5.60734 96.0665C5.7412 96.0122 5.88992 96.0069 6.02732 96.0515Z" fill="#535461"/>
<path opacity="0.3" d="M26.1622 105.8L73.7555 121.536L70.3323 130.675L48.9458 123.114C47.4706 122.593 46.0876 121.84 44.8485 120.885L25.8653 106.362C25.8063 106.315 25.7655 106.249 25.75 106.175C25.7346 106.101 25.7454 106.024 25.7806 105.958C25.8158 105.891 25.8733 105.839 25.9429 105.81C26.0126 105.781 26.0902 105.778 26.1622 105.8Z" fill="white"/>
<path d="M117.698 32.617L206.495 70.7561C207.582 71.3797 208.534 72.2139 209.295 73.2098C210.056 74.2058 210.611 75.3435 210.927 76.5564C211.243 77.7693 211.313 79.033 211.135 80.2736C210.957 81.5142 210.532 82.7067 209.888 83.7814L162.594 162.605C161.459 164.499 159.695 165.935 157.61 166.661C155.524 167.387 153.25 167.358 151.184 166.579L58.5293 131.804C57.2187 131.309 56.0348 130.528 55.0639 129.518C54.093 128.508 53.3594 127.295 52.9165 125.966C52.4736 124.636 52.3326 123.225 52.5037 121.835C52.6749 120.444 53.1538 119.11 53.9057 117.928L105.062 35.7386C106.363 33.6932 108.402 32.2276 110.755 31.6463C113.108 31.065 115.595 31.4126 117.698 32.617Z" fill="#535461"/>
<path opacity="0.3" d="M137.775 103.488C140.096 104.527 142.82 103.487 143.859 101.166C144.898 98.845 143.858 96.121 141.537 95.082C139.216 94.043 136.492 95.0824 135.453 97.4036C134.414 99.7248 135.453 102.449 137.775 103.488Z" fill="white"/>
</svg>
