<svg width="186" height="201" viewBox="0 0 186 201" fill="none" xmlns="http://www.w3.org/2000/svg">
<path d="M16.3681 51.0753L35.5698 128.598L120.81 77.1892L107.814 5.20861L16.3681 51.0753Z" fill="#3F3D56"/>
<path d="M20.2791 52.5555L38.3186 121.335L115.994 74.7278L105.564 9.46686L20.2791 52.5555Z" fill="white"/>
<path d="M38.9974 127.979L35.5697 128.598L35.4185 132.372L90.9665 189.8L92.8844 187.869L91.6158 183.02L38.9974 127.979Z" fill="#B3B3B3"/>
<path d="M35.2223 127.828L92.1593 188.335L179.091 132.457L120.81 77.1893L35.2223 127.828Z" fill="#D0CDE1"/>
<path d="M46.5028 119.962L48.239 123.812L113.305 85.2067L110.799 81.7034L46.5028 119.962Z" fill="#3F3D56"/>
<path d="M51.5151 126.968L75.8389 152.141L142.098 112.071L116.929 89.1326L51.5151 126.968Z" fill="#3F3D56"/>
</svg>
