<svg width="196" height="164" viewBox="0 0 196 164" fill="none" xmlns="http://www.w3.org/2000/svg">
<path d="M83.6151 150.174L194.2 132.475C194.445 132.436 194.677 132.339 194.877 132.192C195.077 132.045 195.238 131.852 195.348 131.63C195.458 131.408 195.513 131.162 195.508 130.914C195.503 130.666 195.438 130.423 195.32 130.205L169.757 86.9847L95.2919 99.0022L81.4762 147.915C81.4038 148.215 81.4076 148.529 81.4873 148.828C81.567 149.126 81.7201 149.4 81.9325 149.625C82.145 149.849 82.4102 150.017 82.7041 150.113C82.9979 150.209 83.311 150.23 83.6151 150.174Z" fill="#DFE6F5"/>
<path opacity="0.15" d="M83.6151 150.174L194.2 132.475C194.445 132.436 194.677 132.339 194.877 132.192C195.077 132.045 195.238 131.852 195.348 131.63C195.458 131.408 195.513 131.162 195.508 130.914C195.503 130.666 195.438 130.423 195.32 130.205L169.757 86.9847L95.2919 99.0022L81.4762 147.915C81.4038 148.215 81.4076 148.529 81.4873 148.828C81.567 149.126 81.7201 149.4 81.9325 149.625C82.145 149.849 82.4102 150.017 82.7041 150.113C82.9979 150.209 83.311 150.23 83.6151 150.174Z" fill="black"/>
<path d="M82.3772 148.4L194.119 130.595L170.689 87.4992C170.311 86.8007 169.724 86.237 169.012 85.8857C168.299 85.5345 167.495 85.4131 166.71 85.5382L94.9273 97.1308L82.3772 148.4Z" fill="#DFE6F5"/>
<path d="M89.6947 136.359L97.7223 104.591C97.8939 103.92 98.2542 103.313 98.7606 102.841C99.2669 102.369 99.8981 102.053 100.579 101.929L133.735 95.9271C134.674 95.757 135.643 95.9671 136.428 96.5112C137.212 97.0553 137.748 97.8888 137.919 98.8283L143.659 130.544C143.746 131.024 143.734 131.516 143.624 131.992C143.515 132.467 143.31 132.916 143.022 133.31C142.735 133.704 142.37 134.035 141.951 134.284C141.532 134.534 141.066 134.695 140.582 134.759L93.6481 140.807C93.0663 140.883 92.475 140.815 91.9255 140.609C91.376 140.404 90.8851 140.067 90.4953 139.629C90.1056 139.19 89.829 138.663 89.6894 138.093C89.5499 137.524 89.5517 136.928 89.6947 136.359Z" fill="#4C4C56"/>
<path d="M154.413 120.804L151.951 103.951C151.845 103.278 152.006 102.59 152.399 102.034C152.793 101.478 153.389 101.098 154.059 100.975L163.857 99.2011C164.46 99.0952 165.08 99.2048 165.61 99.5106C166.14 99.8164 166.545 100.299 166.755 100.874L172.651 117.01C172.78 117.365 172.831 117.745 172.799 118.123C172.768 118.5 172.654 118.866 172.467 119.195C172.28 119.525 172.023 119.809 171.715 120.029C171.407 120.25 171.055 120.4 170.683 120.471L157.446 122.988C157.103 123.049 156.751 123.041 156.411 122.963C156.072 122.886 155.751 122.741 155.468 122.537C155.185 122.334 154.946 122.075 154.765 121.778C154.584 121.48 154.464 121.149 154.413 120.804Z" fill="#D1D9EC"/>
<path d="M4.88289 35.3624L41.2662 25.5936C41.7931 25.4247 42.3605 25.4316 42.8832 25.613C43.4058 25.7945 43.8554 26.1409 44.1642 26.6L93.4075 99.3433L81.8334 146.639C82.1961 145.155 84.5827 155.759 78.4925 147.296L2.01203 41.53C0.98622 40.1156 3.18872 35.894 4.88289 35.3624Z" fill="#4C4C56"/>
<path opacity="0.15" d="M4.88289 35.3624L41.2662 25.5936C41.7931 25.4247 42.3605 25.4316 42.8832 25.613C43.4058 25.7945 43.8554 26.1409 44.1642 26.6L93.4075 99.3433L81.8334 146.639C82.1961 145.155 84.5827 155.759 78.4925 147.296L2.01203 41.53C0.98622 40.1156 3.18872 35.894 4.88289 35.3624Z" fill="black"/>
<path d="M4.88298 35.3624L42.8027 23.3781C43.3295 23.2092 43.897 23.216 44.4197 23.3975C44.9423 23.579 45.3919 23.9254 45.7007 24.3844L94.9524 97.1263L82.4023 148.396L3.5485 39.3145C3.3076 38.9843 3.14949 38.6011 3.08747 38.1971C3.02545 37.7931 3.06134 37.3801 3.1921 36.9928C3.32287 36.6056 3.54469 36.2554 3.83893 35.9716C4.13317 35.6879 4.49122 35.479 4.88298 35.3624Z" fill="#4C4C56"/>
<path d="M15.5794 39.1693L42.852 29.7177C43.397 29.5275 43.9904 29.5276 44.5354 29.718C45.0803 29.9083 45.5447 30.2778 45.8527 30.766L88.2642 97.3509C88.4378 97.6228 88.5527 97.9279 88.6014 98.2467C88.6502 98.5656 88.6318 98.8911 88.5474 99.2025L80.1797 129.761C80.0677 130.185 79.8371 130.569 79.5148 130.866C79.1926 131.164 78.7922 131.364 78.3606 131.442C77.9289 131.52 77.4839 131.473 77.0778 131.307C76.6717 131.142 76.3213 130.863 76.0677 130.505L14.3241 43.0811C14.0905 42.7568 13.9363 42.3823 13.8738 41.9875C13.8114 41.5928 13.8425 41.1889 13.9646 40.8084C14.0867 40.4279 14.2964 40.0813 14.5769 39.7966C14.8574 39.512 15.2008 39.2971 15.5794 39.1693Z" fill="white"/>
</svg>
