<svg width="165" height="162" viewBox="0 0 165 162" fill="none" xmlns="http://www.w3.org/2000/svg">
<path d="M64.7304 13.5548L145.346 37.7777C146.016 37.9791 146.612 38.3738 147.059 38.9124C147.506 39.451 147.784 40.1094 147.859 40.8054L154.758 105.307C154.789 105.597 154.748 105.889 154.638 106.159C154.529 106.428 154.354 106.666 154.13 106.852C153.906 107.037 153.639 107.165 153.354 107.222C153.069 107.28 152.774 107.265 152.495 107.181L69.9402 81.8311L62.3073 15.5826C62.2714 15.2714 62.3134 14.9562 62.4295 14.6652C62.5456 14.3743 62.7321 14.1167 62.9724 13.9157C63.2126 13.7146 63.499 13.5764 63.8059 13.5134C64.1127 13.4504 64.4304 13.4647 64.7304 13.5548Z" fill="#D0CDE1"/>
<path d="M65.8111 14.7041L144.447 38.332C145.1 38.5285 145.682 38.9135 146.118 39.4388C146.554 39.9642 146.825 40.6065 146.898 41.2853L153.627 104.203C153.658 104.485 153.617 104.77 153.51 105.033C153.404 105.296 153.233 105.529 153.015 105.71C152.796 105.891 152.536 106.015 152.258 106.071C151.98 106.127 151.692 106.113 151.42 106.031L70.8929 81.3033L63.4475 16.6821C63.4125 16.3785 63.4535 16.071 63.5667 15.7872C63.6799 15.5034 63.8619 15.2522 64.0962 15.0561C64.3306 14.86 64.6099 14.7252 64.9093 14.6637C65.2086 14.6023 65.5185 14.6162 65.8111 14.7041Z" fill="#3F3D56"/>
<path d="M69.8255 18.9724L141.106 40.3904C141.699 40.5685 142.226 40.9175 142.621 41.3937C143.016 41.8699 143.262 42.4521 143.328 43.0674L149.428 100.1C149.456 100.356 149.419 100.615 149.322 100.853C149.225 101.091 149.071 101.302 148.873 101.466C148.675 101.63 148.439 101.743 148.187 101.793C147.935 101.844 147.674 101.832 147.428 101.757L74.432 79.3426L67.6829 20.7653C67.6512 20.4902 67.6884 20.2115 67.791 19.9542C67.8937 19.6969 68.0586 19.4692 68.271 19.2914C68.4834 19.1137 68.7367 18.9915 69.008 18.9358C69.2793 18.8801 69.5602 18.8927 69.8255 18.9724Z" fill="white"/>
<path d="M18.4772 123.211L99.2069 147.528C99.9581 147.754 100.752 147.8 101.524 147.663C102.297 147.526 103.026 147.21 103.654 146.74L153.625 109.247C154.155 108.49 153.898 107.553 153.567 106.873C153.406 106.544 153.211 106.233 152.985 105.944L144.818 103.326L76.4446 83.0093L72.3386 81.6755C71.2518 81.3237 70.0958 81.2409 68.97 81.434C67.8441 81.6272 66.782 82.0907 65.8746 82.7846L17.8107 119.555C17.5048 119.788 17.2693 120.101 17.1304 120.46C16.9914 120.819 16.9544 121.209 17.0233 121.587C17.0923 121.965 17.2646 122.317 17.5212 122.604C17.7778 122.891 18.1086 123.101 18.4772 123.211Z" fill="#D0CDE1"/>
<path opacity="0.1" d="M18.4772 123.211L99.2069 147.528C99.9581 147.753 100.752 147.8 101.524 147.663C102.297 147.526 103.026 147.21 103.654 146.74L153.625 109.246C154.156 108.49 153.898 107.552 153.567 106.873L103.862 144.919C103.255 145.383 102.547 145.697 101.796 145.836C101.045 145.975 100.272 145.934 99.5396 145.716L16.9898 121.24C16.9943 121.685 17.1412 122.116 17.409 122.471C17.6767 122.825 18.0511 123.085 18.4772 123.211Z" fill="black"/>
<path opacity="0.1" d="M90.8389 122.031L64.6872 114.114C64.1607 113.955 63.6036 113.924 63.0629 114.026C62.5222 114.127 62.0139 114.357 61.5809 114.697L48.9557 124.589C48.8099 124.703 48.6982 124.855 48.6329 125.029C48.5675 125.202 48.5511 125.39 48.5853 125.572C48.6196 125.755 48.7031 125.924 48.827 126.062C48.9508 126.2 49.1101 126.301 49.2875 126.354L75.9473 134.4C76.3899 134.534 76.8587 134.556 77.3122 134.466C77.7656 134.375 78.1898 134.174 78.5473 133.881L91.1512 123.542C91.2741 123.441 91.3671 123.308 91.4201 123.159C91.473 123.009 91.4841 122.847 91.4519 122.692C91.4197 122.536 91.3456 122.392 91.2376 122.276C91.1295 122.159 90.9916 122.074 90.8389 122.031Z" fill="black"/>
<path opacity="0.1" d="M147.05 110.06L123.616 128.333C123.347 128.543 123.031 128.685 122.694 128.748C122.358 128.81 122.012 128.791 121.685 128.692L42.1679 104.596C41.9439 104.528 41.7432 104.399 41.5883 104.224C41.4333 104.048 41.3303 103.833 41.2908 103.602C41.2513 103.371 41.2768 103.134 41.3644 102.917C41.4521 102.7 41.5985 102.512 41.7871 102.373L64.8313 85.4451C65.1786 85.19 65.5804 85.0191 66.0051 84.9461C66.4298 84.873 66.8657 84.8997 67.2783 85.024L146.853 109.009C146.959 109.041 147.054 109.101 147.127 109.183C147.201 109.266 147.251 109.366 147.271 109.475C147.291 109.583 147.281 109.695 147.242 109.798C147.203 109.901 147.137 109.992 147.05 110.06Z" fill="black"/>
</svg>
