<svg width="205" height="183" viewBox="0 0 205 183" fill="none" xmlns="http://www.w3.org/2000/svg">
<path d="M102.899 130.559L104.859 158.985L102.974 158.258L98.9635 129.37L102.899 130.559Z" fill="#4C4C56"/>
<path opacity="0.1" d="M102.899 130.559L104.859 158.985L102.974 158.258L98.9635 129.37L102.899 130.559Z" fill="black"/>
<path d="M93.6134 154.65L104.859 158.985L103.888 161.504L92.5325 157.455L93.6134 154.65Z" fill="#4C4C56"/>
<path opacity="0.1" d="M93.6134 154.65L104.859 158.985L103.888 161.504L92.5325 157.455L93.6134 154.65Z" fill="black"/>
<path d="M49.5908 8.19291L17.1671 92.3208C16.5289 93.9767 16.5747 95.8184 17.2943 97.4406C18.014 99.0627 19.3485 100.333 21.0044 100.971L161.233 155.016C162.058 155.334 162.939 155.485 163.823 155.459C164.707 155.433 165.577 155.231 166.382 154.864C167.186 154.498 167.91 153.975 168.511 153.325C169.111 152.676 169.576 151.913 169.878 151.082L200.739 66.2674C201.335 64.63 201.263 62.8245 200.541 61.2389C199.82 59.6533 198.504 58.4142 196.879 57.788L58.2408 4.35562C57.4209 4.03962 56.5468 3.8882 55.6683 3.91002C54.7899 3.93184 53.9244 4.12648 53.1211 4.4828C52.3179 4.83912 51.5927 5.35017 50.987 5.98675C50.3812 6.62333 49.9068 7.37298 49.5908 8.19291Z" fill="#4C4C56"/>
<path opacity="0.1" d="M49.5908 8.19291L17.1671 92.3208C16.5289 93.9767 16.5747 95.8184 17.2943 97.4406C18.014 99.0627 19.3485 100.333 21.0044 100.971L161.233 155.016C162.058 155.334 162.939 155.485 163.823 155.459C164.707 155.433 165.577 155.231 166.382 154.864C167.186 154.498 167.91 153.975 168.511 153.325C169.111 152.676 169.576 151.913 169.878 151.082L200.739 66.2674C201.335 64.63 201.263 62.8245 200.541 61.2389C199.82 59.6533 198.504 58.4142 196.879 57.788L58.2408 4.35562C57.4209 4.03962 56.5468 3.8882 55.6683 3.91002C54.7899 3.93184 53.9244 4.12648 53.1211 4.4828C52.3179 4.83912 51.5927 5.35017 50.987 5.98675C50.3812 6.62333 49.9068 7.37298 49.5908 8.19291Z" fill="black"/>
<path d="M44.5334 6.24374L12.1097 90.3716C11.4715 92.0275 11.5173 93.8692 12.2369 95.4914C12.9566 97.1136 14.2911 98.3834 15.947 99.0216L156.176 153.067C157 153.385 157.88 153.535 158.764 153.509C159.647 153.483 160.517 153.28 161.321 152.913C162.125 152.547 162.849 152.023 163.448 151.373C164.047 150.723 164.511 149.961 164.811 149.129L195.673 64.3147C196.267 62.6789 196.197 60.8752 195.477 59.2906C194.757 57.706 193.444 56.4668 191.821 55.8388L53.2202 2.42064C52.399 2.09859 51.5223 1.94208 50.6405 1.96009C49.7586 1.9781 48.889 2.17027 48.0817 2.52558C47.2744 2.88088 46.5453 3.39228 45.9363 4.03039C45.3274 4.66849 44.8506 5.4207 44.5334 6.24374Z" fill="#4C4C56"/>
<path d="M48.0235 13.6299L19.4769 87.6982C18.8386 89.3541 18.8844 91.1957 19.604 92.8179C20.3237 94.4401 21.6582 95.7099 23.3141 96.3481L153.161 146.392C154.807 147.027 156.638 146.981 158.251 146.266C159.863 145.551 161.126 144.224 161.76 142.578L190.339 68.4267C190.97 66.7812 190.923 64.9524 190.207 63.3419C189.491 61.7313 188.165 60.4707 186.52 59.8369L56.6734 9.79263C55.0175 9.15443 53.1759 9.20018 51.5537 9.91981C49.9316 10.6394 48.6617 11.974 48.0235 13.6299Z" fill="white"/>
<path d="M71.9357 119.016L75.1125 147.52L102.974 158.258L99.5158 125.717L71.9357 119.016Z" fill="#4C4C56"/>
<path d="M52.9608 138.983L49.93 140.708L92.6422 157.17L93.6133 154.65L52.9608 138.983Z" fill="#4C4C56"/>
</svg>
