<svg width="38" height="46" viewBox="0 0 38 46" fill="none" xmlns="http://www.w3.org/2000/svg">
<g clip-path="url(#clip0)">
<path d="M19.044 37.2452C29.4305 37.2452 37.8504 28.9075 37.8504 18.6226C37.8504 8.33761 29.4305 0 19.044 0C8.65753 0 0.237633 8.33761 0.237633 18.6226C0.237633 28.9075 8.65753 37.2452 19.044 37.2452Z" fill="#6078FF"/>
<path d="M36.3618 12.7737C34.4013 8.66828 30.1172 4.6 27.1401 5.44086C25.8452 5.81183 24.5019 7.18441 22.2025 21.2317C18.8261 41.7957 20.7745 44.6398 22.4083 45.5425C22.8197 45.7651 23.1586 45.8516 23.4127 45.8764C29.8509 46.779 42.449 25.5597 36.3618 12.7737Z" fill="#6078FF"/>
<path d="M1.61725 12.7737C3.57776 8.66828 7.86184 4.6 10.8389 5.44086C12.1339 5.81183 13.4772 7.18441 15.7765 21.2317C19.153 41.7957 17.2046 44.6398 15.5708 45.5425C15.1593 45.7651 14.8205 45.8516 14.5663 45.8764C8.12808 46.779 -4.47001 25.5597 1.61725 12.7737Z" fill="#6078FF"/>
<path d="M4.94527 9.44731C7.11748 9.44731 8.87839 7.64802 8.87839 5.42849C8.87839 3.20896 7.11748 1.40968 4.94527 1.40968C2.77307 1.40968 1.01215 3.20896 1.01215 5.42849C1.01215 7.64802 2.77307 9.44731 4.94527 9.44731Z" fill="#6078FF"/>
<path d="M32.8402 9.44731C35.0124 9.44731 36.7733 7.64802 36.7733 5.42849C36.7733 3.20896 35.0124 1.40968 32.8402 1.40968C30.6679 1.40968 28.9071 3.20896 28.9071 5.42849C28.9071 7.64802 30.6679 9.44731 32.8402 9.44731Z" fill="#6078FF"/>
<path d="M18.9713 36.4909C28.8432 36.4909 36.846 28.7457 36.846 19.1914C36.846 9.63716 28.8432 1.89194 18.9713 1.89194C9.09955 1.89194 1.09686 9.63716 1.09686 19.1914C1.09686 28.7457 9.09955 36.4909 18.9713 36.4909Z" fill="white"/>
<path d="M25.6032 26.4005C29.1121 26.4005 31.9567 23.494 31.9567 19.9086C31.9567 16.3232 29.1121 13.4167 25.6032 13.4167C22.0943 13.4167 19.2497 16.3232 19.2497 19.9086C19.2497 23.494 22.0943 26.4005 25.6032 26.4005Z" fill="#6078FF"/>
<path d="M24.1269 23.6306C26.0116 23.6306 27.5396 22.0694 27.5396 20.1435C27.5396 18.2177 26.0116 16.6564 24.1269 16.6564C22.242 16.6564 20.7141 18.2177 20.7141 20.1435C20.7141 22.0694 22.242 23.6306 24.1269 23.6306Z" fill="white"/>
<path d="M23.8121 22.3323C24.9952 22.3323 25.9543 21.3523 25.9543 20.1435C25.9543 18.9348 24.9952 17.9548 23.8121 17.9548C22.6291 17.9548 21.6701 18.9348 21.6701 20.1435C21.6701 21.3523 22.6291 22.3323 23.8121 22.3323Z" fill="#6078FF"/>
<path d="M12.5211 22.3323C13.7041 22.3323 14.6632 21.3523 14.6632 20.1435C14.6632 18.9348 13.7041 17.9548 12.5211 17.9548C11.3381 17.9548 10.379 18.9348 10.379 20.1435C10.379 21.3523 11.3381 22.3323 12.5211 22.3323Z" fill="#6078FF"/>
<path d="M22.5173 21.3306C23.1389 21.3306 23.6428 20.8157 23.6428 20.1806C23.6428 19.5455 23.1389 19.0306 22.5173 19.0306C21.8956 19.0306 21.3918 19.5455 21.3918 20.1806C21.3918 20.8157 21.8956 21.3306 22.5173 21.3306Z" fill="white"/>
</g>
<defs>
<clipPath id="clip0">
<rect width="38" height="46" fill="white"/>
</clipPath>
</defs>
</svg>
