<svg width="203" height="64" viewBox="0 0 203 64" fill="none" xmlns="http://www.w3.org/2000/svg">
<path d="M33.8564 38.1011C33.555 42.2677 32.0124 45.5479 29.2287 47.9415C26.4628 50.3351 22.8103 51.5319 18.2713 51.5319C13.3067 51.5319 9.39716 49.8652 6.54255 46.5319C3.70567 43.1808 2.28723 38.5887 2.28723 32.7553V30.3883C2.28723 26.6649 2.94326 23.3847 4.25532 20.5479C5.56738 17.711 7.43794 15.539 9.86702 14.0319C12.3138 12.5071 15.1507 11.7447 18.3777 11.7447C22.8457 11.7447 26.445 12.9415 29.1755 15.3351C31.906 17.7287 33.484 21.0886 33.9096 25.4149H25.9309C25.7358 22.9149 25.0355 21.1064 23.8298 19.9894C22.6418 18.8546 20.8245 18.2872 18.3777 18.2872C15.7181 18.2872 13.7234 19.2447 12.3936 21.1596C11.0816 23.0567 10.4078 26.0089 10.3723 30.016V32.9415C10.3723 37.1259 11.0018 40.1844 12.2606 42.117C13.5372 44.0496 15.5408 45.016 18.2713 45.016C20.7358 45.016 22.5709 44.4574 23.7766 43.3404C25 42.2057 25.7004 40.4592 25.8777 38.1011H33.8564ZM54.7606 29.4308C53.7145 29.289 52.7926 29.2181 51.9947 29.2181C49.0869 29.2181 47.1809 30.2021 46.2766 32.1702V51H38.5904V22.2234H45.8511L46.0638 25.6543C47.6064 23.0124 49.7429 21.6915 52.4734 21.6915C53.3245 21.6915 54.1223 21.8067 54.867 22.0372L54.7606 29.4308ZM71.1968 51.5319C66.977 51.5319 63.5372 50.2376 60.8777 47.6489C58.2358 45.0603 56.9149 41.6117 56.9149 37.3032V36.5585C56.9149 33.6684 57.4734 31.0886 58.5904 28.8191C59.7075 26.5319 61.2855 24.7766 63.3245 23.5532C65.3812 22.3121 67.7216 21.6915 70.3458 21.6915C74.2819 21.6915 77.3759 22.9326 79.6277 25.4149C81.8972 27.8972 83.0319 31.4167 83.0319 35.9734V39.1117H64.7075C64.9557 40.9911 65.7004 42.4982 66.9415 43.633C68.2004 44.7677 69.7872 45.3351 71.7021 45.3351C74.6631 45.3351 76.977 44.2624 78.6436 42.117L82.4202 46.3457C81.2677 47.9769 79.7075 49.2535 77.7394 50.1755C75.7713 51.0798 73.5904 51.5319 71.1968 51.5319ZM70.3192 27.9149C68.7943 27.9149 67.5532 28.4291 66.5958 29.4574C65.656 30.4858 65.0532 31.9574 64.7872 33.8723H75.4787V33.2606C75.4433 31.5585 74.9823 30.2465 74.0958 29.3245C73.2092 28.3847 71.9504 27.9149 70.3192 27.9149ZM113.324 36.8777C113.324 41.3103 112.314 44.8652 110.293 47.5426C108.289 50.2021 105.576 51.5319 102.154 51.5319C99.2465 51.5319 96.8972 50.5213 95.1064 48.5V62.0638H87.4202V22.2234H94.5479L94.8138 25.0425C96.6755 22.8085 99.1046 21.6915 102.101 21.6915C105.647 21.6915 108.404 23.0035 110.372 25.6277C112.34 28.2518 113.324 31.8688 113.324 36.4787V36.8777ZM105.638 36.3191C105.638 33.6418 105.16 31.5762 104.202 30.1223C103.262 28.6684 101.888 27.9415 100.08 27.9415C97.6685 27.9415 96.0106 28.8635 95.1064 30.7074V42.4894C96.0461 44.3865 97.7216 45.3351 100.133 45.3351C103.803 45.3351 105.638 42.3298 105.638 36.3191ZM126.223 51H118.511V22.2234H126.223V51ZM118.059 14.7766C118.059 13.6241 118.44 12.6755 119.202 11.9308C119.982 11.1862 121.037 10.8138 122.367 10.8138C123.679 10.8138 124.725 11.1862 125.505 11.9308C126.285 12.6755 126.676 13.6241 126.676 14.7766C126.676 15.9468 126.277 16.9042 125.479 17.6489C124.699 18.3936 123.661 18.766 122.367 18.766C121.073 18.766 120.027 18.3936 119.229 17.6489C118.449 16.9042 118.059 15.9468 118.059 14.7766ZM143.032 39.4574L140.266 42.2234V51H132.58V10.1489H140.266V32.7819L141.755 30.867L149.122 22.2234H158.351L147.952 34.2181L159.255 51H150.426L143.032 39.4574ZM177.261 43.0479C177.261 42.1082 176.791 41.3723 175.851 40.8404C174.929 40.2908 173.44 39.8032 171.383 39.3777C164.539 37.9415 161.117 35.0337 161.117 30.6543C161.117 28.1011 162.172 25.9734 164.282 24.2713C166.41 22.5514 169.184 21.6915 172.606 21.6915C176.259 21.6915 179.176 22.5514 181.356 24.2713C183.555 25.9911 184.654 28.2252 184.654 30.9734H176.968C176.968 29.8741 176.614 28.9699 175.904 28.2606C175.195 27.5337 174.087 27.1702 172.58 27.1702C171.285 27.1702 170.284 27.4628 169.575 28.0479C168.865 28.633 168.511 29.3777 168.511 30.2819C168.511 31.133 168.91 31.8245 169.707 32.3564C170.523 32.8706 171.888 33.3227 173.803 33.7128C175.718 34.0851 177.332 34.5106 178.644 34.9894C182.704 36.4787 184.734 39.0585 184.734 42.7287C184.734 45.3528 183.608 47.4805 181.356 49.1117C179.105 50.7252 176.197 51.5319 172.633 51.5319C170.222 51.5319 168.076 51.1064 166.197 50.2553C164.335 49.3865 162.872 48.2074 161.809 46.7181C160.745 45.211 160.213 43.5887 160.213 41.8511H167.5C167.571 43.2163 168.076 44.2624 169.016 44.9894C169.956 45.7163 171.215 46.0798 172.793 46.0798C174.264 46.0798 175.372 45.805 176.117 45.2553C176.879 44.6879 177.261 43.9521 177.261 43.0479ZM190.106 47.2234C190.106 46 190.514 45.0071 191.33 44.2447C192.163 43.4823 193.2 43.1011 194.442 43.1011C195.7 43.1011 196.738 43.4823 197.553 44.2447C198.387 45.0071 198.803 46 198.803 47.2234C198.803 48.4291 198.395 49.4131 197.58 50.1755C196.764 50.9202 195.718 51.2926 194.442 51.2926C193.183 51.2926 192.145 50.9202 191.33 50.1755C190.514 49.4131 190.106 48.4291 190.106 47.2234Z" fill="#2D2C2C"/>
<circle cx="122.553" cy="13.617" r="5.44681" fill="#1ABC9C"/>
<circle cx="194.724" cy="46.2979" r="5.44681" fill="#1ABC9C"/>
</svg>
