<svg width="19" height="15" viewBox="0 0 19 15" fill="none" xmlns="http://www.w3.org/2000/svg">
<path d="M16.3975 0.00292969H4.33716C3.38698 0.00292969 2.61426 0.791045 2.61426 1.76016V6.15322H4.33716V3.51738L9.85045 7.73472C10.0038 7.85158 10.1856 7.91045 10.3673 7.91045C10.5491 7.91045 10.7309 7.85158 10.8842 7.73472L16.3975 3.51738V11.4249H9.50587V13.1821H16.3975C17.3477 13.1821 18.1204 12.394 18.1204 11.4249V1.76016C18.1204 0.791045 17.3477 0.00292969 16.3975 0.00292969ZM10.3673 5.93357L4.91089 1.76016H15.8238L10.3673 5.93357Z" fill="white"/>
<path d="M0.891113 7.03125H6.92125V8.78848H0.891113V7.03125ZM2.61401 9.6671H7.7827V11.4243H2.61401V9.6671ZM5.19836 12.3029H8.64415V14.0602H5.19836V12.3029Z" fill="white"/>
</svg>
