<svg width="270" height="187" viewBox="0 0 270 187" fill="none" xmlns="http://www.w3.org/2000/svg">
<path d="M260.613 186.831H9.26825C7.03308 186.831 4.88946 185.943 3.30896 184.363C1.72846 182.783 0.840546 180.64 0.840546 178.406V178.406C91.9528 167.821 181.353 167.821 269.04 178.406C269.04 179.512 268.822 180.608 268.399 181.63C267.975 182.652 267.355 183.581 266.572 184.363C265.789 185.145 264.86 185.766 263.838 186.189C262.815 186.613 261.719 186.831 260.613 186.831Z" fill="#2F2E41"/>
<path d="M269.04 178.901L0.840546 178.406L31.924 126.123L32.0727 125.875V10.6498C32.0726 9.25123 32.3481 7.86632 32.8834 6.57417C33.4188 5.28202 34.2035 4.10795 35.1928 3.119C36.1821 2.13004 37.3566 1.3456 38.6492 0.810433C39.9418 0.27527 41.3272 -0.000116769 42.7263 3.71422e-08H225.667C227.066 -0.000116769 228.452 0.27527 229.744 0.810433C231.037 1.3456 232.212 2.13004 233.201 3.119C234.19 4.10795 234.975 5.28202 235.51 6.57417C236.046 7.86632 236.321 9.25123 236.321 10.6498V126.668L269.04 178.901Z" fill="#3F3D56"/>
<path d="M42.4834 7.43359C41.5633 7.43462 40.6813 7.80044 40.0307 8.45078C39.3801 9.10112 39.0142 9.98287 39.0131 10.9026V115.964C39.0142 116.884 39.3802 117.765 40.0307 118.416C40.6813 119.066 41.5633 119.432 42.4834 119.433H227.397C228.317 119.432 229.2 119.066 229.85 118.416C230.501 117.765 230.867 116.884 230.868 115.964V10.9026C230.867 9.98289 230.501 9.10115 229.85 8.45082C229.2 7.80049 228.317 7.43467 227.397 7.43359H42.4834Z" fill="white"/>
<path d="M43.2582 133.309C42.9739 133.309 42.6957 133.391 42.4563 133.544C42.2169 133.698 42.0263 133.916 41.907 134.174L32.3293 154.988C32.225 155.215 32.1794 155.464 32.1966 155.712C32.2139 155.961 32.2935 156.202 32.428 156.412C32.5625 156.621 32.7478 156.794 32.9666 156.914C33.1854 157.034 33.4308 157.096 33.6802 157.096H235.096C235.349 157.096 235.598 157.031 235.82 156.908C236.041 156.785 236.227 156.607 236.361 156.391C236.494 156.175 236.57 155.929 236.581 155.676C236.593 155.423 236.539 155.171 236.426 154.945L226.015 134.131C225.892 133.883 225.702 133.675 225.467 133.53C225.232 133.385 224.961 133.308 224.685 133.309H43.2582Z" fill="#2F2E41"/>
<path d="M134.197 5.69916C135.429 5.69916 136.428 4.70072 136.428 3.46908C136.428 2.23745 135.429 1.23901 134.197 1.23901C132.965 1.23901 131.966 2.23745 131.966 3.46908C131.966 4.70072 132.965 5.69916 134.197 5.69916Z" fill="white"/>
<path d="M114.399 161.061C114.072 161.061 113.755 161.169 113.495 161.368C113.236 161.567 113.049 161.845 112.963 162.161L110.561 171.081C110.502 171.301 110.494 171.533 110.538 171.756C110.582 171.98 110.677 172.191 110.816 172.372C110.955 172.553 111.134 172.7 111.339 172.801C111.543 172.902 111.769 172.955 111.997 172.955H157.687C157.924 172.955 158.158 172.898 158.368 172.789C158.579 172.681 158.761 172.523 158.898 172.33C159.036 172.137 159.125 171.914 159.159 171.679C159.192 171.445 159.169 171.205 159.092 170.981L156.003 162.061C155.902 161.769 155.712 161.516 155.46 161.337C155.208 161.157 154.907 161.061 154.598 161.061H114.399Z" fill="#2F2E41"/>
<path d="M236.321 124.141V126.123H31.924L32.0777 125.875V124.141H236.321Z" fill="#2F2E41"/>
<path d="M65.1995 29.2478C64.4759 29.259 63.7862 29.5566 63.2818 30.0753C62.7773 30.5941 62.4992 31.2917 62.5086 32.0151V94.7396C62.4992 95.463 62.7773 96.1605 63.2818 96.6793C63.7862 97.198 64.4759 97.4956 65.1995 97.5068H204.681C205.405 97.4956 206.095 97.198 206.599 96.6793C207.104 96.1605 207.382 95.463 207.372 94.7396V32.0151C207.382 31.2917 207.104 30.5941 206.599 30.0753C206.095 29.5566 205.405 29.259 204.681 29.2478H65.1995Z" fill="#E6E6E6"/>
<path d="M145.329 97.6187H196.103C196.426 97.6187 196.742 97.5229 197.011 97.3433C197.28 97.1638 197.49 96.9087 197.613 96.6101C197.737 96.3116 197.769 95.9831 197.706 95.6661C197.643 95.3492 197.488 95.0581 197.259 94.8296L164.763 62.3448C164.456 62.0388 164.04 61.867 163.607 61.867C163.174 61.867 162.758 62.0388 162.451 62.3448L154.37 70.4229C154.052 70.7412 153.674 70.9936 153.258 71.1659C152.842 71.3382 152.396 71.4268 151.946 71.4268C151.496 71.4268 151.05 71.3382 150.634 71.1659C150.218 70.9936 149.84 70.7412 149.522 70.4229L124.211 45.1211C123.904 44.8151 123.489 44.6433 123.055 44.6433C122.622 44.6433 122.206 44.8151 121.899 45.1211L72.3975 94.6054C72.169 94.8339 72.0134 95.1251 71.9503 95.442C71.8873 95.7589 71.9197 96.0874 72.0434 96.386C72.1671 96.6845 72.3766 96.9397 72.6454 97.1192C72.9141 97.2987 73.2301 97.3946 73.5534 97.3946H145.394L145.329 97.6187Z" fill="#1ABC9C"/>
<path d="M84.9333 50.3195C88.401 50.3195 91.2122 47.5093 91.2122 44.0428C91.2122 40.5763 88.401 37.7661 84.9333 37.7661C81.4655 37.7661 78.6543 40.5763 78.6543 44.0428C78.6543 47.5093 81.4655 50.3195 84.9333 50.3195Z" fill="#1ABC9C"/>
<path d="M68.547 51.9537C68.4281 51.9537 68.314 51.9064 68.2299 51.8224C68.1458 51.7383 68.0986 51.6243 68.0985 51.5053V21.4669C68.0986 21.348 68.1458 21.234 68.2299 21.1499C68.314 21.0658 68.4281 21.0186 68.547 21.0186H103.081C103.14 21.0184 103.199 21.0298 103.253 21.0523C103.308 21.0747 103.357 21.1077 103.399 21.1494C103.441 21.191 103.474 21.2405 103.497 21.295C103.519 21.3495 103.531 21.4079 103.531 21.4669C103.531 21.5259 103.519 21.5843 103.497 21.6388C103.474 21.6933 103.441 21.7428 103.399 21.7844C103.357 21.8261 103.308 21.8591 103.253 21.8815C103.199 21.904 103.14 21.9154 103.081 21.9152H68.9955V51.5054C68.9955 51.6243 68.9483 51.7383 68.8642 51.8224C68.7801 51.9064 68.666 51.9537 68.547 51.9537V51.9537Z" fill="#3F3D56"/>
<path d="M201.301 52.4022C201.243 52.4022 201.184 52.3906 201.13 52.3681C201.075 52.3455 201.026 52.3125 200.984 52.2709C200.943 52.2293 200.91 52.1798 200.887 52.1254C200.865 52.071 200.853 52.0127 200.853 51.9538V22.3637H166.767C166.648 22.3637 166.534 22.3165 166.45 22.2324C166.366 22.1483 166.319 22.0343 166.319 21.9154C166.319 21.7965 166.366 21.6824 166.45 21.5983C166.534 21.5143 166.648 21.467 166.767 21.467H201.301C201.36 21.467 201.419 21.4786 201.473 21.5011C201.528 21.5237 201.577 21.5567 201.619 21.5983C201.66 21.64 201.693 21.6894 201.716 21.7438C201.738 21.7982 201.75 21.8565 201.75 21.9154V51.9538C201.75 52.0127 201.738 52.071 201.716 52.1254C201.693 52.1798 201.66 52.2293 201.619 52.2709C201.577 52.3125 201.528 52.3455 201.473 52.3681C201.419 52.3906 201.36 52.4022 201.301 52.4022V52.4022Z" fill="#3F3D56"/>
<path d="M103.081 105.306H68.547C68.4881 105.306 68.4298 105.294 68.3754 105.272C68.321 105.249 68.2715 105.216 68.2299 105.174C68.1882 105.133 68.1552 105.083 68.1327 105.029C68.1101 104.975 68.0985 104.916 68.0986 104.857V74.8189C68.0984 74.7599 68.1098 74.7014 68.1323 74.6469C68.1547 74.5923 68.1878 74.5427 68.2294 74.5009C68.2711 74.4592 68.3206 74.426 68.3751 74.4034C68.4296 74.3808 68.488 74.3691 68.547 74.3691C68.6061 74.3691 68.6645 74.3808 68.719 74.4034C68.7735 74.426 68.823 74.4592 68.8647 74.5009C68.9063 74.5427 68.9394 74.5923 68.9618 74.6469C68.9843 74.7014 68.9957 74.7599 68.9955 74.8189V104.409H103.081C103.14 104.409 103.199 104.42 103.253 104.443C103.308 104.465 103.357 104.498 103.399 104.54C103.441 104.581 103.474 104.631 103.497 104.685C103.519 104.74 103.531 104.798 103.531 104.857C103.531 104.916 103.519 104.975 103.497 105.029C103.474 105.084 103.441 105.133 103.399 105.175C103.357 105.216 103.308 105.249 103.253 105.272C103.199 105.294 103.14 105.306 103.081 105.306V105.306Z" fill="#3F3D56"/>
<path d="M201.301 105.754H166.767C166.648 105.754 166.534 105.707 166.45 105.623C166.366 105.539 166.319 105.425 166.319 105.306C166.319 105.187 166.366 105.073 166.45 104.989C166.534 104.905 166.648 104.857 166.767 104.857H200.853V75.2672C200.853 75.1483 200.9 75.0342 200.984 74.9502C201.068 74.8661 201.183 74.8188 201.301 74.8188C201.42 74.8188 201.535 74.8661 201.619 74.9502C201.703 75.0342 201.75 75.1483 201.75 75.2672V105.306C201.75 105.365 201.738 105.423 201.716 105.477C201.693 105.532 201.66 105.581 201.619 105.623C201.577 105.664 201.528 105.697 201.473 105.72C201.419 105.742 201.36 105.754 201.301 105.754Z" fill="#3F3D56"/>
</svg>
