<svg width="438" height="179" viewBox="0 0 438 179" fill="none" xmlns="http://www.w3.org/2000/svg">
<path d="M218.975 178.389C339.912 178.389 437.95 171.913 437.95 163.924C437.95 155.935 339.912 149.459 218.975 149.459C98.0385 149.459 0 155.935 0 163.924C0 171.913 98.0385 178.389 218.975 178.389Z" fill="#F2F2F2"/>
<path d="M210.582 5.56787C174.905 5.56787 149.29 28.4077 149.29 81.7006C149.29 142.099 174.905 158.087 210.582 158.087C246.259 158.087 273.401 140.577 273.401 81.7006C273.401 18.7642 246.259 5.56787 210.582 5.56787ZM210.817 138.039C186.106 138.039 173.196 123.573 173.196 81.7396C173.196 44.8277 186.634 25.3624 211.345 25.3624C236.056 25.3624 249.494 38.1484 249.494 81.7396C249.494 122.518 235.527 138.039 210.817 138.039Z" fill="#2D2C2C"/>
<path d="M127.926 115.96H113.175V72.6167C113.175 70.3145 112.259 68.1066 110.627 66.4788C108.996 64.8509 106.783 63.9363 104.476 63.9363H101.02C99.8773 63.9363 98.7461 64.1609 97.6906 64.5971C96.6352 65.0333 95.6762 65.6727 94.8684 66.4788C94.0606 67.2848 93.4198 68.2417 92.9827 69.2949C92.5455 70.348 92.3205 71.4768 92.3205 72.6167V115.96H50.7131C49.8572 115.96 49.0157 115.74 48.2705 115.32C47.5252 114.899 46.9014 114.294 46.4596 113.563C46.0178 112.831 45.773 111.998 45.7489 111.144C45.7248 110.291 45.9223 109.445 46.3221 108.69L90.3589 25.5228C90.9079 24.4859 91.2407 23.3488 91.3371 22.18C91.4336 21.0113 91.2917 19.8351 90.92 18.7226C90.5483 17.6101 89.9546 16.5842 89.1746 15.707C88.3947 14.8298 87.4446 14.1193 86.3819 13.6186L83.7823 12.3937C81.7638 11.4425 79.456 11.3021 77.3366 12.0014C75.2172 12.7007 73.4483 14.1862 72.3959 16.1507L18.6873 116.405C17.7727 118.113 17.2942 120.018 17.2942 121.954V121.954C17.2942 123.5 17.5993 125.031 18.1921 126.459C18.7849 127.887 19.6538 129.184 20.7491 130.277C21.8445 131.37 23.1449 132.237 24.576 132.829C26.0072 133.42 27.5411 133.725 29.0901 133.725H92.3205V161.132C92.3205 162.499 92.5902 163.852 93.1142 165.114C93.6382 166.377 94.4063 167.524 95.3746 168.49C96.3429 169.456 97.4924 170.222 98.7575 170.745C100.023 171.268 101.379 171.537 102.748 171.537H102.748C104.117 171.537 105.473 171.268 106.738 170.745C108.003 170.222 109.153 169.456 110.121 168.49C111.089 167.524 111.857 166.377 112.381 165.114C112.906 163.852 113.175 162.499 113.175 161.132V133.725H127.926C130.287 133.725 132.551 132.789 134.22 131.123C135.89 129.457 136.828 127.198 136.828 124.843V124.843C136.828 122.487 135.89 120.228 134.22 118.562C132.551 116.896 130.287 115.96 127.926 115.96V115.96Z" fill="#1ABC9C"/>
<path d="M401.073 115.96H386.322V72.6167C386.322 70.3145 385.405 68.1066 383.774 66.4788C382.143 64.8509 379.93 63.9363 377.623 63.9363H374.166C373.024 63.9363 371.893 64.1609 370.837 64.5971C369.782 65.0333 368.823 65.6727 368.015 66.4788C367.207 67.2848 366.567 68.2417 366.129 69.2949C365.692 70.348 365.467 71.4768 365.467 72.6167V115.96H323.86C323.004 115.96 322.162 115.74 321.417 115.32C320.672 114.899 320.048 114.294 319.606 113.563C319.165 112.831 318.92 111.998 318.896 111.144C318.872 110.291 319.069 109.445 319.469 108.69L363.506 25.5228C364.055 24.4859 364.387 23.3488 364.484 22.18C364.58 21.0113 364.438 19.8351 364.067 18.7226C363.695 17.6101 363.101 16.5842 362.321 15.707C361.541 14.8298 360.591 14.1193 359.529 13.6186L356.929 12.3937C354.91 11.4425 352.603 11.3021 350.483 12.0014C348.364 12.7007 346.595 14.1862 345.543 16.1507L291.834 116.405C290.919 118.113 290.441 120.018 290.441 121.954V121.954C290.441 125.076 291.684 128.07 293.896 130.277C296.108 132.485 299.108 133.725 302.237 133.725H365.467V161.132C365.467 163.892 366.566 166.538 368.521 168.49C370.477 170.441 373.129 171.537 375.895 171.537V171.537C378.66 171.537 381.312 170.441 383.268 168.49C385.223 166.538 386.322 163.892 386.322 161.132V133.725H401.073C403.434 133.725 405.698 132.789 407.367 131.123C409.036 129.457 409.974 127.198 409.974 124.843V124.843C409.974 122.487 409.036 120.228 407.367 118.562C405.698 116.896 403.434 115.96 401.073 115.96Z" fill="#1ABC9C"/>
<path d="M131.996 110.885H117.245V67.541C117.245 66.4011 117.02 65.2723 116.582 64.2191C116.145 63.166 115.504 62.2091 114.697 61.4031C113.889 60.597 112.93 59.9576 111.874 59.5214C110.819 59.0852 109.688 58.8606 108.545 58.8606H105.089C102.782 58.8606 100.569 59.7752 98.9377 61.4031C97.3063 63.0309 96.3898 65.2388 96.3898 67.541V110.885H54.7824C53.9265 110.885 53.0851 110.664 52.3398 110.244C51.5946 109.824 50.9708 109.219 50.5289 108.487C50.0871 107.755 49.8423 106.922 49.8182 106.069C49.7941 105.215 49.9916 104.369 50.3915 103.614L94.4282 20.4471C94.9773 19.4103 95.3101 18.2731 95.4065 17.1043C95.5029 15.9356 95.361 14.7594 94.9893 13.6469C94.6177 12.5344 94.0239 11.5086 93.244 10.6313C92.464 9.7541 91.514 9.04366 90.4513 8.5429L87.8517 7.31798C85.8331 6.36684 83.5254 6.22639 81.406 6.9257C79.2865 7.62501 77.5176 9.11054 76.4652 11.0749L22.7566 111.33C21.842 113.037 21.3635 114.943 21.3635 116.879C21.3635 120 22.6063 122.994 24.8185 125.201C27.0306 127.409 30.031 128.649 33.1595 128.649H96.3898V156.057C96.3898 157.423 96.6595 158.776 97.1835 160.038C97.7076 161.301 98.4757 162.448 99.4439 163.414C100.412 164.38 101.562 165.147 102.827 165.669C104.092 166.192 105.448 166.461 106.817 166.461C109.583 166.461 112.235 165.365 114.19 163.414C116.146 161.463 117.245 158.816 117.245 156.057V128.649H131.995C133.164 128.649 134.322 128.419 135.402 127.973C136.482 127.526 137.463 126.872 138.29 126.047C139.116 125.223 139.772 124.243 140.219 123.166C140.667 122.088 140.897 120.933 140.897 119.767C140.897 118.6 140.667 117.445 140.219 116.368C139.772 115.29 139.116 114.311 138.29 113.486C137.463 112.661 136.482 112.007 135.402 111.561C134.322 111.114 133.164 110.885 131.996 110.885Z" stroke="#3F3D56" stroke-miterlimit="10"/>
<path d="M408.702 110.885H393.952V67.541C393.952 65.2388 393.035 63.0309 391.404 61.4031C389.772 59.7752 387.56 58.8606 385.252 58.8606H381.796C380.654 58.8606 379.522 59.0852 378.467 59.5214C377.412 59.9576 376.453 60.597 375.645 61.4031C374.837 62.2091 374.196 63.166 373.759 64.2191C373.322 65.2723 373.097 66.4011 373.097 67.541V110.885H331.489C330.634 110.885 329.792 110.664 329.047 110.244C328.302 109.824 327.678 109.219 327.236 108.487C326.794 107.755 326.549 106.922 326.525 106.069C326.501 105.215 326.699 104.369 327.099 103.614L371.135 20.4471C371.684 19.4103 372.017 18.2731 372.114 17.1043C372.21 15.9356 372.068 14.7594 371.696 13.6469C371.325 12.5344 370.731 11.5086 369.951 10.6313C369.171 9.7541 368.221 9.04366 367.158 8.5429L364.559 7.31798C362.54 6.36684 360.232 6.22639 358.113 6.9257C355.994 7.62501 354.225 9.11054 353.172 11.0749L299.464 111.33C298.549 113.037 298.071 114.943 298.071 116.879C298.071 120 299.313 122.994 301.526 125.201C303.738 127.409 306.738 128.649 309.866 128.649H373.097V156.057C373.097 158.816 374.195 161.463 376.151 163.414C378.106 165.365 380.759 166.461 383.524 166.461V166.461C386.29 166.461 388.942 165.365 390.897 163.414C392.853 161.463 393.952 158.816 393.952 156.057V128.649H408.702C409.871 128.649 411.029 128.419 412.109 127.973C413.189 127.526 414.17 126.872 414.997 126.047C415.823 125.223 416.479 124.243 416.926 123.166C417.374 122.088 417.604 120.933 417.604 119.767V119.767C417.604 117.411 416.666 115.152 414.997 113.486C413.327 111.82 411.063 110.885 408.702 110.885V110.885Z" stroke="#3F3D56" stroke-miterlimit="10"/>
<path d="M218.721 1C183.044 1 157.428 23.8398 157.428 77.1327C157.428 137.531 183.044 153.519 218.721 153.519C254.398 153.519 281.539 136.009 281.539 77.1327C281.539 14.1963 254.398 1 218.721 1ZM218.955 133.471C194.244 133.471 181.335 119.005 181.335 77.1717C181.335 40.2598 194.773 20.7945 219.484 20.7945C244.194 20.7945 257.633 33.5805 257.633 77.1717C257.633 117.951 243.666 133.471 218.955 133.471V133.471Z" stroke="#3F3D56" stroke-miterlimit="10"/>
</svg>
