<svg width="18" height="12" viewBox="0 0 18 12" fill="none" xmlns="http://www.w3.org/2000/svg">
<path d="M17.0122 1.52808C17.1326 1.12032 17.0122 0.821289 16.443 0.821289H14.5575C14.0777 0.821289 13.8585 1.07998 13.7381 1.3641C13.7381 1.3641 12.7794 3.74844 11.4209 5.29444C10.9824 5.7443 10.7821 5.88636 10.5431 5.88636C10.4236 5.88636 10.2499 5.7443 10.2499 5.33653V1.52808C10.2499 1.03876 10.1115 0.821289 9.71166 0.821289H6.7488C6.44959 0.821289 6.26903 1.04753 6.26903 1.26326C6.26903 1.72627 6.94827 1.83325 7.01791 3.1381V5.96879C7.01791 6.58877 6.90872 6.70189 6.66798 6.70189C6.02915 6.70189 4.47463 4.30879 3.55207 1.5693C3.37237 1.03701 3.19095 0.822166 2.70947 0.822166H0.824791C0.285697 0.822166 0.178223 1.08086 0.178223 1.36498C0.178223 1.87534 0.817052 4.40086 3.15398 7.74104C4.71194 10.0219 6.90528 11.2584 8.90345 11.2584C10.1011 11.2584 10.249 10.9839 10.249 10.5103V8.78632C10.249 8.23737 10.3634 8.12688 10.7426 8.12688C11.0211 8.12688 11.5009 8.2707 12.6195 9.36947C13.8972 10.6726 14.1087 11.2575 14.8266 11.2575H16.7113C17.2495 11.2575 17.5186 10.983 17.3639 10.4411C17.1945 9.90176 16.584 9.11692 15.7741 8.18827C15.3339 7.65861 14.6761 7.08861 14.4758 6.80361C14.1964 6.43619 14.2772 6.27396 14.4758 5.94774C14.4767 5.94862 16.7732 2.64966 17.0122 1.52808Z" fill="white"/>
</svg>
