<svg width="242" height="212" viewBox="0 0 242 212" fill="none" xmlns="http://www.w3.org/2000/svg">
<path d="M8.64286 39.1562H233.357C238.131 39.1562 242 35.2949 242 30.5312V8.96875C242 4.20505 238.131 0.34375 233.357 0.34375H8.64286C3.8693 0.34375 0 4.20505 0 8.96875V30.5312C0 35.2949 3.8693 39.1562 8.64286 39.1562ZM8.64286 125.406H233.357C238.131 125.406 242 121.545 242 116.781V95.2188C242 90.4551 238.131 86.5938 233.357 86.5938H8.64286C3.8693 86.5938 0 90.4551 0 95.2188V116.781C0 121.545 3.8693 125.406 8.64286 125.406ZM8.64286 211.656H233.357C238.131 211.656 242 207.795 242 203.031V181.469C242 176.705 238.131 172.844 233.357 172.844H8.64286C3.8693 172.844 0 176.705 0 181.469V203.031C0 207.795 3.8693 211.656 8.64286 211.656Z" fill="#F8F7FC"/>
</svg>
