<svg width="70" height="92" viewBox="0 0 70 92" fill="none" xmlns="http://www.w3.org/2000/svg">
<g clip-path="url(#clip0)">
<path d="M17.7039 65.1592C16.1198 63.5977 16.9456 64.0379 13.1247 63.0299C11.3912 62.5717 9.8672 61.6912 8.48907 60.6365L0.2185 80.6249C-0.581761 82.5601 0.913031 84.6625 3.03126 84.5834L12.6362 84.2222L19.2425 91.1007C20.7008 92.6172 23.2602 92.1447 24.0604 90.2094L33.5487 67.2777C31.5727 68.363 29.3797 68.9991 27.112 68.9991C23.5573 68.9991 20.2177 67.6353 17.7039 65.1592ZM69.781 80.6249L61.5104 60.6365C60.1323 61.693 58.6083 62.5717 56.8747 63.0299C53.0339 64.0433 53.876 63.6013 52.2956 65.1592C49.7818 67.6353 46.4404 68.9991 42.8857 68.9991C40.618 68.9991 38.425 68.3612 36.449 67.2777L45.9372 90.2094C46.7375 92.1447 49.2987 92.6172 50.7552 91.1007L57.3633 84.2222L66.9682 84.5834C69.0865 84.6625 70.5813 82.5583 69.781 80.6249ZM47.9425 61.0929C50.7279 58.2987 51.0469 58.5395 55.0135 57.474C57.5456 56.7929 59.5253 54.8074 60.2034 52.2666C61.5669 47.1635 61.2133 47.7798 64.9339 44.0459C66.7878 42.1862 67.5115 39.4747 66.8333 36.9339C65.4716 31.8344 65.4698 32.5459 66.8333 27.441C67.5115 24.9002 66.7878 22.1887 64.9339 20.329C61.2133 16.5951 61.5669 17.2096 60.2034 12.1083C59.5253 9.56749 57.5456 7.58194 55.0135 6.90093C49.9313 5.5335 50.5438 5.89108 46.8195 2.15538C44.9656 0.295614 42.2622 -0.43212 39.7302 0.248895C34.6497 1.61452 35.3589 1.61632 30.2693 0.248895C27.7372 -0.43212 25.0339 0.293817 23.18 2.15538C19.4594 5.88929 20.0719 5.5335 14.9878 6.90093C12.4557 7.58194 10.4761 9.56749 9.79793 12.1083C8.43621 17.2096 8.78803 16.5951 5.06746 20.329C3.21355 22.1887 2.48803 24.9002 3.16798 27.441C4.5297 32.5369 4.53152 31.8254 3.16798 36.9321C2.48985 39.4729 3.21355 42.1844 5.06746 44.0459C8.78803 47.7798 8.43438 47.1635 9.79793 52.2666C10.4761 54.8074 12.4557 56.7929 14.9878 57.474C19.0675 58.5701 19.3719 58.3976 22.057 61.0929C24.4688 63.5133 28.2258 63.9463 31.1242 62.1387C32.2833 61.4134 33.6278 61.0282 35.0007 61.0282C36.3735 61.0282 37.7181 61.4134 38.8771 62.1387C41.7737 63.9463 45.5307 63.5133 47.9425 61.0929ZM17.8024 31.6169C17.8024 22.0881 25.5023 14.3633 34.9997 14.3633C44.4971 14.3633 52.1971 22.0881 52.1971 31.6169C52.1971 41.1458 44.4971 48.8705 34.9997 48.8705C25.5023 48.8705 17.8024 41.1458 17.8024 31.6169Z" fill="#FC7979"/>
</g>
<defs>
<clipPath id="clip0">
<rect width="70" height="92" fill="white"/>
</clipPath>
</defs>
</svg>
