<svg width="32" height="27" viewBox="0 0 32 27" fill="none" xmlns="http://www.w3.org/2000/svg">
<path d="M26.4 22.7836H5.6C5.16 22.7836 4.8 23.1498 4.8 23.5973V25.2247C4.8 25.6722 5.16 26.0384 5.6 26.0384H26.4C26.84 26.0384 27.2 25.6722 27.2 25.2247V23.5973C27.2 23.1498 26.84 22.7836 26.4 22.7836ZM29.6 6.5096C28.275 6.5096 27.2 7.60301 27.2 8.9507C27.2 9.31178 27.28 9.64743 27.42 9.95766L23.8 12.1648C23.03 12.6327 22.035 12.3682 21.59 11.5749L17.515 4.32278C18.05 3.87525 18.4 3.20394 18.4 2.4411C18.4 1.09341 17.325 0 16 0C14.675 0 13.6 1.09341 13.6 2.4411C13.6 3.20394 13.95 3.87525 14.485 4.32278L10.41 11.5749C9.965 12.3682 8.965 12.6327 8.2 12.1648L4.585 9.95766C4.72 9.65252 4.805 9.31178 4.805 8.9507C4.805 7.60301 3.73 6.5096 2.405 6.5096C1.08 6.5096 0 7.60301 0 8.9507C0 10.2984 1.075 11.3918 2.4 11.3918C2.53 11.3918 2.66 11.3715 2.785 11.3511L6.4 21.1562H25.6L29.215 11.3511C29.34 11.3715 29.47 11.3918 29.6 11.3918C30.925 11.3918 32 10.2984 32 8.9507C32 7.60301 30.925 6.5096 29.6 6.5096Z" fill="#A285FC"/>
</svg>
