<svg width="18" height="15" viewBox="0 0 18 15" fill="none" xmlns="http://www.w3.org/2000/svg">
<path d="M17.659 5.21029C17.7961 5.0971 18 5.20298 18 5.38189V12.8486C18 13.8162 17.2441 14.6012 16.3125 14.6012H1.6875C0.755859 14.6012 0 13.8162 0 12.8486V5.38554C0 5.20298 0.200391 5.10075 0.341016 5.21394C1.12852 5.84924 2.17266 6.65616 5.75859 9.3617C6.50039 9.92398 7.75195 11.107 9 11.0997C10.2551 11.1106 11.5312 9.90207 12.2449 9.3617C15.8309 6.65616 16.8715 5.84559 17.659 5.21029ZM9 9.92763C9.81563 9.94224 10.9898 8.86148 11.5805 8.41604C16.2457 4.89993 16.6008 4.59323 17.6766 3.71694C17.8805 3.55264 18 3.29706 18 3.02687V2.33314C18 1.36557 17.2441 0.580566 16.3125 0.580566H1.6875C0.755859 0.580566 0 1.36557 0 2.33314V3.02687C0 3.29706 0.119531 3.54899 0.323437 3.71694C1.39922 4.58958 1.7543 4.89993 6.41953 8.41604C7.01016 8.86148 8.18437 9.94224 9 9.92763Z" fill="#F8F7FC"/>
</svg>
