<svg width="40" height="40" viewBox="0 0 40 40" fill="none" xmlns="http://www.w3.org/2000/svg">
<path d="M35.7143 0.75H4.28571C3.14907 0.75 2.05898 1.1846 1.25526 1.95818C0.451529 2.73177 0 3.78098 0 4.875L0 35.125C0 36.219 0.451529 37.2682 1.25526 38.0418C2.05898 38.8154 3.14907 39.25 4.28571 39.25H16.5402V26.1609H10.9152V20H16.5402V15.3044C16.5402 9.96336 19.8438 7.01312 24.9036 7.01312C27.3268 7.01312 29.8607 7.42906 29.8607 7.42906V12.6713H27.0688C24.3179 12.6713 23.4598 14.3144 23.4598 15.9996V20H29.6009L28.6188 26.1609H23.4598V39.25H35.7143C36.8509 39.25 37.941 38.8154 38.7447 38.0418C39.5485 37.2682 40 36.219 40 35.125V4.875C40 3.78098 39.5485 2.73177 38.7447 1.95818C37.941 1.1846 36.8509 0.75 35.7143 0.75Z" fill="#FC7979"/>
</svg>
