<svg width="40" height="40" viewBox="0 0 40 40" fill="none" xmlns="http://www.w3.org/2000/svg">
<path d="M20 15.4161C19.0581 15.4164 18.1375 15.6856 17.3546 16.1895C16.5716 16.6933 15.9615 17.4094 15.6013 18.247C15.2411 19.0846 15.147 20.0063 15.331 20.8953C15.515 21.7844 15.9687 22.601 16.6348 23.2419C17.3009 23.8828 18.1495 24.3192 19.0733 24.496C19.9971 24.6727 20.9546 24.5818 21.8247 24.2348C22.6949 23.8878 23.4386 23.3003 23.9618 22.5465C24.485 21.7927 24.7643 20.9065 24.7643 20C24.7633 18.7843 24.261 17.6186 23.3677 16.7591C22.4744 15.8996 21.2631 15.4165 20 15.4161ZM31.1348 11.8927C30.8924 11.3013 30.5263 10.7641 30.0592 10.3146C29.5921 9.86504 29.0341 9.51265 28.4196 9.2793C26.5446 8.56687 22.0804 8.72672 20 8.72672C17.9196 8.72672 13.4598 8.56086 11.5795 9.2793C10.965 9.51265 10.407 9.86504 9.93992 10.3146C9.47285 10.7641 9.10674 11.3013 8.86429 11.8927C8.125 13.6973 8.29018 17.9985 8.29018 19.9991C8.29018 21.9998 8.125 26.2958 8.86786 28.1065C9.11031 28.6979 9.47642 29.235 9.94349 29.6846C10.4106 30.1341 10.9686 30.4865 11.583 30.7198C13.458 31.4323 17.9223 31.2724 20.0036 31.2724C22.0848 31.2724 26.5429 31.4383 28.4232 30.7198C29.0376 30.4865 29.5957 30.1341 30.0628 29.6846C30.5298 29.235 30.8959 28.6979 31.1384 28.1065C31.8839 26.3018 31.7125 22.0006 31.7125 20C31.7125 17.9994 31.8839 13.7042 31.1384 11.8935L31.1348 11.8927ZM20 27.0469C18.552 27.0469 17.1364 26.6336 15.9324 25.8593C14.7284 25.0849 13.79 23.9844 13.2359 22.6967C12.6817 21.4091 12.5368 19.9922 12.8193 18.6252C13.1018 17.2583 13.799 16.0026 14.823 15.0171C15.8469 14.0316 17.1514 13.3604 18.5717 13.0885C19.9919 12.8166 21.464 12.9562 22.8018 13.4895C24.1396 14.0229 25.2831 14.9261 26.0875 16.085C26.892 17.2438 27.3214 18.6063 27.3214 20C27.3226 20.9257 27.134 21.8426 26.7665 22.6981C26.399 23.5535 25.8597 24.3308 25.1797 24.9854C24.4996 25.64 23.692 26.159 22.8032 26.5128C21.9144 26.8665 20.9618 27.048 20 27.0469ZM27.6232 14.3023C27.2852 14.3025 26.9547 14.2062 26.6735 14.0256C26.3924 13.8449 26.1732 13.5881 26.0437 13.2875C25.9143 12.987 25.8803 12.6563 25.9461 12.3371C26.012 12.018 26.1746 11.7248 26.4136 11.4947C26.6526 11.2646 26.9571 11.1079 27.2886 11.0443C27.6201 10.9808 27.9638 11.0133 28.2761 11.1378C28.5884 11.2622 28.8554 11.4731 29.0432 11.7436C29.231 12.0141 29.3313 12.3321 29.3313 12.6575C29.3322 12.8736 29.2888 13.0877 29.2036 13.2876C29.1184 13.4874 28.993 13.6692 28.8346 13.8223C28.6763 13.9754 28.488 14.097 28.2808 14.1799C28.0735 14.2629 27.8513 14.3057 27.6268 14.3058L27.6232 14.3023ZM35.7143 0.75H4.28571C3.14907 0.75 2.05898 1.1846 1.25526 1.95818C0.451529 2.73177 0 3.78098 0 4.875L0 35.125C0 36.219 0.451529 37.2682 1.25526 38.0418C2.05898 38.8154 3.14907 39.25 4.28571 39.25H35.7143C36.8509 39.25 37.941 38.8154 38.7447 38.0418C39.5485 37.2682 40 36.219 40 35.125V4.875C40 3.78098 39.5485 2.73177 38.7447 1.95818C37.941 1.1846 36.8509 0.75 35.7143 0.75ZM34.1857 25.6719C34.0705 27.8745 33.5482 29.8261 31.8777 31.4297C30.2071 33.0333 28.1813 33.5463 25.8955 33.6512C23.5375 33.7792 16.4679 33.7792 14.1098 33.6512C11.8214 33.5403 9.80089 33.0367 8.12768 31.4297C6.45446 29.8227 5.92857 27.8702 5.81964 25.6719C5.68661 23.4014 5.68661 16.596 5.81964 14.3281C5.93482 12.1255 6.45089 10.1739 8.12768 8.57031C9.80446 6.96672 11.8304 6.45969 14.1098 6.35484C16.4679 6.2268 23.5375 6.2268 25.8955 6.35484C28.1839 6.4657 30.2107 6.9693 31.8777 8.57633C33.5446 10.1834 34.0768 12.1359 34.1857 14.3384C34.3188 16.6003 34.3188 23.3997 34.1857 25.6719Z" fill="#FC7979"/>
</svg>
