<svg width="40" height="40" viewBox="0 0 40 40" fill="none" xmlns="http://www.w3.org/2000/svg">
<path d="M37.1429 0.75H2.84821C1.27679 0.75 0 1.99609 0 3.52578V36.4742C0 38.0039 1.27679 39.25 2.84821 39.25H37.1429C38.7143 39.25 40 38.0039 40 36.4742V3.52578C40 1.99609 38.7143 0.75 37.1429 0.75ZM12.0893 33.75H6.16071V15.3766H12.0982V33.75H12.0893ZM9.125 12.8672C7.22321 12.8672 5.6875 11.3805 5.6875 9.55859C5.6875 7.73672 7.22321 6.25 9.125 6.25C11.0179 6.25 12.5625 7.73672 12.5625 9.55859C12.5625 11.3891 11.0268 12.8672 9.125 12.8672ZM34.3125 33.75H28.3839V24.8125C28.3839 22.6812 28.3393 19.9398 25.3036 19.9398C22.2143 19.9398 21.7411 22.2602 21.7411 24.6578V33.75H15.8125V15.3766H21.5V17.8859H21.5804C22.375 16.4422 24.3125 14.9211 27.1964 14.9211C33.1964 14.9211 34.3125 18.7281 34.3125 23.6781V33.75Z" fill="#FC7979"/>
</svg>
