<svg width="16" height="19" viewBox="0 0 16 19" fill="none" xmlns="http://www.w3.org/2000/svg">
<path d="M14.2857 8.56905H13.4286V6.03405C13.4286 3.0836 10.9929 0.682404 8 0.682404C5.00714 0.682404 2.57143 3.0836 2.57143 6.03405V8.56905H1.71429C0.767857 8.56905 0 9.32602 0 10.259V17.019C0 17.952 0.767857 18.709 1.71429 18.709H14.2857C15.2321 18.709 16 17.952 16 17.019V10.259C16 9.32602 15.2321 8.56905 14.2857 8.56905ZM10.5714 8.56905H5.42857V6.03405C5.42857 4.63629 6.58214 3.49906 8 3.49906C9.41786 3.49906 10.5714 4.63629 10.5714 6.03405V8.56905Z" fill="#F8F7FC"/>
</svg>
