<svg width="78" height="90" viewBox="0 0 78 90" fill="none" xmlns="http://www.w3.org/2000/svg">
<path d="M78 63.2812V4.21875C78 1.88086 76.1371 0 73.8214 0H16.7143C7.48661 0 0 7.55859 0 16.875V73.125C0 82.4414 7.48661 90 16.7143 90H73.8214C76.1371 90 78 88.1191 78 85.7812V82.9688C78 81.6504 77.3906 80.4551 76.4504 79.6816C75.7192 76.9746 75.7192 69.2578 76.4504 66.5508C77.3906 65.7949 78 64.5996 78 63.2812ZM22.2857 23.5547C22.2857 22.9746 22.7558 22.5 23.3304 22.5H60.2411C60.8156 22.5 61.2857 22.9746 61.2857 23.5547V27.0703C61.2857 27.6504 60.8156 28.125 60.2411 28.125H23.3304C22.7558 28.125 22.2857 27.6504 22.2857 27.0703V23.5547ZM22.2857 34.8047C22.2857 34.2246 22.7558 33.75 23.3304 33.75H60.2411C60.8156 33.75 61.2857 34.2246 61.2857 34.8047V38.3203C61.2857 38.9004 60.8156 39.375 60.2411 39.375H23.3304C22.7558 39.375 22.2857 38.9004 22.2857 38.3203V34.8047ZM66.4045 78.75H16.7143C13.6326 78.75 11.1429 76.2363 11.1429 73.125C11.1429 70.0312 13.65 67.5 16.7143 67.5H66.4045C66.0737 70.5059 66.0737 75.7441 66.4045 78.75Z" fill="#FC7979"/>
</svg>
