<svg width="54" height="44" viewBox="0 0 54 44" fill="none" xmlns="http://www.w3.org/2000/svg">
<path d="M10.8 30.25H2.7C1.20909 30.25 0 31.4815 0 33V41.25C0 42.7685 1.20909 44 2.7 44H10.8C12.2909 44 13.5 42.7685 13.5 41.25V33C13.5 31.4815 12.2909 30.25 10.8 30.25ZM8.775 23.375H24.975V27.5H29.025V23.375H45.225V27.5H49.275V22.5509C49.275 20.7316 47.8212 19.25 46.0342 19.25H29.025V13.75H32.4C33.8909 13.75 35.1 12.5185 35.1 11V2.75C35.1 1.23148 33.8909 0 32.4 0H21.6C20.1091 0 18.9 1.23148 18.9 2.75V11C18.9 12.5185 20.1091 13.75 21.6 13.75H24.975V19.25H7.96584C6.17878 19.25 4.725 20.7307 4.725 22.5509V27.5H8.775V23.375ZM31.05 30.25H22.95C21.4591 30.25 20.25 31.4815 20.25 33V41.25C20.25 42.7685 21.4591 44 22.95 44H31.05C32.5409 44 33.75 42.7685 33.75 41.25V33C33.75 31.4815 32.5409 30.25 31.05 30.25ZM51.3 30.25H43.2C41.7091 30.25 40.5 31.4815 40.5 33V41.25C40.5 42.7685 41.7091 44 43.2 44H51.3C52.7909 44 54 42.7685 54 41.25V33C54 31.4815 52.7909 30.25 51.3 30.25Z" fill="#33334F"/>
</svg>
