<svg width="40" height="44" viewBox="0 0 40 44" fill="none" xmlns="http://www.w3.org/2000/svg">
<path d="M20 0.6875C8.95161 0.6875 0 10.2266 0 22C0 33.7734 8.95161 43.3125 20 43.3125C31.0484 43.3125 40 33.7734 40 22C40 10.2266 31.0484 0.6875 20 0.6875ZM29.8226 15.2883L26.5403 31.7711C26.2984 32.9398 25.6452 33.2234 24.7339 32.6734L19.7339 28.7461L17.3226 31.2211C17.0565 31.5047 16.8306 31.7453 16.3145 31.7453L16.6694 26.3227L25.9355 17.4023C26.3387 17.0242 25.8468 16.8094 25.3145 17.1875L13.8629 24.8703L8.92742 23.2289C7.85484 22.868 7.83065 22.0859 9.15323 21.5359L28.4355 13.6125C29.3306 13.2688 30.1129 13.8445 29.8226 15.2883Z" fill="#FC7979"/>
</svg>
